Crickx_droiteRush.sfdir

StartChar: zero
Encoding: 48 48 75
Width: 546
VWidth: 0
Flags: HW
LayerCount: 2
Fore
SplineSet
310.775 675.175 m 21
 310.775 675.175 65 728.428 65 363.263 c 4
 65 39.9395 177.644 -13.3125 267.032 -7.6084 c 4
 394.258 0.512695 491.867 49.4492 491.867 329.028 c 5
 491.867 473.573 495.26 635.234 324.089 675.175 c 13
 324.089 188.288 l 21
 324.089 188.288 310.775 163.563 274.64 163.563 c 4
 225.189 163.563 228.994 197.798 228.994 197.798 c 13
 228.994 464.062 l 21
 228.994 462.162 232.798 509.709 268.935 509.709 c 4
 305.069 509.709 294.457 502.748 310.775 498.298 c 29
 310.775 675.175 l 21
EndSplineSet
EndChar

StartChar: uni0031
Encoding: 49 49 1
Width: 455
VWidth: 0
Flags: HW
LayerCount: 2
Fore
SplineSet
192 680.64 m 5
 189.12 677.76 l 6
 188.16 675.84 186.24 672 185.28 671.04 c 4
 184.32 669.12 182.4 666.24 181.44 664.32 c 4
 179.52 662.4 177.6 658.56 175.68 655.68 c 4
 174.72 652.8 172.8 649.92 171.84 648.96 c 4
 171.84 648 169.92 645.12 168 642.24 c 4
 166.08 639.36 163.2 634.56 161.28 631.68 c 4
 159.36 628.8 157.44 625.92 157.44 624.96 c 6
 157.44 624.96 155.52 621.12 152.64 618.24 c 5
 149.76 613.44 145.92 606.72 141.12 600 c 4
 141.12 599.04 138.24 595.2 135.36 590.4 c 4
 132.48 586.56 129.6 582.72 129.6 581.76 c 4
 128.64 580.8 125.76 575.04 121.92 569.28 c 4
 118.08 563.52 114.24 558.72 114.24 557.76 c 6
 114.24 557.76 111.36 554.88 109.44 551.04 c 4
 106.56 547.2 104.64 544.32 104.64 544.32 c 6
 104.64 543.36 102.72 541.44 101.76 539.52 c 4
 99.8398 536.64 96.96 532.8 91.2002 525.12 c 4
 90.2402 523.2 87.3604 519.36 85.4404 515.52 c 5
 82.5596 512.64 79.6797 506.88 77.7598 504.96 c 4
 64.3203 486.72 65.2803 487.68 65.2803 485.76 c 4
 65.2803 484.8 65.2803 480.96 65.2803 478.08 c 4
 65.2803 472.32 64.3203 446.4 63.3604 437.76 c 4
 63.3604 433.92 63.3604 426.24 63.3604 421.44 c 4
 62.4004 416.64 62.4004 408 62.4004 401.28 c 4
 62.4004 394.56 61.4404 389.76 61.4404 388.8 c 6
 61.4404 388.8 61.4404 385.92 61.4404 381.12 c 4
 61.4404 377.28 60.4805 369.6 60.4805 364.8 c 4
 59.5195 352.32 59.5195 352.32 68.1602 358.08 c 4
 72 360.96 77.7598 364.8 79.6797 365.76 c 4
 82.5596 367.68 86.4004 369.6 88.3203 371.52 c 4
 96 376.32 101.76 380.16 102.72 380.16 c 6
 102.72 380.16 103.68 380.16 103.68 381.12 c 5
 104.64 381.12 106.56 383.04 108.48 384 c 4
 110.4 385.92 115.2 387.84 118.08 389.76 c 4
 122.88 393.6 129.6 397.44 137.28 403.2 c 5
 140.16 404.16 144 407.04 147.84 408.96 c 4
 151.68 411.84 155.52 413.76 157.44 414.72 c 4
 159.36 415.68 162.24 417.6 163.2 418.56 c 4
 166.08 420.48 171.84 423.36 171.84 422.4 c 6
 171.84 422.4 172.8 235.2 172.8 121.92 c 4
 172.8 38.4004 172.8 11.5195 172.8 11.5195 c 5
 173.76 11.5195 173.76 10.5596 172.8 10.5596 c 5
 172.8 9.59961 172.8 4.7998 172.8 3.83984 c 4
 173.76 2.87988 173.76 2.87988 177.6 2.87988 c 4
 179.52 2.87988 183.36 2.87988 186.24 2.87988 c 4
 227.52 1.91992 313.92 1.91992 316.8 2.87988 c 4
 317.76 2.87988 317.76 14.4004 316.8 37.4404 c 4
 316.8 42.2402 316.8 65.2803 316.8 90.2402 c 4
 316.8 115.2 315.84 150.72 315.84 169.92 c 4
 314.88 202.56 314.88 215.04 315.84 263.04 c 4
 315.84 273.6 315.84 291.84 314.88 304.32 c 4
 314.88 315.84 314.88 354.24 314.88 389.76 c 4
 314.88 424.32 313.92 467.52 313.92 484.8 c 4
 313.92 502.08 313.92 538.56 313.92 566.4 c 4
 313.92 599.04 313.92 619.2 312.96 622.08 c 4
 312.96 624.96 312.96 629.76 312 633.6 c 5
 312 647.04 311.04 663.36 309.12 675.84 c 6
 308.16 681.6 l 5
 269.76 681.6 l 6
 248.64 681.6 222.72 681.6 211.2 681.6 c 6
 192 680.64 l 5
250.56 432.96 m 4
 251.52 433.92 251.52 433.92 251.52 432.96 c 6
 251.52 432 l 5
 250.56 432 250.56 432 250.56 432.96 c 4
425.28 539.52 m 5
 426.24 538.56 426.24 539.52 426.24 540.48 c 4
 426.24 541.44 426.24 541.44 425.28 540.48 c 4
 425.28 539.52 425.28 539.52 425.28 539.52 c 5
EndSplineSet
EndChar

StartChar: uni0032
Encoding: 50 50 2
Width: 528
VWidth: 0
Flags: HW
LayerCount: 2
Fore
SplineSet
243.84 672 m 0
 241.92 672 240 671.04 238.08 670.08 c 0
 225.6 667.2 207.36 658.56 186.24 646.08 c 0
 183.36 644.16 173.76 637.44 170.88 634.56 c 0
 169.92 632.64 167.04 630.72 166.08 629.76 c 0
 162.24 626.88 150.72 615.36 145.92 610.56 c 0
 144 608.64 142.08 605.76 142.08 605.76 c 1
 127.68 590.4 111.36 557.76 104.64 532.8 c 0
 103.68 530.88 102.72 528 102.72 527.04 c 0
 99.8398 517.44 96 495.36 95.04 484.8 c 0
 94.0801 470.4 94.0801 466.56 94.0801 456.96 c 0
 94.0801 445.44 94.0801 444.48 96 444.48 c 0
 97.9199 444.48 140.16 442.56 146.88 441.6 c 0
 149.76 441.6 156.48 441.6 163.2 440.64 c 1
 174.72 440.64 194.88 439.68 200.64 438.72 c 1
 207.36 438.72 217.92 437.76 218.88 437.76 c 1
 218.88 438.72 219.84 438.72 218.88 439.68 c 0
 215.04 460.8 220.8 493.44 231.36 508.8 c 0
 249.6 534.72 277.44 539.52 296.64 519.36 c 0
 303.36 513.6 310.08 502.08 310.08 498.24 c 0
 310.08 497.28 310.08 496.32 310.08 495.36 c 0
 311.04 493.44 312 488.64 312 481.92 c 0
 312 451.2 290.88 408 263.04 384 c 0
 260.16 381.12 251.52 373.44 245.76 367.68 c 0
 240 360.96 231.36 353.28 226.56 348.48 c 0
 187.2 310.08 164.16 285.12 154.56 272.64 c 0
 153.6 271.68 152.64 269.76 151.68 269.76 c 0
 144.96 262.08 120.96 227.52 114.24 216 c 0
 105.6 200.64 106.56 202.56 103.68 196.8 c 0
 93.1201 173.76 90.2402 165.12 83.5195 141.12 c 0
 82.5596 135.36 80.6396 129.6 80.6396 128.64 c 0
 80.6396 127.68 80.6396 126.72 80.6396 125.76 c 0
 79.6797 124.8 74.8799 97.9199 74.8799 94.0801 c 0
 74.8799 93.1201 74.8799 91.2002 73.9199 89.2803 c 0
 72.96 81.5996 72 5.75977 72.96 3.83984 c 1
 72.96 3.83984 83.5195 3.83984 113.28 3.83984 c 0
 134.4 3.83984 156.48 2.87988 161.28 2.87988 c 0
 165.12 2.87988 176.64 2.87988 185.28 2.87988 c 0
 193.92 2.87988 203.52 1.91992 206.4 1.91992 c 0
 219.84 1.91992 254.4 0.959961 292.8 0.959961 c 0
 316.8 0.959961 340.8 0.959961 345.6 0.959961 c 0
 355.2 0 377.28 0 418.56 0 c 1
 445.44 -0.959961 445.44 -0.959961 445.44 0.959961 c 2
 445.44 0.959961 446.4 11.5195 446.4 24.96 c 0
 446.4 37.4404 446.4 51.8398 446.4 56.6396 c 0
 447.36 68.1602 448.32 117.12 448.32 123.84 c 2
 448.32 128.64 l 1
 439.68 127.68 l 2
 434.88 127.68 420.48 127.68 407.04 127.68 c 0
 393.6 127.68 380.16 126.72 377.28 126.72 c 0
 373.44 126.72 364.8 126.72 356.16 126.72 c 0
 347.52 126.72 333.12 125.76 324.48 125.76 c 0
 282.24 124.8 236.16 123.84 235.2 124.8 c 0
 234.24 125.76 244.8 151.68 252.48 168.96 c 1
 260.16 183.36 266.88 192.96 279.36 208.32 c 0
 284.16 214.08 288 217.92 303.36 235.2 c 0
 305.28 237.12 310.08 242.88 313.92 246.72 c 0
 317.76 251.52 323.52 258.24 327.36 262.08 c 0
 330.24 264.96 334.08 269.76 336 271.68 c 0
 338.88 274.56 343.68 280.32 349.44 287.04 c 0
 351.36 289.92 355.2 293.76 357.12 295.68 c 0
 365.76 305.28 381.12 324.48 391.68 339.84 c 0
 394.56 343.68 402.24 355.2 406.08 361.92 c 0
 407.04 364.8 409.92 368.64 411.84 371.52 c 0
 416.64 380.16 425.28 398.4 430.08 409.92 c 0
 447.36 455.04 452.16 493.44 444.48 543.36 c 0
 442.56 556.8 433.92 583.68 429.12 593.28 c 0
 428.16 594.24 428.16 595.2 428.16 595.2 c 2
 428.16 596.16 427.2 597.12 427.2 597.12 c 2
 426.24 598.08 424.32 600.96 422.4 603.84 c 0
 416.64 613.44 413.76 617.28 402.24 629.76 c 0
 377.28 657.6 344.64 674.88 307.2 677.76 c 0
 301.44 678.72 282.24 678.72 278.4 677.76 c 0
 264.96 676.8 249.6 673.92 243.84 672 c 0
239.04 608.64 m 1
 239.04 608.64 239.04 608.64 240 609.6 c 1
 240 609.6 l 1
 240.96 609.6 240 609.6 240 608.64 c 1
 239.04 608.64 l 1
EndSplineSet
EndChar

StartChar: uni0033
Encoding: 51 51 3
Width: 546
VWidth: 0
Flags: HW
LayerCount: 2
Fore
SplineSet
238.08 667.2 m 0
 124.8 667.2 90.2402 667.2 90.2402 666.24 c 0
 89.2803 665.28 88.3203 643.2 87.3604 593.28 c 0
 86.4004 568.32 86.4004 557.76 86.4004 545.28 c 0
 85.4404 530.88 85.4404 531.84 90.2402 531.84 c 0
 97.9199 532.8 108.48 532.8 118.08 532.8 c 0
 122.88 532.8 126.72 532.8 127.68 533.76 c 1
 127.68 533.76 l 1
 128.64 532.8 128.64 532.8 128.64 532.8 c 1
 128.64 532.8 137.28 533.76 172.8 533.76 c 1
 202.56 534.72 236.16 534.72 236.16 533.76 c 1
 237.12 533.76 237.12 532.8 236.16 531.84 c 0
 235.2 530.88 217.92 511.68 216.96 511.68 c 2
 216.96 511.68 214.08 508.8 211.2 505.92 c 0
 208.32 502.08 203.52 497.28 201.6 495.36 c 0
 198.72 492.48 194.88 487.68 192 484.8 c 0
 184.32 477.12 184.32 477.12 180.48 472.32 c 0
 176.64 467.52 166.08 456 164.16 454.08 c 0
 163.2 453.12 162.24 452.16 161.28 451.2 c 0
 158.4 447.36 152.64 441.6 151.68 439.68 c 1
 147.84 436.8 143.04 432 142.08 430.08 c 0
 141.12 429.12 139.2 427.2 138.24 426.24 c 0
 137.28 424.32 135.36 422.4 134.4 421.44 c 0
 133.44 420.48 130.56 417.6 128.64 415.68 c 0
 123.84 410.88 120 406.08 115.2 401.28 c 0
 113.28 398.4 110.4 394.56 108.48 392.64 c 0
 106.56 390.72 102.72 387.84 101.76 385.92 c 0
 96 380.16 95.04 382.08 106.56 370.56 c 0
 118.08 360 161.28 316.8 168 309.12 c 0
 183.36 293.76 185.28 291.84 187.2 293.76 c 2
 187.2 293.76 191.04 296.64 193.92 299.52 c 0
 196.8 302.4 199.68 304.32 199.68 304.32 c 2
 200.64 305.28 212.16 314.88 213.12 314.88 c 1
 213.12 315.84 214.08 315.84 216 316.8 c 0
 227.52 325.44 236.16 330.24 242.88 331.2 c 0
 243.84 332.16 245.76 332.16 246.72 333.12 c 0
 253.44 335.04 269.76 336 274.56 335.04 c 0
 275.52 335.04 275.52 334.08 276.48 334.08 c 0
 291.84 331.2 302.4 323.52 310.08 310.08 c 0
 313.92 303.36 316.8 290.88 316.8 282.24 c 0
 316.8 275.52 316.8 246.72 315.84 238.08 c 0
 315.84 234.24 315.84 225.6 315.84 217.92 c 0
 314.88 189.12 313.92 181.44 309.12 170.88 c 0
 305.28 160.32 296.64 152.64 284.16 148.8 c 0
 275.52 145.92 261.12 144.96 254.4 146.88 c 0
 251.52 147.84 249.6 148.8 249.6 148.8 c 2
 248.64 148.8 248.64 148.8 248.64 148.8 c 1
 248.64 148.8 247.68 149.76 246.72 150.72 c 0
 234.24 156.48 226.56 168.96 225.6 185.28 c 0
 224.64 199.68 224.64 208.32 224.64 213.12 c 0
 225.6 217.92 228.48 217.92 183.36 217.92 c 0
 172.8 217.92 159.36 218.88 152.64 218.88 c 0
 146.88 218.88 134.4 218.88 126.72 218.88 c 0
 118.08 218.88 111.36 219.84 110.4 219.84 c 0
 105.6 219.84 77.7598 220.8 76.7998 219.84 c 1
 76.7998 219.84 76.7998 211.2 76.7998 201.6 c 0
 75.8398 185.28 75.8398 184.32 76.7998 181.44 c 0
 77.7598 180.48 78.7197 174.72 79.6797 169.92 c 0
 80.6396 165.12 81.5996 158.4 82.5596 155.52 c 0
 82.5596 153.6 83.5195 150.72 83.5195 149.76 c 0
 83.5195 147.84 85.4404 139.2 86.4004 136.32 c 0
 88.3203 129.6 89.2803 126.72 91.2002 120.96 c 0
 96 105.6 102.72 93.1201 114.24 75.8398 c 0
 119.04 67.2002 128.64 57.5996 137.28 49.9199 c 0
 138.24 48.96 140.16 47.04 140.16 47.04 c 2
 140.16 46.0801 141.12 45.1201 141.12 45.1201 c 2
 142.08 45.1201 144 44.1602 146.88 42.2402 c 0
 148.8 40.3203 151.68 38.4004 151.68 38.4004 c 2
 154.56 36.4805 161.28 32.6396 162.24 31.6797 c 0
 166.08 28.7998 168.96 26.8799 176.64 23.04 c 0
 181.44 20.1602 183.36 20.1602 192.96 16.3203 c 0
 214.08 6.71973 243.84 0 264.96 -1.91992 c 0
 266.88 -1.91992 267.84 -1.91992 268.8 -1.91992 c 1
 268.8 -2.87988 288.96 -2.87988 292.8 -1.91992 c 0
 296.64 -1.91992 303.36 -0.959961 309.12 0 c 0
 312 0.959961 313.92 0.959961 314.88 0.959961 c 0
 323.52 2.87988 357.12 12.4805 368.64 18.2402 c 0
 369.6 18.2402 372.48 19.2002 374.4 20.1602 c 0
 377.28 21.1201 380.16 23.04 381.12 23.04 c 0
 382.08 24 384.96 25.9199 388.8 26.8799 c 1
 399.36 32.6396 408.96 38.4004 416.64 45.1201 c 0
 429.12 55.6797 441.6 72 448.32 90.2402 c 0
 449.28 92.1602 451.2 94.0801 451.2 96 c 0
 456.96 109.44 461.76 128.64 463.68 144.96 c 0
 463.68 145.92 463.68 146.88 463.68 147.84 c 1
 464.64 147.84 464.64 150.72 464.64 154.56 c 0
 464.64 158.4 464.64 163.2 465.6 165.12 c 0
 466.56 169.92 465.6 226.56 464.64 244.8 c 0
 464.64 246.72 464.64 253.44 464.64 261.12 c 0
 464.64 267.84 463.68 275.52 463.68 278.4 c 0
 463.68 285.12 462.72 312.96 462.72 355.2 c 0
 462.72 358.08 462.72 359.04 461.76 359.04 c 1
 461.76 359.04 l 1
 462.72 360 462.72 371.52 461.76 374.4 c 2
 461.76 374.4 460.8 377.28 460.8 379.2 c 0
 456.96 396.48 444.48 415.68 429.12 426.24 c 0
 424.32 429.12 412.8 435.84 411.84 435.84 c 2
 411.84 435.84 410.88 435.84 409.92 435.84 c 0
 406.08 437.76 406.08 437.76 404.16 438.72 c 0
 393.6 441.6 383.04 443.52 361.92 443.52 c 0
 344.64 443.52 343.68 443.52 342.72 445.44 c 0
 342.72 446.4 353.28 457.92 404.16 506.88 c 0
 408.96 510.72 416.64 518.4 422.4 524.16 c 0
 427.2 528.96 435.84 537.6 440.64 542.4 c 0
 461.76 561.6 459.84 558.72 458.88 566.4 c 1
 458.88 575.04 458.88 580.8 458.88 589.44 c 0
 458.88 594.24 457.92 601.92 457.92 607.68 c 0
 457.92 622.08 456.96 639.36 457.92 654.72 c 0
 457.92 665.28 457.92 667.2 457.92 667.2 c 1
 456.96 667.2 456 667.2 454.08 667.2 c 0
 438.72 667.2 387.84 667.2 386.88 667.2 c 2
 385.92 667.2 l 1
 385.92 667.2 319.68 667.2 238.08 667.2 c 0
242.88 539.52 m 2
 242.88 540.48 247.68 545.28 248.64 545.28 c 2
 248.64 545.28 248.64 544.32 247.68 543.36 c 0
 245.76 541.44 242.88 539.52 242.88 539.52 c 2
436.8 233.28 m 1
 437.76 233.28 437.76 233.28 437.76 233.28 c 2
 438.72 233.28 438.72 233.28 437.76 232.32 c 1
 437.76 232.32 436.8 232.32 436.8 233.28 c 1
214.08 177.6 m 1
 214.08 177.6 214.08 177.6 214.08 178.56 c 1
 214.08 178.56 l 1
 214.08 178.56 215.04 178.56 215.04 177.6 c 1
 214.08 177.6 l 1
EndSplineSet
EndChar

StartChar: uni0034
Encoding: 52 52 4
Width: 594
VWidth: 0
Flags: HW
LayerCount: 2
Fore
SplineSet
353.28 676.8 m 0
 323.52 676.8 299.52 676.8 299.52 676.8 c 1
 299.52 676.8 298.56 673.92 296.64 672 c 1
 295.68 669.12 293.76 666.24 292.8 665.28 c 0
 291.84 663.36 290.88 661.44 289.92 660.48 c 0
 288 656.64 286.08 653.76 285.12 653.76 c 2
 284.16 652.8 l 2
 284.16 651.84 283.2 649.92 282.24 647.04 c 1
 280.32 645.12 279.36 643.2 278.4 642.24 c 0
 278.4 641.28 277.44 640.32 277.44 640.32 c 2
 276.48 639.36 275.52 637.44 274.56 636.48 c 0
 273.6 634.56 272.64 631.68 271.68 630.72 c 0
 267.84 624.96 264 619.2 264 618.24 c 2
 264 618.24 263.04 617.28 262.08 616.32 c 0
 261.12 614.4 260.16 613.44 260.16 613.44 c 1
 260.16 613.44 260.16 611.52 259.2 610.56 c 0
 258.24 609.6 257.28 608.64 257.28 608.64 c 2
 257.28 607.68 253.44 600.96 251.52 600 c 0
 251.52 599.04 250.56 598.08 250.56 598.08 c 2
 250.56 597.12 250.56 596.16 249.6 596.16 c 0
 248.64 594.24 248.64 594.24 247.68 592.32 c 0
 246.72 591.36 245.76 589.44 244.8 588.48 c 0
 243.84 586.56 242.88 585.6 242.88 585.6 c 2
 242.88 584.64 242.88 584.64 241.92 583.68 c 2
 241.92 583.68 240.96 582.72 240.96 581.76 c 2
 240.96 581.76 240 579.84 239.04 577.92 c 0
 235.2 572.16 230.4 564.48 228.48 561.6 c 0
 226.56 559.68 225.6 556.8 224.64 555.84 c 0
 222.72 552 220.8 551.04 220.8 551.04 c 2
 219.84 551.04 219.84 550.08 218.88 549.12 c 0
 218.88 548.16 216.96 544.32 212.16 537.6 c 0
 210.24 534.72 208.32 531.84 208.32 530.88 c 0
 208.32 529.92 206.4 528 204.48 526.08 c 1
 203.52 523.2 201.6 520.32 200.64 519.36 c 0
 198.72 515.52 197.76 513.6 195.84 510.72 c 0
 194.88 509.76 192.96 506.88 192 504.96 c 0
 191.04 503.04 189.12 501.12 189.12 500.16 c 0
 188.16 499.2 187.2 498.24 187.2 497.28 c 2
 187.2 497.28 186.24 496.32 185.28 494.4 c 0
 184.32 493.44 183.36 491.52 183.36 491.52 c 1
 183.36 491.52 l 1
 182.4 490.56 l 2
 182.4 489.6 181.44 487.68 180.48 486.72 c 0
 178.56 484.8 177.6 483.84 177.6 482.88 c 0
 177.6 481.92 176.64 480 173.76 475.2 c 0
 168 466.56 166.08 462.72 165.12 460.8 c 0
 164.16 459.84 163.2 458.88 162.24 457.92 c 0
 162.24 456.96 161.28 455.04 161.28 455.04 c 2
 159.36 451.2 154.56 444.48 153.6 442.56 c 0
 152.64 440.64 151.68 439.68 151.68 439.68 c 1
 151.68 439.68 150.72 437.76 148.8 435.84 c 0
 147.84 433.92 145.92 430.08 144.96 428.16 c 0
 144 426.24 141.12 421.44 138.24 417.6 c 0
 135.36 413.76 132.48 408.96 131.52 408 c 0
 130.56 405.12 125.76 397.44 124.8 395.52 c 0
 123.84 394.56 122.88 393.6 122.88 393.6 c 2
 122.88 392.64 105.6 362.88 102.72 359.04 c 0
 101.76 357.12 99.8398 355.2 99.8398 354.24 c 0
 98.8799 353.28 96.96 349.44 94.0801 345.6 c 0
 92.1602 341.76 89.2803 337.92 89.2803 336.96 c 0
 85.4404 331.2 82.5596 326.4 81.5996 326.4 c 1
 81.5996 325.44 80.6396 324.48 80.6396 323.52 c 0
 79.6797 321.6 77.7598 318.72 76.7998 316.8 c 0
 74.8799 313.92 72.96 311.04 72.96 311.04 c 2
 72 310.08 72 309.12 72 309.12 c 2
 71.04 308.16 71.04 307.2 70.0801 307.2 c 1
 70.0801 306.24 68.1602 302.4 66.2402 299.52 c 0
 62.4004 293.76 62.4004 293.76 63.3604 281.28 c 0
 63.3604 274.56 63.3604 267.84 63.3604 267.84 c 2
 63.3604 265.92 64.3203 251.52 65.2803 196.8 c 0
 65.2803 174.72 65.2803 158.4 66.2402 157.44 c 0
 66.2402 156.48 66.2402 156.48 77.7598 156.48 c 0
 83.5195 156.48 98.8799 157.44 112.32 157.44 c 0
 124.8 157.44 143.04 157.44 151.68 157.44 c 0
 199.68 158.4 300.48 158.4 306.24 157.44 c 1
 312 157.44 l 1
 312 152.64 l 1
 312.96 138.24 312.96 71.04 312.96 24.96 c 0
 312.96 7.67969 312.96 0.959961 312.96 0 c 0
 313.92 -0.959961 313.92 -0.959961 347.52 -0.959961 c 0
 366.72 -0.959961 386.88 0 392.64 0 c 0
 398.4 0 413.76 0 427.2 0 c 0
 440.64 0 451.2 0.959961 451.2 0.959961 c 1
 451.2 0.959961 452.16 18.2402 452.16 40.3203 c 0
 452.16 62.4004 452.16 86.4004 452.16 94.0801 c 0
 452.16 101.76 453.12 116.16 453.12 127.68 c 0
 453.12 148.8 453.12 154.56 454.08 155.52 c 0
 455.04 155.52 465.6 156.48 479.04 156.48 c 0
 492.48 156.48 505.92 156.48 508.8 156.48 c 2
 514.56 157.44 l 1
 514.56 166.08 l 2
 514.56 170.88 515.52 181.44 515.52 190.08 c 0
 515.52 218.88 516.48 259.2 517.44 269.76 c 1
 517.44 282.24 518.4 296.64 517.44 296.64 c 2
 517.44 296.64 513.6 297.6 509.76 297.6 c 0
 495.36 297.6 477.12 298.56 477.12 298.56 c 1
 477.12 298.56 473.28 298.56 468.48 298.56 c 0
 464.64 298.56 458.88 299.52 456.96 299.52 c 0
 455.04 299.52 453.12 299.52 453.12 299.52 c 1
 453.12 300.48 453.12 531.84 453.12 639.36 c 2
 453.12 677.76 l 1
 437.76 677.76 l 2
 416.64 677.76 413.76 677.76 410.88 677.76 c 0
 409.92 677.76 408.96 677.76 408 677.76 c 0
 407.04 677.76 384 676.8 353.28 676.8 c 0
307.2 484.8 m 0
 304.32 479.04 304.32 479.04 303.36 484.8 c 0
 303.36 490.56 304.32 492.48 307.2 489.6 c 0
 309.12 488.64 309.12 488.64 307.2 484.8 c 0
305.28 432 m 0
 305.28 423.36 306.24 415.68 306.24 413.76 c 0
 306.24 412.8 306.24 406.08 306.24 399.36 c 0
 306.24 391.68 307.2 384 307.2 382.08 c 0
 307.2 380.16 307.2 361.92 307.2 341.76 c 0
 307.2 299.52 308.16 303.36 302.4 304.32 c 0
 301.44 304.32 277.44 304.32 250.56 304.32 c 0
 205.44 304.32 197.76 304.32 197.76 304.32 c 1
 197.76 305.28 199.68 308.16 202.56 312.96 c 0
 203.52 315.84 204.48 317.76 204.48 317.76 c 1
 204.48 317.76 206.4 319.68 208.32 322.56 c 0
 213.12 330.24 228.48 357.12 232.32 362.88 c 0
 234.24 365.76 238.08 373.44 244.8 383.04 c 0
 256.32 401.28 262.08 411.84 265.92 418.56 c 0
 273.6 431.04 277.44 436.8 277.44 436.8 c 2
 278.4 436.8 278.4 436.8 278.4 436.8 c 1
 277.44 437.76 278.4 438.72 283.2 445.44 c 0
 285.12 448.32 289.92 456 294.72 464.64 c 0
 294.72 465.6 295.68 467.52 296.64 467.52 c 2
 296.64 467.52 297.6 469.44 298.56 470.4 c 0
 298.56 471.36 299.52 473.28 300.48 474.24 c 2
 300.48 474.24 301.44 476.16 302.4 477.12 c 0
 303.36 479.04 304.32 479.04 304.32 477.12 c 0
 304.32 475.2 305.28 446.4 305.28 432 c 0
259.2 264 m 1
 259.2 264 258.24 264 258.24 264.96 c 1
 258.24 264.96 258.24 264.96 259.2 264.96 c 1
 259.2 264.96 l 1
 259.2 264 259.2 264 259.2 264 c 1
312 161.28 m 0
 312 162.24 312 162.24 312 162.24 c 2
 312 161.28 312 161.28 312 160.32 c 0
 312 159.36 312 160.32 312 161.28 c 0
EndSplineSet
EndChar

StartChar: uni0035
Encoding: 53 53 5
Width: 538
VWidth: 0
Flags: HW
LayerCount: 2
Fore
SplineSet
239.04 679.68 m 0
 216.96 679.68 206.4 679.68 189.12 678.72 c 0
 184.32 678.72 174.72 678.72 168.96 678.72 c 0
 163.2 678.72 149.76 677.76 139.2 677.76 c 0
 128.64 677.76 111.36 676.8 101.76 676.8 c 0
 83.5195 676.8 83.5195 676.8 82.5596 675.84 c 0
 81.5996 674.88 81.5996 672.96 81.5996 660.48 c 1
 82.5596 652.8 82.5596 612.48 82.5596 571.2 c 0
 83.5195 306.24 83.5195 300.48 84.4805 299.52 c 1
 84.4805 297.6 84.4805 297.6 99.8398 298.56 c 1
 122.88 298.56 137.28 298.56 161.28 299.52 c 1
 208.32 299.52 222.72 300.48 222.72 300.48 c 2
 223.68 300.48 224.64 302.4 225.6 304.32 c 0
 230.4 315.84 240 326.4 250.56 330.24 c 0
 255.36 332.16 269.76 333.12 276.48 332.16 c 0
 289.92 330.24 298.56 326.4 306.24 317.76 c 0
 309.12 315.84 312.96 308.16 313.92 304.32 c 0
 314.88 302.4 314.88 300.48 315.84 300.48 c 1
 315.84 299.52 315.84 299.52 315.84 298.56 c 0
 315.84 297.6 316.8 296.64 316.8 294.72 c 0
 318.72 289.92 318.72 233.28 317.76 216.96 c 0
 316.8 214.08 316.8 207.36 316.8 203.52 c 0
 314.88 178.56 310.08 168 296.64 156.48 c 1
 286.08 148.8 278.4 145.92 264.96 145.92 c 0
 250.56 145.92 240 149.76 232.32 156.48 c 0
 224.64 163.2 221.76 169.92 218.88 183.36 c 1
 218.88 183.36 218.88 192 218.88 200.64 c 0
 218.88 209.28 218.88 216.96 217.92 216.96 c 1
 217.92 217.92 208.32 217.92 169.92 218.88 c 0
 151.68 218.88 132.48 218.88 127.68 218.88 c 0
 84.4805 219.84 84.4805 219.84 83.5195 218.88 c 0
 83.5195 217.92 83.5195 186.24 83.5195 151.68 c 0
 83.5195 131.52 83.5195 131.52 86.4004 122.88 c 0
 87.3604 119.04 89.2803 113.28 90.2402 110.4 c 0
 93.1201 100.8 98.8799 85.4404 100.8 83.5195 c 0
 101.76 82.5596 102.72 80.6396 104.64 77.7598 c 0
 114.24 63.3604 126.72 49.9199 144 36.4805 c 0
 168 17.2803 207.36 2.87988 240.96 0 c 0
 255.36 -0.959961 259.2 -1.91992 268.8 -0.959961 c 0
 275.52 -0.959961 281.28 -0.959961 282.24 -0.959961 c 0
 283.2 -0.959961 284.16 -0.959961 285.12 0 c 0
 286.08 0 288.96 0 290.88 0 c 0
 291.84 0 296.64 0.959961 299.52 0.959961 c 0
 305.28 1.91992 306.24 1.91992 315.84 3.83984 c 0
 322.56 5.75977 324.48 5.75977 332.16 8.63965 c 1
 335.04 8.63965 337.92 9.59961 338.88 10.5596 c 0
 343.68 11.5195 357.12 16.3203 364.8 20.1602 c 0
 372.48 24 392.64 36.4805 394.56 39.3604 c 2
 394.56 39.3604 396.48 40.3203 397.44 42.2402 c 1
 401.28 44.1602 409.92 52.7998 414.72 59.5195 c 1
 421.44 66.2402 430.08 81.5996 434.88 93.1201 c 0
 435.84 95.04 436.8 96.96 436.8 97.9199 c 0
 441.6 107.52 450.24 142.08 450.24 149.76 c 0
 450.24 150.72 451.2 153.6 452.16 156.48 c 0
 454.08 161.28 454.08 168.96 454.08 189.12 c 0
 454.08 193.92 455.04 201.6 455.04 206.4 c 0
 456 229.44 456 227.52 456 276.48 c 1
 456.96 286.08 456.96 309.12 456.96 327.36 c 0
 456.96 360.96 456.96 360.96 455.04 367.68 c 1
 453.12 370.56 452.16 373.44 452.16 373.44 c 2
 452.16 374.4 452.16 374.4 452.16 375.36 c 0
 452.16 380.16 441.6 399.36 434.88 408.96 c 0
 426.24 420.48 413.76 431.04 400.32 437.76 c 0
 398.4 439.68 395.52 440.64 395.52 441.6 c 1
 394.56 441.6 l 1
 394.56 441.6 391.68 442.56 389.76 443.52 c 0
 384 446.4 373.44 450.24 371.52 450.24 c 0
 370.56 450.24 368.64 451.2 365.76 451.2 c 0
 351.36 455.04 333.12 456 318.72 455.04 c 0
 315.84 454.08 312 454.08 311.04 454.08 c 0
 309.12 454.08 304.32 453.12 301.44 452.16 c 1
 297.6 452.16 293.76 451.2 291.84 451.2 c 0
 285.12 449.28 267.84 444.48 262.08 440.64 c 0
 259.2 439.68 256.32 438.72 253.44 437.76 c 0
 246.72 434.88 245.76 433.92 243.84 432.96 c 0
 240 431.04 230.4 428.16 227.52 427.2 c 0
 226.56 427.2 226.56 443.52 226.56 504.96 c 1
 227.52 540.48 226.56 538.56 230.4 539.52 c 0
 231.36 539.52 233.28 539.52 234.24 539.52 c 0
 235.2 539.52 240.96 539.52 248.64 539.52 c 0
 272.64 540.48 278.4 540.48 292.8 541.44 c 1
 320.64 541.44 338.88 542.4 352.32 542.4 c 0
 359.04 542.4 366.72 543.36 368.64 543.36 c 0
 371.52 543.36 379.2 543.36 385.92 543.36 c 0
 393.6 543.36 403.2 544.32 407.04 544.32 c 0
 411.84 544.32 424.32 544.32 435.84 544.32 c 0
 450.24 545.28 456.96 545.28 456.96 545.28 c 1
 456.96 545.28 456.96 548.16 456.96 550.08 c 0
 456.96 552 456.96 554.88 456.96 554.88 c 2
 456.96 557.76 456 618.24 456 643.2 c 0
 456 652.8 456 664.32 455.04 670.08 c 0
 455.04 674.88 455.04 678.72 455.04 678.72 c 1
 455.04 678.72 436.8 679.68 410.88 679.68 c 0
 399.36 679.68 394.56 679.68 393.6 679.68 c 1
 393.6 679.68 l 1
 392.64 679.68 261.12 680.64 260.16 680.64 c 2
 260.16 680.64 250.56 679.68 239.04 679.68 c 0
84.4805 667.2 m 1
 83.5195 667.2 83.5195 667.2 83.5195 667.2 c 1
 83.5195 667.2 83.5195 668.16 84.4805 668.16 c 1
 84.4805 667.2 l 1
 84.4805 667.2 l 1
311.04 423.36 m 1
 311.04 423.36 311.04 423.36 312 423.36 c 1
 312.96 423.36 312.96 423.36 312 423.36 c 1
 311.04 422.4 311.04 422.4 311.04 423.36 c 1
183.36 41.2803 m 1
 182.4 42.2402 l 1
 182.4 42.2402 182.4 43.2002 183.36 42.2402 c 1
 183.36 42.2402 183.36 42.2402 184.32 42.2402 c 1
 184.32 41.2803 183.36 41.2803 183.36 41.2803 c 1
EndSplineSet
EndChar

StartChar: uni0036
Encoding: 54 54 6
Width: 531
VWidth: 0
Flags: HW
LayerCount: 2
Fore
SplineSet
220.8 662.4 m 0
 218.88 661.44 216.96 661.44 216 661.44 c 0
 212.16 660.48 198.72 655.68 192 652.8 c 0
 190.08 651.84 187.2 650.88 187.2 650.88 c 2
 186.24 650.88 183.36 649.92 181.44 648 c 1
 178.56 647.04 175.68 646.08 175.68 646.08 c 2
 174.72 646.08 173.76 645.12 173.76 645.12 c 2
 172.8 644.16 168.96 642.24 168 642.24 c 0
 167.04 642.24 158.4 636.48 155.52 633.6 c 1
 152.64 632.64 150.72 630.72 149.76 629.76 c 2
 149.76 629.76 147.84 628.8 146.88 627.84 c 0
 145.92 626.88 144 624.96 142.08 624 c 0
 140.16 622.08 138.24 620.16 136.32 618.24 c 0
 134.4 616.32 132.48 614.4 131.52 614.4 c 0
 128.64 612.48 114.24 597.12 114.24 596.16 c 2
 114.24 595.2 l 1
 113.28 595.2 111.36 592.32 105.6 584.64 c 0
 104.64 582.72 103.68 581.76 103.68 580.8 c 2
 102.72 579.84 l 2
 101.76 579.84 101.76 578.88 101.76 578.88 c 1
 100.8 577.92 l 2
 100.8 576.96 99.8398 576 99.8398 576 c 1
 99.8398 576 98.8799 575.04 98.8799 574.08 c 0
 97.9199 573.12 97.9199 572.16 96.96 572.16 c 1
 96.96 571.2 96.96 570.24 96 570.24 c 0
 95.04 569.28 91.2002 559.68 91.2002 558.72 c 2
 91.2002 558.72 91.2002 557.76 90.2402 557.76 c 0
 89.2803 557.76 86.4004 548.16 84.4805 538.56 c 0
 83.5195 534.72 83.5195 532.8 83.5195 532.8 c 2
 82.5596 530.88 80.6396 510.72 80.6396 501.12 c 0
 80.6396 488.64 79.6797 349.44 79.6797 336.96 c 0
 79.6797 328.32 79.6797 301.44 79.6797 278.4 c 0
 79.6797 270.72 79.6797 243.84 79.6797 219.84 c 0
 79.6797 194.88 79.6797 168.96 79.6797 163.2 c 0
 79.6797 157.44 79.6797 151.68 79.6797 151.68 c 1
 80.6396 150.72 80.6396 148.8 81.5996 144 c 0
 83.5195 120.96 93.1201 96 107.52 76.7998 c 0
 125.76 50.8799 156.48 26.8799 185.28 14.4004 c 0
 199.68 8.63965 225.6 1.91992 239.04 0 c 0
 240.96 0 242.88 0 242.88 0 c 1
 243.84 -0.959961 264.96 -0.959961 265.92 0 c 1
 265.92 0 265.92 0 266.88 0 c 0
 269.76 -0.959961 295.68 2.87988 309.12 6.71973 c 0
 316.8 8.63965 336 15.3604 336.96 16.3203 c 0
 337.92 16.3203 339.84 17.2803 340.8 18.2402 c 0
 345.6 20.1602 354.24 24 361.92 27.8398 c 0
 364.8 29.7598 367.68 31.6797 368.64 31.6797 c 0
 369.6 32.6396 382.08 41.2803 389.76 48 c 0
 403.2 60.4805 411.84 70.0801 422.4 90.2402 c 1
 429.12 100.8 438.72 122.88 439.68 127.68 c 0
 439.68 128.64 440.64 130.56 440.64 131.52 c 0
 441.6 134.4 444.48 144.96 444.48 149.76 c 1
 445.44 150.72 445.44 153.6 446.4 154.56 c 1
 446.4 157.44 446.4 158.4 447.36 170.88 c 0
 447.36 174.72 447.36 178.56 448.32 180.48 c 0
 448.32 181.44 448.32 186.24 448.32 192 c 0
 448.32 196.8 448.32 202.56 448.32 204.48 c 0
 449.28 206.4 449.28 213.12 449.28 217.92 c 0
 449.28 222.72 449.28 231.36 450.24 238.08 c 0
 451.2 261.12 451.2 266.88 450.24 267.84 c 0
 450.24 268.8 449.28 269.76 449.28 270.72 c 2
 449.28 270.72 449.28 273.6 448.32 276.48 c 0
 447.36 280.32 446.4 284.16 446.4 286.08 c 0
 445.44 288 444.48 291.84 443.52 294.72 c 0
 443.52 297.6 442.56 300.48 442.56 300.48 c 2
 441.6 303.36 441.6 306.24 440.64 306.24 c 1
 440.64 307.2 l 2
 440.64 309.12 433.92 323.52 432 326.4 c 0
 431.04 327.36 430.08 328.32 430.08 328.32 c 1
 430.08 329.28 l 1
 430.08 329.28 429.12 329.28 429.12 330.24 c 0
 428.16 331.2 427.2 333.12 425.28 334.08 c 1
 424.32 336 422.4 337.92 422.4 338.88 c 0
 421.44 339.84 420.48 340.8 419.52 341.76 c 0
 417.6 344.64 406.08 355.2 406.08 356.16 c 2
 406.08 356.16 404.16 357.12 402.24 358.08 c 0
 391.68 365.76 383.04 371.52 366.72 379.2 c 0
 364.8 380.16 362.88 381.12 362.88 381.12 c 2
 361.92 381.12 361.92 381.12 360.96 381.12 c 0
 358.08 383.04 345.6 385.92 338.88 386.88 c 0
 336 387.84 332.16 387.84 331.2 387.84 c 0
 322.56 389.76 298.56 388.8 285.12 385.92 c 0
 271.68 383.04 269.76 382.08 259.2 378.24 c 0
 252.48 376.32 246.72 373.44 234.24 367.68 c 0
 232.32 366.72 229.44 365.76 227.52 364.8 c 0
 224.64 363.84 224.64 364.8 224.64 357.12 c 0
 224.64 354.24 224.64 346.56 223.68 339.84 c 0
 223.68 334.08 223.68 321.6 222.72 312 c 0
 222.72 303.36 222.72 290.88 221.76 285.12 c 0
 220.8 263.04 220.8 252.48 221.76 252.48 c 2
 221.76 252.48 223.68 252.48 226.56 254.4 c 0
 239.04 261.12 255.36 265.92 264.96 264 c 0
 265.92 263.04 267.84 263.04 268.8 263.04 c 0
 273.6 262.08 283.2 259.2 287.04 256.32 c 0
 295.68 251.52 305.28 237.12 307.2 228.48 c 0
 307.2 226.56 308.16 222.72 308.16 221.76 c 0
 309.12 216.96 309.12 197.76 308.16 190.08 c 0
 308.16 185.28 305.28 173.76 304.32 171.84 c 2
 304.32 171.84 303.36 169.92 302.4 168 c 0
 297.6 152.64 285.12 144 266.88 140.16 c 0
 253.44 137.28 237.12 142.08 229.44 150.72 c 0
 224.64 155.52 220.8 161.28 218.88 168 c 0
 216.96 171.84 216.96 174.72 217.92 190.08 c 0
 217.92 193.92 217.92 203.52 217.92 211.2 c 1
 218.88 217.92 218.88 230.4 218.88 239.04 c 1
 219.84 246.72 219.84 263.04 219.84 274.56 c 0
 220.8 286.08 220.8 300.48 220.8 305.28 c 0
 220.8 310.08 220.8 319.68 221.76 327.36 c 0
 221.76 334.08 221.76 339.84 221.76 340.8 c 2
 221.76 340.8 221.76 352.32 222.72 367.68 c 1
 222.72 395.52 222.72 396.48 222.72 399.36 c 0
 222.72 400.32 222.72 414.72 222.72 432 c 0
 222.72 449.28 222.72 467.52 221.76 472.32 c 1
 221.76 491.52 224.64 502.08 236.16 516.48 c 0
 245.76 528.96 264 534.72 284.16 531.84 c 0
 291.84 530.88 292.8 529.92 300.48 526.08 c 0
 310.08 520.32 316.8 507.84 319.68 492.48 c 0
 320.64 486.72 320.64 483.84 320.64 460.8 c 0
 320.64 457.92 320.64 455.04 320.64 455.04 c 1
 321.6 455.04 386.88 455.04 417.6 455.04 c 1
 445.44 456 453.12 456 454.08 456.96 c 0
 455.04 457.92 455.04 491.52 454.08 515.52 c 0
 454.08 518.4 454.08 525.12 454.08 528.96 c 0
 453.12 536.64 453.12 538.56 450.24 551.04 c 0
 449.28 555.84 448.32 559.68 447.36 561.6 c 0
 446.4 561.6 445.44 564.48 444.48 567.36 c 0
 441.6 575.04 437.76 582.72 433.92 589.44 c 0
 432.96 590.4 432 592.32 431.04 592.32 c 0
 430.08 595.2 428.16 598.08 428.16 598.08 c 2
 427.2 598.08 427.2 598.08 426.24 599.04 c 0
 426.24 600 425.28 601.92 424.32 602.88 c 0
 423.36 603.84 422.4 604.8 422.4 604.8 c 1
 422.4 605.76 l 1
 422.4 605.76 421.44 605.76 421.44 606.72 c 0
 417.6 611.52 398.4 630.72 397.44 628.8 c 1
 397.44 628.8 397.44 628.8 397.44 629.76 c 0
 398.4 631.68 377.28 646.08 362.88 652.8 c 0
 360 654.72 356.16 655.68 355.2 656.64 c 0
 352.32 658.56 336.96 663.36 330.24 664.32 c 0
 329.28 665.28 327.36 665.28 326.4 666.24 c 1
 324.48 666.24 312 668.16 311.04 668.16 c 0
 310.08 668.16 308.16 669.12 305.28 669.12 c 0
 295.68 670.08 291.84 670.08 283.2 670.08 c 0
 278.4 670.08 270.72 670.08 265.92 670.08 c 0
 248.64 668.16 233.28 666.24 220.8 662.4 c 0
400.32 612.48 m 2
 400.32 613.44 400.32 613.44 400.32 614.4 c 1
 401.28 614.4 l 1
 401.28 613.44 401.28 613.44 401.28 613.44 c 2
 401.28 612.48 400.32 612.48 400.32 612.48 c 2
96.96 468.48 m 1
 96.96 468.48 l 1
 96.96 469.44 l 1
 97.9199 469.44 97.9199 468.48 97.9199 468.48 c 1
 97.9199 468.48 97.9199 468.48 96.96 468.48 c 1
129.6 377.28 m 1
 128.64 377.28 l 1
 129.6 377.28 l 1
 130.56 377.28 l 1
 129.6 377.28 l 1
297.6 153.6 m 1
 296.64 153.6 296.64 153.6 296.64 154.56 c 1
 296.64 154.56 296.64 154.56 297.6 154.56 c 1
 297.6 154.56 l 1
 297.6 153.6 297.6 153.6 297.6 153.6 c 1
228.48 50.8799 m 1
 227.52 50.8799 226.56 52.7998 227.52 52.7998 c 2
 228.48 51.8398 l 2
 228.48 50.8799 228.48 50.8799 228.48 50.8799 c 1
345.6 47.04 m 1
 344.64 47.04 344.64 47.04 344.64 47.04 c 1
 344.64 47.04 344.64 48 345.6 48 c 1
 345.6 47.04 l 1
 345.6 47.04 l 1
EndSplineSet
EndChar

StartChar: uni0037
Encoding: 55 55 7
Width: 495
VWidth: 0
Flags: HW
LayerCount: 2
Fore
SplineSet
99.8398 656.64 m 0
 99.8398 655.68 98.8799 643.2 97.9199 628.8 c 0
 97.9199 626.88 97.9199 622.08 97.9199 618.24 c 0
 97.9199 613.44 96.96 608.64 96.96 607.68 c 0
 96.96 606.72 96.96 602.88 96.96 598.08 c 0
 96.96 588.48 96 574.08 96 568.32 c 0
 95.04 552 95.04 546.24 95.04 535.68 c 0
 95.04 526.08 95.04 523.2 95.04 522.24 c 1
 96 522.24 97.9199 522.24 102.72 522.24 c 0
 110.4 522.24 113.28 522.24 134.4 523.2 c 0
 141.12 523.2 148.8 523.2 153.6 523.2 c 0
 157.44 523.2 169.92 524.16 179.52 524.16 c 0
 190.08 524.16 199.68 524.16 201.6 524.16 c 0
 217.92 525.12 266.88 525.12 267.84 524.16 c 0
 267.84 523.2 267.84 523.2 260.16 503.04 c 0
 257.28 496.32 255.36 489.6 254.4 487.68 c 0
 253.44 485.76 252.48 483.84 252.48 482.88 c 0
 251.52 481.92 251.52 480 250.56 479.04 c 0
 250.56 478.08 249.6 476.16 249.6 475.2 c 0
 248.64 474.24 247.68 471.36 246.72 467.52 c 0
 245.76 464.64 242.88 458.88 241.92 456 c 0
 240.96 453.12 239.04 448.32 238.08 447.36 c 1
 238.08 445.44 237.12 443.52 236.16 441.6 c 0
 236.16 440.64 234.24 436.8 233.28 434.88 c 0
 232.32 432 231.36 429.12 231.36 428.16 c 1
 230.4 428.16 230.4 426.24 229.44 425.28 c 0
 226.56 417.6 221.76 405.12 220.8 403.2 c 0
 220.8 402.24 218.88 399.36 218.88 397.44 c 0
 217.92 395.52 216.96 392.64 216.96 391.68 c 0
 216 389.76 214.08 385.92 213.12 383.04 c 0
 212.16 379.2 210.24 375.36 210.24 375.36 c 2
 209.28 374.4 208.32 369.6 206.4 364.8 c 0
 204.48 360.96 202.56 356.16 201.6 355.2 c 1
 201.6 352.32 199.68 348.48 195.84 338.88 c 0
 194.88 336.96 193.92 334.08 192.96 332.16 c 0
 192.96 331.2 192 329.28 192 329.28 c 1
 192 329.28 190.08 324.48 188.16 319.68 c 0
 186.24 314.88 185.28 310.08 185.28 310.08 c 1
 185.28 310.08 184.32 309.12 184.32 308.16 c 0
 183.36 307.2 182.4 303.36 180.48 300.48 c 1
 179.52 296.64 177.6 292.8 176.64 290.88 c 0
 175.68 288.96 174.72 286.08 173.76 284.16 c 1
 173.76 281.28 171.84 278.4 170.88 275.52 c 0
 169.92 273.6 168 269.76 167.04 266.88 c 0
 166.08 264 163.2 256.32 160.32 250.56 c 0
 152.64 231.36 153.6 232.32 150.72 227.52 c 1
 150.72 225.6 148.8 222.72 148.8 220.8 c 0
 147.84 218.88 145.92 215.04 144.96 213.12 c 0
 144 211.2 143.04 206.4 141.12 203.52 c 1
 140.16 199.68 138.24 195.84 138.24 194.88 c 0
 137.28 193.92 137.28 192 136.32 191.04 c 1
 136.32 189.12 134.4 185.28 133.44 182.4 c 0
 130.56 175.68 129.6 173.76 124.8 160.32 c 0
 122.88 157.44 120.96 151.68 120 148.8 c 0
 119.04 145.92 117.12 141.12 116.16 138.24 c 0
 115.2 136.32 114.24 133.44 113.28 133.44 c 1
 113.28 132.48 112.32 129.6 111.36 126.72 c 0
 110.4 123.84 108.48 120 107.52 118.08 c 0
 106.56 116.16 105.6 113.28 105.6 112.32 c 0
 104.64 111.36 103.68 108.48 102.72 106.56 c 0
 101.76 104.64 100.8 101.76 99.8398 100.8 c 0
 98.8799 97.9199 96 91.2002 94.0801 85.4404 c 0
 93.1201 82.5596 91.2002 78.7197 90.2402 75.8398 c 0
 89.2803 72.96 87.3604 66.2402 84.4805 61.4404 c 1
 82.5596 55.6797 80.6396 50.8799 80.6396 50.8799 c 2
 79.6797 48.96 75.8398 37.4404 74.8799 35.5195 c 0
 74.8799 34.5596 73.9199 33.5996 73.9199 33.5996 c 2
 73.9199 32.6396 72.96 30.7197 72 27.8398 c 0
 70.0801 24.96 69.1201 21.1201 69.1201 20.1602 c 0
 68.1602 19.2002 67.2002 16.3203 66.2402 14.4004 c 0
 63.3604 7.67969 62.4004 5.75977 61.4404 5.75977 c 0
 60.4805 5.75977 60.4805 4.7998 61.4404 4.7998 c 1
 61.4404 4.7998 61.4404 3.83984 61.4404 1.91992 c 0
 60.4805 -0.959961 60.4805 -1.91992 62.4004 -0.959961 c 0
 64.3203 -0.959961 82.5596 -1.91992 103.68 -2.87988 c 0
 108.48 -2.87988 114.24 -3.83984 116.16 -3.83984 c 0
 123.84 -3.83984 147.84 -5.75977 151.68 -5.75977 c 0
 163.2 -6.71973 196.8 -7.67969 198.72 -7.67969 c 0
 199.68 -7.67969 200.64 -6.71973 205.44 5.75977 c 0
 208.32 12.4805 211.2 19.2002 211.2 20.1602 c 0
 212.16 21.1201 213.12 24 214.08 26.8799 c 0
 215.04 28.7998 216.96 33.5996 217.92 37.4404 c 1
 219.84 40.3203 224.64 52.7998 229.44 65.2803 c 0
 249.6 115.2 259.2 140.16 260.16 140.16 c 1
 260.16 141.12 261.12 142.08 261.12 143.04 c 0
 261.12 144 263.04 147.84 264 150.72 c 0
 265.92 153.6 268.8 161.28 270.72 167.04 c 0
 273.6 172.8 276.48 179.52 277.44 182.4 c 0
 279.36 186.24 282.24 192.96 288.96 210.24 c 0
 289.92 213.12 291.84 216 291.84 217.92 c 1
 293.76 220.8 301.44 240.96 305.28 249.6 c 0
 308.16 255.36 321.6 290.88 323.52 294.72 c 0
 324.48 296.64 327.36 303.36 329.28 308.16 c 0
 331.2 312.96 335.04 321.6 336.96 326.4 c 0
 338.88 331.2 341.76 337.92 342.72 340.8 c 0
 343.68 342.72 345.6 347.52 346.56 351.36 c 1
 348.48 354.24 350.4 360 352.32 363.84 c 0
 354.24 367.68 357.12 375.36 360 381.12 c 0
 363.84 389.76 370.56 408 373.44 414.72 c 0
 374.4 416.64 375.36 418.56 375.36 419.52 c 0
 376.32 420.48 378.24 424.32 379.2 429.12 c 0
 381.12 433.92 384 439.68 384.96 441.6 c 0
 385.92 444.48 387.84 448.32 388.8 451.2 c 0
 389.76 453.12 390.72 456.96 391.68 458.88 c 0
 394.56 465.6 400.32 479.04 402.24 483.84 c 0
 403.2 485.76 404.16 487.68 404.16 487.68 c 1
 404.16 487.68 410.88 503.04 411.84 504.96 c 0
 411.84 505.92 412.8 508.8 413.76 511.68 c 0
 415.68 514.56 416.64 518.4 417.6 519.36 c 0
 417.6 520.32 418.56 522.24 418.56 523.2 c 0
 419.52 525.12 422.4 532.8 427.2 543.36 c 0
 430.08 551.04 430.08 549.12 431.04 576.96 c 0
 431.04 584.64 431.04 593.28 431.04 597.12 c 0
 432 623.04 432.96 654.72 432 654.72 c 0
 431.04 655.68 415.68 655.68 377.28 656.64 c 0
 364.8 656.64 347.52 656.64 338.88 656.64 c 0
 330.24 657.6 285.12 657.6 238.08 657.6 c 0
 191.04 657.6 142.08 657.6 128.64 657.6 c 0
 115.2 657.6 103.68 657.6 102.72 657.6 c 0
 101.76 657.6 100.8 657.6 99.8398 656.64 c 0
EndSplineSet
EndChar

StartChar: uni0038
Encoding: 56 56 8
Width: 535
VWidth: 0
Flags: HW
LayerCount: 2
Fore
SplineSet
226.56 691.2 m 0
 225.6 691.2 223.68 690.24 222.72 690.24 c 0
 218.88 690.24 216.96 689.28 209.28 688.32 c 0
 205.44 687.36 200.64 686.4 199.68 686.4 c 0
 189.12 683.52 184.32 681.6 181.44 680.64 c 0
 179.52 679.68 176.64 678.72 174.72 677.76 c 0
 169.92 675.84 170.88 675.84 163.2 672 c 0
 160.32 670.08 157.44 668.16 157.44 668.16 c 2
 156.48 668.16 144 659.52 143.04 658.56 c 2
 143.04 658.56 142.08 658.56 142.08 657.6 c 0
 137.28 655.68 115.2 635.52 112.32 630.72 c 0
 111.36 629.76 109.44 626.88 108.48 624.96 c 0
 104.64 620.16 99.8398 611.52 96.96 607.68 c 0
 96 605.76 95.04 602.88 94.0801 601.92 c 0
 91.2002 596.16 81.5996 573.12 81.5996 569.28 c 0
 81.5996 568.32 81.5996 566.4 80.6396 563.52 c 0
 79.6797 560.64 79.6797 557.76 79.6797 552 c 1
 78.7197 548.16 78.7197 543.36 78.7197 542.4 c 0
 78.7197 541.44 78.7197 536.64 78.7197 531.84 c 0
 77.7598 524.16 77.7598 516.48 76.7998 502.08 c 0
 73.9199 455.04 75.8398 427.2 82.5596 418.56 c 0
 83.5195 417.6 83.5195 416.64 83.5195 416.64 c 1
 83.5195 416.64 84.4805 414.72 86.4004 413.76 c 1
 87.3604 411.84 88.3203 410.88 88.3203 409.92 c 0
 89.2803 408 95.04 402.24 96 400.32 c 0
 100.8 395.52 102.72 394.56 106.56 390.72 c 0
 114.24 383.04 120.96 377.28 130.56 369.6 c 1
 133.44 368.64 134.4 366.72 134.4 366.72 c 2
 134.4 365.76 136.32 366.72 140.16 369.6 c 0
 143.04 371.52 145.92 373.44 153.6 378.24 c 0
 155.52 379.2 157.44 381.12 158.4 382.08 c 1
 160.32 382.08 161.28 383.04 161.28 383.04 c 1
 161.28 383.04 176.64 390.72 177.6 390.72 c 2
 177.6 390.72 180.48 392.64 184.32 394.56 c 0
 190.08 396.48 210.24 405.12 213.12 406.08 c 2
 213.12 406.08 218.88 408 223.68 409.92 c 0
 229.44 411.84 236.16 413.76 239.04 415.68 c 1
 245.76 417.6 246.72 417.6 246.72 418.56 c 0
 246.72 419.52 242.88 423.36 230.4 435.84 c 0
 215.04 452.16 209.28 465.6 206.4 495.36 c 0
 205.44 507.84 207.36 526.08 212.16 536.64 c 0
 213.12 538.56 214.08 540.48 215.04 541.44 c 0
 218.88 551.04 230.4 559.68 242.88 560.64 c 0
 243.84 560.64 246.72 561.6 250.56 561.6 c 0
 260.16 563.52 269.76 562.56 274.56 560.64 c 0
 286.08 555.84 293.76 549.12 299.52 537.6 c 0
 303.36 528 304.32 526.08 306.24 487.68 c 0
 307.2 468.48 306.24 463.68 300.48 453.12 c 0
 298.56 449.28 288.96 437.76 285.12 435.84 c 0
 284.16 434.88 282.24 433.92 280.32 432 c 0
 276.48 429.12 271.68 426.24 269.76 425.28 c 0
 268.8 425.28 267.84 425.28 267.84 425.28 c 1
 266.88 424.32 258.24 420.48 251.52 418.56 c 0
 247.68 416.64 244.8 415.68 244.8 415.68 c 2
 243.84 415.68 241.92 414.72 240 413.76 c 0
 237.12 412.8 235.2 412.8 234.24 411.84 c 0
 233.28 411.84 231.36 410.88 228.48 409.92 c 0
 222.72 408 217.92 406.08 216 405.12 c 1
 215.04 405.12 l 2
 214.08 405.12 213.12 404.16 212.16 404.16 c 0
 206.4 401.28 204.48 400.32 204.48 400.32 c 2
 203.52 400.32 202.56 400.32 201.6 399.36 c 0
 200.64 398.4 197.76 397.44 196.8 397.44 c 0
 194.88 396.48 192 395.52 189.12 394.56 c 1
 187.2 392.64 185.28 391.68 185.28 391.68 c 2
 184.32 391.68 172.8 386.88 171.84 385.92 c 0
 170.88 385.92 169.92 384.96 168.96 384 c 0
 162.24 381.12 154.56 377.28 144.96 370.56 c 0
 142.08 368.64 139.2 365.76 138.24 364.8 c 2
 138.24 364.8 137.28 364.8 137.28 363.84 c 1
 136.32 363.84 135.36 362.88 134.4 361.92 c 0
 133.44 361.92 130.56 359.04 127.68 356.16 c 0
 122.88 352.32 119.04 349.44 112.32 341.76 c 0
 111.36 339.84 106.56 334.08 104.64 332.16 c 0
 99.8398 325.44 95.04 316.8 95.04 315.84 c 2
 95.04 315.84 94.0801 314.88 94.0801 313.92 c 0
 92.1602 311.04 86.4004 295.68 86.4004 292.8 c 1
 85.4404 291.84 85.4404 290.88 85.4404 290.88 c 2
 82.5596 283.2 80.6396 262.08 81.5996 246.72 c 0
 82.5596 243.84 82.5596 238.08 82.5596 233.28 c 0
 83.5195 227.52 83.5195 222.72 83.5195 220.8 c 0
 83.5195 218.88 83.5195 213.12 84.4805 208.32 c 0
 84.4805 203.52 85.4404 195.84 85.4404 191.04 c 0
 86.4004 182.4 86.4004 178.56 87.3604 168.96 c 0
 87.3604 166.08 87.3604 162.24 87.3604 160.32 c 0
 88.3203 156.48 89.2803 147.84 89.2803 142.08 c 0
 89.2803 140.16 90.2402 138.24 90.2402 137.28 c 0
 90.2402 135.36 91.2002 131.52 92.1602 127.68 c 0
 95.04 116.16 96 112.32 97.9199 107.52 c 0
 100.8 95.04 105.6 84.4805 110.4 77.7598 c 0
 110.4 76.7998 111.36 74.8799 112.32 73.9199 c 0
 121.92 55.6797 156.48 25.9199 179.52 15.3604 c 0
 181.44 14.4004 184.32 12.4805 185.28 11.5195 c 0
 188.16 10.5596 192 9.59961 199.68 7.67969 c 0
 205.44 5.75977 213.12 3.83984 215.04 2.87988 c 0
 222.72 0.959961 223.68 0.959961 231.36 0 c 0
 246.72 -1.91992 274.56 -1.91992 288.96 0 c 0
 289.92 0.959961 292.8 0.959961 294.72 0.959961 c 0
 296.64 0.959961 299.52 0.959961 301.44 1.91992 c 0
 303.36 2.87988 308.16 3.83984 312.96 5.75977 c 0
 330.24 10.5596 349.44 18.2402 364.8 26.8799 c 0
 394.56 44.1602 412.8 60.4805 428.16 83.5195 c 0
 432 90.2402 440.64 106.56 440.64 107.52 c 0
 440.64 108.48 445.44 118.08 445.44 119.04 c 1
 446.4 119.04 448.32 125.76 450.24 132.48 c 0
 452.16 138.24 454.08 148.8 455.04 159.36 c 0
 455.04 164.16 456 171.84 456 176.64 c 0
 456.96 184.32 456.96 223.68 456.96 228.48 c 1
 456 229.44 456 244.8 456 263.04 c 0
 456 295.68 456 295.68 454.08 298.56 c 0
 454.08 299.52 453.12 302.4 452.16 305.28 c 0
 452.16 307.2 451.2 309.12 451.2 309.12 c 2
 450.24 309.12 450.24 310.08 450.24 311.04 c 2
 450.24 312 l 1
 449.28 312 449.28 312.96 449.28 313.92 c 0
 449.28 315.84 443.52 327.36 438.72 334.08 c 0
 429.12 348.48 414.72 362.88 403.2 370.56 c 0
 397.44 374.4 397.44 374.4 393.6 371.52 c 1
 392.64 369.6 389.76 368.64 388.8 367.68 c 0
 387.84 367.68 384.96 365.76 381.12 363.84 c 0
 372.48 358.08 371.52 357.12 365.76 354.24 c 0
 357.12 349.44 341.76 341.76 337.92 340.8 c 0
 336 339.84 335.04 338.88 335.04 338.88 c 2
 334.08 338.88 332.16 337.92 329.28 336.96 c 1
 327.36 335.04 323.52 334.08 322.56 333.12 c 0
 320.64 332.16 315.84 330.24 311.04 328.32 c 0
 307.2 326.4 302.4 324.48 302.4 324.48 c 2
 300.48 323.52 285.12 316.8 282.24 315.84 c 0
 277.44 314.88 272.64 312 272.64 311.04 c 2
 272.64 311.04 274.56 309.12 277.44 308.16 c 0
 299.52 293.76 309.12 278.4 312 251.52 c 0
 314.88 227.52 315.84 216 315.84 203.52 c 0
 315.84 190.08 314.88 175.68 312 171.84 c 0
 309.12 166.08 292.8 152.64 288.96 152.64 c 1
 288.96 152.64 288 152.64 287.04 151.68 c 0
 285.12 150.72 279.36 149.76 273.6 148.8 c 0
 271.68 148.8 262.08 149.76 259.2 149.76 c 0
 255.36 150.72 245.76 154.56 242.88 156.48 c 0
 240.96 157.44 240 158.4 240 158.4 c 1
 237.12 158.4 224.64 171.84 222.72 176.64 c 0
 222.72 177.6 221.76 179.52 221.76 180.48 c 0
 219.84 183.36 219.84 186.24 218.88 197.76 c 0
 218.88 203.52 218.88 216 218.88 225.6 c 0
 217.92 262.08 218.88 266.88 221.76 275.52 c 0
 224.64 286.08 229.44 291.84 241.92 299.52 c 0
 245.76 301.44 258.24 308.16 262.08 309.12 c 0
 264 310.08 267.84 311.04 270.72 312.96 c 0
 273.6 313.92 277.44 315.84 280.32 316.8 c 0
 292.8 322.56 311.04 330.24 317.76 333.12 c 0
 319.68 334.08 322.56 336 325.44 336.96 c 0
 328.32 338.88 331.2 339.84 332.16 340.8 c 0
 360.96 353.28 394.56 373.44 408 385.92 c 1
 408 385.92 409.92 387.84 411.84 388.8 c 0
 417.6 394.56 432.96 409.92 436.8 414.72 c 0
 442.56 423.36 447.36 433.92 449.28 440.64 c 0
 449.28 442.56 449.28 445.44 450.24 447.36 c 0
 451.2 451.2 451.2 452.16 451.2 471.36 c 0
 450.24 498.24 449.28 527.04 449.28 541.44 c 0
 449.28 547.2 448.32 552 448.32 552.96 c 2
 448.32 552.96 448.32 556.8 446.4 559.68 c 1
 445.44 563.52 444.48 568.32 443.52 570.24 c 0
 441.6 576.96 436.8 590.4 436.8 591.36 c 0
 435.84 592.32 435.84 593.28 435.84 594.24 c 2
 435.84 594.24 435.84 595.2 434.88 595.2 c 1
 434.88 596.16 433.92 598.08 432.96 600 c 0
 431.04 603.84 430.08 605.76 424.32 614.4 c 0
 423.36 615.36 421.44 618.24 421.44 619.2 c 0
 420.48 620.16 418.56 623.04 416.64 624.96 c 0
 414.72 626.88 412.8 628.8 412.8 629.76 c 0
 408 636.48 395.52 647.04 384.96 654.72 c 0
 379.2 658.56 375.36 661.44 363.84 667.2 c 0
 362.88 668.16 350.4 673.92 349.44 674.88 c 0
 338.88 679.68 323.52 683.52 310.08 686.4 c 0
 308.16 687.36 305.28 687.36 304.32 688.32 c 0
 303.36 688.32 301.44 688.32 300.48 688.32 c 0
 299.52 688.32 296.64 689.28 294.72 689.28 c 0
 291.84 690.24 289.92 690.24 289.92 690.24 c 2
 288.96 690.24 288 690.24 287.04 690.24 c 0
 285.12 690.24 283.2 691.2 281.28 691.2 c 0
 279.36 691.2 277.44 691.2 276.48 691.2 c 0
 275.52 691.2 269.76 692.16 264.96 692.16 c 0
 259.2 692.16 252.48 692.16 250.56 692.16 c 0
 247.68 692.16 241.92 692.16 238.08 692.16 c 0
 233.28 691.2 227.52 691.2 226.56 691.2 c 0
EndSplineSet
EndChar

StartChar: uni0039
Encoding: 57 57 9
Width: 532
VWidth: 0
Flags: HW
LayerCount: 2
Fore
SplineSet
265.92 672 m 1
 265.92 672 l 1
 262.08 672.96 236.16 669.12 222.72 665.28 c 0
 216 663.36 195.84 656.64 194.88 655.68 c 0
 193.92 655.68 192.96 654.72 191.04 653.76 c 0
 186.24 651.84 177.6 648 169.92 644.16 c 0
 167.04 642.24 164.16 640.32 163.2 640.32 c 0
 162.24 639.36 149.76 630.72 142.08 624 c 0
 128.64 611.52 120 601.92 109.44 581.76 c 1
 102.72 571.2 93.1201 549.12 92.1602 544.32 c 0
 92.1602 543.36 91.2002 541.44 91.2002 540.48 c 0
 90.2402 537.6 87.3604 527.04 87.3604 523.2 c 1
 86.4004 521.28 86.4004 518.4 86.4004 517.44 c 0
 85.4404 514.56 85.4404 513.6 84.4805 501.12 c 0
 84.4805 497.28 84.4805 493.44 84.4805 492.48 c 0
 84.4805 490.56 83.5195 485.76 83.5195 480.96 c 0
 83.5195 475.2 83.5195 469.44 83.5195 467.52 c 0
 82.5596 465.6 82.5596 458.88 82.5596 454.08 c 0
 82.5596 449.28 82.5596 440.64 81.5996 433.92 c 0
 80.6396 410.88 80.6396 405.12 81.5996 404.16 c 0
 82.5596 403.2 82.5596 402.24 82.5596 401.28 c 2
 82.5596 401.28 83.5195 398.4 83.5195 395.52 c 0
 84.4805 391.68 85.4404 387.84 86.4004 385.92 c 0
 86.4004 384 87.3604 380.16 88.3203 377.28 c 0
 88.3203 374.4 89.2803 371.52 89.2803 371.52 c 2
 90.2402 368.64 91.2002 365.76 91.2002 365.76 c 1
 91.2002 364.8 l 2
 91.2002 362.88 97.9199 348.48 100.8 345.6 c 0
 100.8 344.64 101.76 343.68 101.76 343.68 c 1
 101.76 343.68 l 1
 101.76 343.68 102.72 342.72 103.68 341.76 c 0
 103.68 340.8 104.64 338.88 106.56 337.92 c 1
 107.52 336 109.44 334.08 109.44 333.12 c 0
 110.4 332.16 111.36 331.2 112.32 330.24 c 0
 114.24 327.36 125.76 316.8 125.76 315.84 c 2
 125.76 315.84 127.68 314.88 129.6 313.92 c 0
 140.16 306.24 148.8 300.48 165.12 292.8 c 0
 167.04 291.84 168.96 291.84 168.96 291.84 c 2
 169.92 290.88 169.92 290.88 170.88 290.88 c 0
 173.76 288.96 186.24 286.08 193.92 285.12 c 0
 196.8 284.16 199.68 284.16 200.64 284.16 c 0
 209.28 282.24 233.28 283.2 246.72 286.08 c 0
 260.16 288.96 262.08 289.92 272.64 293.76 c 0
 279.36 295.68 285.12 298.56 297.6 304.32 c 0
 299.52 305.28 302.4 306.24 304.32 307.2 c 0
 307.2 308.16 307.2 307.2 307.2 314.88 c 0
 307.2 317.76 308.16 325.44 308.16 332.16 c 0
 308.16 337.92 309.12 350.4 309.12 360 c 0
 309.12 368.64 310.08 381.12 310.08 387.84 c 0
 311.04 408.96 311.04 419.52 310.08 419.52 c 2
 310.08 419.52 308.16 419.52 306.24 417.6 c 0
 292.8 410.88 276.48 406.08 266.88 408 c 0
 265.92 408.96 264 408.96 263.04 408.96 c 0
 258.24 409.92 248.64 412.8 244.8 415.68 c 0
 236.16 420.48 226.56 434.88 224.64 443.52 c 0
 224.64 445.44 224.64 449.28 223.68 451.2 c 0
 222.72 455.04 222.72 474.24 223.68 481.92 c 0
 223.68 486.72 226.56 498.24 227.52 500.16 c 2
 227.52 500.16 228.48 502.08 229.44 504.96 c 0
 234.24 519.36 246.72 528 264.96 531.84 c 0
 278.4 534.72 294.72 529.92 302.4 521.28 c 0
 307.2 516.48 311.04 510.72 312.96 504 c 0
 314.88 500.16 314.88 497.28 313.92 481.92 c 0
 313.92 478.08 313.92 468.48 313.92 461.76 c 0
 312.96 454.08 312.96 441.6 312.96 433.92 c 0
 312.96 425.28 312 408.96 312 397.44 c 0
 312 385.92 311.04 371.52 311.04 366.72 c 0
 311.04 361.92 311.04 352.32 311.04 344.64 c 1
 310.08 337.92 310.08 332.16 310.08 331.2 c 2
 310.08 331.2 310.08 319.68 310.08 304.32 c 0
 309.12 276.48 309.12 275.52 309.12 272.64 c 0
 309.12 271.68 309.12 257.28 309.12 240 c 0
 309.12 222.72 310.08 204.48 310.08 200.64 c 0
 310.08 180.48 307.2 169.92 295.68 155.52 c 0
 286.08 143.04 267.84 137.28 247.68 140.16 c 0
 240.96 141.12 239.04 142.08 232.32 145.92 c 0
 221.76 151.68 215.04 164.16 212.16 179.52 c 0
 211.2 185.28 211.2 188.16 211.2 211.2 c 0
 211.2 214.08 211.2 216.96 211.2 216.96 c 1
 210.24 216.96 144.96 216.96 114.24 216.96 c 1
 86.4004 216 78.7197 216 77.7598 215.04 c 0
 76.7998 214.08 76.7998 180.48 77.7598 157.44 c 0
 77.7598 153.6 78.7197 146.88 78.7197 143.04 c 0
 78.7197 135.36 78.7197 133.44 81.5996 121.92 c 0
 82.5596 116.16 83.5195 112.32 84.4805 110.4 c 0
 85.4404 110.4 86.4004 107.52 87.3604 104.64 c 0
 90.2402 96.96 94.0801 89.2803 97.9199 83.5195 c 0
 98.8799 81.5996 99.8398 79.6797 100.8 79.6797 c 0
 101.76 76.7998 103.68 74.8799 103.68 74.8799 c 2
 104.64 74.8799 104.64 73.9199 105.6 72.96 c 0
 105.6 72 106.56 70.0801 107.52 69.1201 c 0
 108.48 68.1602 109.44 67.2002 109.44 67.2002 c 1
 109.44 67.2002 l 1
 109.44 67.2002 110.4 66.2402 110.4 65.2803 c 0
 114.24 60.4805 133.44 41.2803 134.4 43.2002 c 1
 134.4 43.2002 134.4 43.2002 134.4 42.2402 c 0
 133.44 40.3203 154.56 25.9199 168.96 19.2002 c 0
 172.8 17.2803 175.68 16.3203 176.64 15.3604 c 0
 180.48 13.4404 195.84 8.63965 201.6 7.67969 c 0
 202.56 6.71973 204.48 6.71973 205.44 5.75977 c 1
 208.32 5.75977 220.8 3.83984 220.8 3.83984 c 1
 220.8 3.83984 221.76 3.83984 222.72 2.87988 c 0
 242.88 -0.959961 286.08 2.87988 311.04 9.59961 c 0
 312.96 10.5596 314.88 10.5596 315.84 10.5596 c 0
 319.68 11.5195 334.08 16.3203 339.84 19.2002 c 0
 341.76 20.1602 344.64 21.1201 344.64 21.1201 c 2
 345.6 21.1201 348.48 22.0801 350.4 24 c 1
 353.28 24.96 356.16 25.9199 356.16 25.9199 c 2
 357.12 25.9199 358.08 26.8799 358.08 26.8799 c 2
 359.04 27.8398 362.88 29.7598 363.84 29.7598 c 0
 364.8 29.7598 373.44 35.5195 377.28 38.4004 c 0
 379.2 39.3604 381.12 41.2803 382.08 42.2402 c 0
 383.04 42.2402 384 43.2002 384.96 44.1602 c 0
 385.92 45.1201 387.84 47.04 389.76 48 c 0
 391.68 49.9199 394.56 51.8398 395.52 53.7598 c 0
 397.44 55.6797 399.36 57.5996 400.32 57.5996 c 0
 403.2 59.5195 417.6 74.8799 417.6 75.8398 c 2
 417.6 75.8398 417.6 76.7998 418.56 76.7998 c 2
 418.56 76.7998 421.44 79.6797 426.24 87.3604 c 0
 427.2 89.2803 428.16 90.2402 428.16 91.2002 c 2
 429.12 92.1602 l 2
 430.08 92.1602 430.08 93.1201 430.08 93.1201 c 1
 431.04 94.0801 l 2
 431.04 95.04 432 96 432 96 c 1
 432 96 432.96 96.96 432.96 97.9199 c 0
 433.92 98.8799 433.92 99.8398 434.88 99.8398 c 1
 434.88 100.8 434.88 101.76 435.84 101.76 c 0
 436.8 102.72 440.64 112.32 440.64 113.28 c 2
 441.6 114.24 l 2
 442.56 114.24 445.44 123.84 447.36 133.44 c 0
 448.32 137.28 448.32 139.2 449.28 139.2 c 1
 449.28 141.12 451.2 161.28 451.2 170.88 c 0
 451.2 183.36 452.16 322.56 452.16 336 c 0
 452.16 343.68 452.16 369.6 452.16 393.6 c 0
 452.16 401.28 452.16 428.16 452.16 453.12 c 0
 452.16 478.08 452.16 503.04 452.16 509.76 c 0
 452.16 515.52 452.16 520.32 452.16 521.28 c 0
 451.2 522.24 451.2 524.16 451.2 528.96 c 0
 450.24 534.72 447.36 549.12 444.48 554.88 c 1
 434.88 586.56 416.64 610.56 384.96 634.56 c 0
 360 653.76 340.8 662.4 307.2 669.12 c 0
 295.68 672 294.72 672 287.04 672 c 0
 285.12 672 282.24 672.96 281.28 672.96 c 0
 280.32 672.96 276.48 672.96 273.6 672.96 c 0
 268.8 672.96 265.92 672 265.92 672 c 1
186.24 624.96 m 1
 186.24 624.96 l 1
 186.24 625.92 l 1
 187.2 625.92 187.2 624.96 187.2 624.96 c 1
 187.2 624.96 187.2 624.96 186.24 624.96 c 1
303.36 620.16 m 0
 303.36 621.12 303.36 621.12 303.36 621.12 c 1
 304.32 621.12 304.32 620.16 304.32 620.16 c 2
 305.28 619.2 304.32 619.2 303.36 620.16 c 0
234.24 517.44 m 1
 234.24 517.44 234.24 517.44 234.24 518.4 c 1
 234.24 518.4 l 1
 235.2 518.4 235.2 518.4 235.2 518.4 c 1
 235.2 517.44 235.2 517.44 234.24 517.44 c 1
402.24 294.72 m 2
 401.28 294.72 l 1
 402.24 295.68 l 2
 403.2 295.68 403.2 294.72 403.2 294.72 c 1
 403.2 294.72 403.2 294.72 402.24 294.72 c 2
434.88 203.52 m 1
 433.92 203.52 l 1
 434.88 204.48 l 1
 434.88 203.52 l 1
 434.88 203.52 l 1
130.56 57.5996 m 1
 130.56 58.5596 130.56 58.5596 130.56 59.5195 c 1
 131.52 59.5195 l 1
 131.52 58.5596 131.52 58.5596 131.52 58.5596 c 2
 131.52 57.5996 131.52 57.5996 130.56 57.5996 c 1
EndSplineSet
EndChar

StartChar: uni0041
Encoding: 65 65 10
Width: 581
VWidth: 0
Flags: HW
LayerCount: 2
Fore
SplineSet
225.6 660.48 m 4
 225.6 659.52 224.64 655.68 223.68 652.8 c 4
 222.72 648.96 221.76 644.16 220.8 641.28 c 4
 219.84 638.4 218.88 633.6 217.92 630.72 c 4
 216.96 627.84 215.04 621.12 214.08 615.36 c 4
 213.12 610.56 210.24 601.92 209.28 597.12 c 4
 208.32 592.32 205.44 583.68 204.48 576.96 c 4
 200.64 563.52 200.64 563.52 197.76 551.04 c 4
 193.92 536.64 191.04 528 190.08 525.12 c 4
 190.08 523.2 189.12 522.24 189.12 521.28 c 6
 189.12 521.28 189.12 518.4 188.16 516.48 c 4
 187.2 511.68 183.36 496.32 180.48 484.8 c 4
 178.56 479.04 176.64 472.32 175.68 468.48 c 4
 174.72 464.64 172.8 456 171.84 450.24 c 4
 167.04 432 165.12 424.32 163.2 417.6 c 4
 162.24 414.72 161.28 409.92 160.32 408 c 4
 159.36 402.24 155.52 387.84 154.56 383.04 c 4
 153.6 381.12 152.64 377.28 152.64 375.36 c 4
 151.68 372.48 150.72 369.6 150.72 367.68 c 5
 149.76 366.72 149.76 363.84 148.8 362.88 c 4
 148.8 361.92 148.8 359.04 147.84 357.12 c 4
 145.92 351.36 144.96 345.6 139.2 324.48 c 4
 136.32 312.96 133.44 301.44 132.48 297.6 c 4
 131.52 293.76 130.56 289.92 130.56 288.96 c 4
 130.56 288 129.6 286.08 129.6 285.12 c 4
 128.64 283.2 127.68 280.32 127.68 277.44 c 4
 126.72 274.56 125.76 270.72 124.8 268.8 c 4
 123.84 264 122.88 259.2 121.92 253.44 c 4
 120.96 250.56 120 245.76 119.04 242.88 c 4
 118.08 240 116.16 231.36 114.24 223.68 c 4
 112.32 216 110.4 208.32 109.44 206.4 c 4
 107.52 201.6 104.64 189.12 100.8 172.8 c 4
 97.9199 163.2 95.04 151.68 94.0801 145.92 c 4
 92.1602 140.16 90.2402 131.52 89.2803 126.72 c 5
 87.3604 122.88 86.4004 116.16 85.4404 113.28 c 4
 82.5596 104.64 79.6797 93.1201 77.7598 85.4404 c 4
 76.7998 81.5996 75.8398 76.7998 74.8799 73.9199 c 4
 71.04 60.4805 67.2002 45.1201 62.4004 27.8398 c 4
 61.4404 23.04 59.5195 16.3203 57.5996 9.59961 c 4
 57.5996 7.67969 56.6396 6.71973 56.6396 5.75977 c 4
 56.6396 4.7998 56.6396 3.83984 56.6396 3.83984 c 5
 55.6797 2.87988 55.6797 1.91992 55.6797 1.91992 c 6
 55.6797 0.959961 54.7197 0.959961 155.52 0.959961 c 4
 203.52 0.959961 205.44 0.959961 205.44 1.91992 c 5
 206.4 1.91992 207.36 4.7998 207.36 7.67969 c 4
 208.32 10.5596 209.28 14.4004 209.28 18.2402 c 5
 210.24 21.1201 212.16 27.8398 213.12 33.5996 c 4
 214.08 38.4004 216 44.1602 216 45.1201 c 4
 216 47.04 218.88 56.6396 219.84 62.4004 c 4
 221.76 71.04 225.6 86.4004 227.52 93.1201 c 4
 228.48 95.04 228.48 96.96 228.48 96.96 c 5
 228.48 96.96 228.48 96.96 228.48 97.9199 c 5
 229.44 97.9199 229.44 99.8398 230.4 102.72 c 4
 232.32 107.52 233.28 109.44 235.2 109.44 c 4
 244.8 110.4 346.56 110.4 347.52 109.44 c 6
 347.52 109.44 350.4 99.8398 352.32 88.3203 c 4
 355.2 76.7998 358.08 65.2803 359.04 61.4404 c 4
 360 57.5996 361.92 49.9199 362.88 45.1201 c 4
 363.84 40.3203 364.8 33.5996 365.76 30.7197 c 4
 366.72 27.8398 367.68 21.1201 369.6 15.3604 c 4
 370.56 9.59961 371.52 4.7998 371.52 2.87988 c 5
 372.48 1.91992 372.48 1.91992 401.28 1.91992 c 4
 416.64 1.91992 430.08 1.91992 430.08 1.91992 c 6
 432.96 1.91992 470.4 1.91992 492.48 1.91992 c 4
 508.8 1.91992 518.4 2.87988 518.4 2.87988 c 5
 518.4 2.87988 518.4 4.7998 517.44 8.63965 c 4
 516.48 10.5596 513.6 23.04 510.72 35.5195 c 4
 507.84 47.04 504.96 59.5195 504 63.3604 c 4
 499.2 82.5596 497.28 88.3203 496.32 94.0801 c 4
 495.36 96.96 493.44 102.72 492.48 106.56 c 4
 491.52 111.36 489.6 117.12 488.64 120.96 c 4
 488.64 123.84 485.76 133.44 483.84 142.08 c 4
 481.92 150.72 479.04 161.28 478.08 166.08 c 4
 475.2 176.64 469.44 199.68 465.6 214.08 c 4
 464.64 219.84 461.76 228.48 460.8 233.28 c 4
 459.84 238.08 457.92 243.84 457.92 244.8 c 4
 457.92 245.76 456 253.44 454.08 261.12 c 4
 452.16 268.8 449.28 279.36 448.32 285.12 c 4
 446.4 290.88 445.44 296.64 444.48 297.6 c 4
 441.6 310.08 440.64 315.84 436.8 328.32 c 4
 434.88 336.96 432.96 346.56 432 350.4 c 4
 431.04 353.28 428.16 364.8 425.28 376.32 c 4
 422.4 386.88 419.52 396.48 419.52 396.48 c 6
 418.56 401.28 414.72 418.56 413.76 421.44 c 4
 412.8 423.36 411.84 427.2 411.84 430.08 c 4
 408.96 438.72 394.56 497.28 392.64 506.88 c 4
 391.68 508.8 390.72 512.64 390.72 515.52 c 4
 389.76 518.4 388.8 523.2 386.88 528 c 4
 385.92 532.8 384 540.48 383.04 547.2 c 5
 381.12 552.96 379.2 561.6 378.24 565.44 c 4
 375.36 578.88 373.44 582.72 372.48 587.52 c 4
 371.52 590.4 369.6 599.04 367.68 607.68 c 4
 362.88 624.96 359.04 639.36 356.16 648 c 4
 354.24 654.72 351.36 662.4 351.36 665.28 c 5
 350.4 666.24 350.4 667.2 350.4 667.2 c 6
 349.44 668.16 332.16 668.16 306.24 668.16 c 4
 267.84 668.16 237.12 669.12 234.24 669.12 c 6
 234.24 669.12 232.32 669.12 231.36 669.12 c 4
 228.48 669.12 228.48 669.12 225.6 660.48 c 4
296.64 312.96 m 5
 296.64 310.08 297.6 307.2 297.6 305.28 c 4
 297.6 304.32 298.56 302.4 298.56 302.4 c 6
 299.52 300.48 300.48 298.56 301.44 294.72 c 4
 301.44 292.8 302.4 289.92 303.36 287.04 c 4
 305.28 280.32 306.24 272.64 307.2 270.72 c 4
 307.2 269.76 308.16 267.84 308.16 265.92 c 4
 309.12 264 310.08 259.2 311.04 253.44 c 5
 312.96 248.64 313.92 242.88 313.92 242.88 c 6
 314.88 241.92 315.84 237.12 316.8 232.32 c 4
 317.76 226.56 319.68 220.8 320.64 217.92 c 4
 321.6 215.04 321.6 212.16 321.6 212.16 c 6
 320.64 212.16 258.24 211.2 257.28 212.16 c 4
 256.32 212.16 258.24 218.88 264.96 246.72 c 4
 266.88 255.36 269.76 264.96 270.72 268.8 c 4
 271.68 272.64 272.64 277.44 272.64 279.36 c 4
 273.6 281.28 275.52 288 276.48 294.72 c 5
 278.4 300.48 280.32 306.24 280.32 307.2 c 4
 281.28 312 284.16 321.6 286.08 329.28 c 4
 288 338.88 288 338.88 288.96 338.88 c 5
 288.96 337.92 290.88 333.12 291.84 327.36 c 4
 293.76 321.6 295.68 314.88 296.64 312.96 c 5
EndSplineSet
EndChar

StartChar: uni0042
Encoding: 66 66 11
Width: 509
VWidth: 0
Flags: HW
LayerCount: 2
Fore
SplineSet
83.5195 671.04 m 0
 84.4805 650.88 84.4805 591.36 84.4805 549.12 c 0
 84.4805 521.28 84.4805 478.08 84.4805 453.12 c 0
 84.4805 415.68 85.4404 342.72 85.4404 295.68 c 0
 85.4404 288 85.4404 288 84.4805 287.04 c 1
 83.5195 287.04 83.5195 287.04 84.4805 287.04 c 1
 84.4805 287.04 85.4404 287.04 85.4404 286.08 c 0
 85.4404 285.12 86.4004 230.4 86.4004 158.4 c 1
 87.3604 139.2 87.3604 109.44 87.3604 92.1602 c 0
 87.3604 73.9199 88.3203 48 88.3203 32.6396 c 0
 88.3203 3.83984 88.3203 1.91992 90.2402 3.83984 c 0
 91.2002 4.7998 95.04 5.75977 95.04 4.7998 c 1
 96 4.7998 96 4.7998 96.96 4.7998 c 0
 97.9199 5.75977 110.4 5.75977 111.36 4.7998 c 0
 111.36 3.83984 111.36 3.83984 112.32 4.7998 c 1
 114.24 4.7998 117.12 4.7998 118.08 3.83984 c 1
 118.08 3.83984 119.04 3.83984 120 4.7998 c 1
 121.92 4.7998 122.88 4.7998 125.76 4.7998 c 0
 131.52 4.7998 131.52 4.7998 136.32 4.7998 c 0
 143.04 4.7998 144 4.7998 144 3.83984 c 0
 144 2.87988 144.96 2.87988 145.92 3.83984 c 0
 145.92 4.7998 149.76 5.75977 150.72 4.7998 c 1
 151.68 4.7998 l 2
 152.64 4.7998 156.48 5.75977 166.08 5.75977 c 0
 183.36 5.75977 183.36 5.75977 184.32 4.7998 c 1
 184.32 4.7998 184.32 4.7998 185.28 4.7998 c 0
 186.24 4.7998 191.04 5.75977 203.52 4.7998 c 0
 206.4 4.7998 208.32 4.7998 209.28 4.7998 c 2
 209.28 4.7998 211.2 4.7998 212.16 4.7998 c 0
 213.12 4.7998 215.04 4.7998 216 3.83984 c 0
 216.96 2.87988 217.92 2.87988 218.88 3.83984 c 1
 221.76 3.83984 235.2 3.83984 271.68 2.87988 c 0
 277.44 2.87988 283.2 2.87988 284.16 2.87988 c 0
 285.12 2.87988 286.08 2.87988 288 2.87988 c 0
 292.8 2.87988 310.08 2.87988 312.96 1.91992 c 0
 315.84 1.91992 315.84 1.91992 319.68 1.91992 c 1
 322.56 2.87988 323.52 1.91992 323.52 1.91992 c 1
 323.52 1.91992 323.52 0.959961 323.52 1.91992 c 1
 323.52 1.91992 327.36 1.91992 334.08 1.91992 c 0
 345.6 1.91992 343.68 1.91992 353.28 5.75977 c 0
 384.96 18.2402 407.04 41.2803 417.6 70.0801 c 0
 420.48 79.6797 422.4 86.4004 422.4 99.8398 c 0
 422.4 105.6 423.36 112.32 423.36 114.24 c 0
 423.36 116.16 424.32 120.96 424.32 125.76 c 0
 424.32 130.56 424.32 136.32 424.32 139.2 c 0
 425.28 143.04 425.28 151.68 425.28 160.32 c 0
 426.24 168.96 426.24 177.6 426.24 181.44 c 0
 426.24 184.32 426.24 192 426.24 198.72 c 0
 427.2 224.64 427.2 232.32 427.2 242.88 c 0
 428.16 258.24 428.16 268.8 427.2 271.68 c 0
 427.2 273.6 427.2 275.52 427.2 276.48 c 0
 427.2 277.44 426.24 280.32 425.28 286.08 c 0
 423.36 300.48 417.6 314.88 408 328.32 c 0
 403.2 336 400.32 338.88 393.6 346.56 c 0
 388.8 351.36 376.32 362.88 373.44 364.8 c 0
 371.52 366.72 364.8 371.52 364.8 371.52 c 2
 361.92 374.4 362.88 376.32 368.64 379.2 c 0
 369.6 379.2 370.56 380.16 371.52 380.16 c 1
 371.52 381.12 372.48 382.08 374.4 383.04 c 0
 396.48 397.44 408.96 412.8 416.64 432 c 0
 417.6 434.88 418.56 436.8 418.56 437.76 c 0
 419.52 439.68 422.4 451.2 423.36 456.96 c 0
 426.24 471.36 427.2 494.4 426.24 514.56 c 0
 426.24 517.44 426.24 524.16 426.24 528.96 c 0
 426.24 538.56 425.28 542.4 425.28 545.28 c 1
 424.32 546.24 424.32 549.12 424.32 552.96 c 0
 423.36 561.6 421.44 572.16 420.48 576.96 c 0
 420.48 577.92 419.52 580.8 419.52 583.68 c 0
 418.56 588.48 417.6 593.28 414.72 600.96 c 0
 413.76 603.84 412.8 606.72 412.8 606.72 c 2
 412.8 607.68 406.08 620.16 404.16 624 c 0
 403.2 625.92 401.28 628.8 400.32 630.72 c 0
 396.48 635.52 381.12 650.88 376.32 652.8 c 0
 375.36 652.8 374.4 653.76 373.44 654.72 c 0
 373.44 655.68 371.52 655.68 370.56 656.64 c 0
 369.6 657.6 366.72 658.56 363.84 660.48 c 0
 360.96 661.44 358.08 662.4 358.08 662.4 c 1
 358.08 662.4 357.12 662.4 356.16 663.36 c 0
 355.2 663.36 353.28 664.32 350.4 665.28 c 0
 334.08 670.08 324.48 672 302.4 672.96 c 0
 299.52 672.96 296.64 672.96 294.72 672.96 c 1
 293.76 673.92 286.08 673.92 277.44 673.92 c 0
 268.8 673.92 261.12 674.88 260.16 674.88 c 0
 258.24 674.88 218.88 675.84 164.16 675.84 c 0
 145.92 675.84 120.96 676.8 108.48 676.8 c 0
 95.04 676.8 84.4805 676.8 84.4805 676.8 c 1
 84.4805 676.8 83.5195 673.92 83.5195 671.04 c 0
288 507.84 m 0
 288 505.92 288 503.04 288.96 501.12 c 0
 289.92 494.4 288.96 479.04 286.08 463.68 c 0
 286.08 459.84 285.12 456 285.12 456 c 2
 284.16 451.2 283.2 447.36 279.36 442.56 c 0
 270.72 429.12 262.08 425.28 240.96 424.32 c 0
 235.2 424.32 228.48 424.32 225.6 424.32 c 0
 217.92 423.36 218.88 422.4 217.92 428.16 c 1
 217.92 434.88 217.92 513.6 217.92 528.96 c 0
 218.88 546.24 216 544.32 242.88 544.32 c 0
 264.96 544.32 264.96 544.32 268.8 542.4 c 0
 279.36 535.68 285.12 525.12 288 507.84 c 0
264.96 286.08 m 0
 278.4 280.32 288 261.12 287.04 243.84 c 0
 287.04 240.96 287.04 231.36 287.04 221.76 c 0
 287.04 213.12 286.08 203.52 286.08 201.6 c 0
 286.08 199.68 286.08 192 286.08 185.28 c 0
 285.12 157.44 284.16 148.8 281.28 144.96 c 2
 281.28 144.96 280.32 143.04 279.36 142.08 c 0
 276.48 138.24 267.84 132.48 260.16 130.56 c 0
 253.44 128.64 222.72 127.68 220.8 128.64 c 0
 220.8 129.6 219.84 144 219.84 190.08 c 0
 218.88 298.56 218.88 288.96 219.84 289.92 c 1
 221.76 289.92 237.12 289.92 248.64 288.96 c 0
 259.2 288.96 260.16 288.96 264.96 286.08 c 0
293.76 0.959961 m 1
 294.72 0.959961 294.72 0.959961 294.72 0.959961 c 1
 294.72 1.91992 293.76 1.91992 293.76 1.91992 c 2
 293.76 0.959961 293.76 0.959961 293.76 0.959961 c 1
EndSplineSet
EndChar

StartChar: uni0043
Encoding: 67 67 12
Width: 521
VWidth: 0
Flags: HW
LayerCount: 2
Fore
SplineSet
235.2 669.12 m 0
 234.24 669.12 230.4 668.16 226.56 668.16 c 0
 222.72 667.2 216.96 666.24 214.08 665.28 c 0
 211.2 665.28 209.28 664.32 208.32 664.32 c 2
 208.32 664.32 206.4 664.32 204.48 663.36 c 0
 202.56 663.36 199.68 662.4 198.72 662.4 c 0
 197.76 662.4 196.8 662.4 196.8 661.44 c 1
 196.8 661.44 195.84 661.44 194.88 661.44 c 0
 192.96 661.44 170.88 652.8 168 650.88 c 0
 168 649.92 166.08 649.92 164.16 648.96 c 0
 163.2 648 161.28 647.04 161.28 647.04 c 2
 160.32 646.08 158.4 645.12 155.52 643.2 c 0
 152.64 641.28 148.8 638.4 146.88 637.44 c 0
 144.96 635.52 142.08 633.6 140.16 632.64 c 0
 129.6 624.96 112.32 605.76 103.68 592.32 c 1
 93.1201 577.92 85.4404 556.8 83.5195 544.32 c 0
 83.5195 542.4 83.5195 539.52 83.5195 537.6 c 0
 83.5195 536.64 82.5596 533.76 82.5596 532.8 c 0
 81.5996 529.92 81.5996 528.96 81.5996 487.68 c 0
 81.5996 467.52 80.6396 439.68 80.6396 426.24 c 0
 79.6797 360.96 79.6797 288 80.6396 204.48 c 0
 80.6396 169.92 80.6396 160.32 81.5996 157.44 c 1
 81.5996 157.44 81.5996 155.52 81.5996 153.6 c 0
 81.5996 150.72 82.5596 148.8 82.5596 147.84 c 0
 82.5596 146.88 82.5596 144.96 82.5596 143.04 c 0
 82.5596 140.16 83.5195 137.28 83.5195 135.36 c 0
 83.5195 134.4 84.4805 130.56 84.4805 128.64 c 0
 85.4404 117.12 95.04 94.0801 103.68 79.6797 c 0
 125.76 45.1201 156.48 23.04 196.8 11.5195 c 0
 207.36 8.63965 207.36 8.63965 216.96 6.71973 c 0
 226.56 4.7998 238.08 2.87988 245.76 1.91992 c 0
 256.32 0.959961 281.28 1.91992 294.72 4.7998 c 0
 303.36 5.75977 314.88 8.63965 326.4 11.5195 c 0
 334.08 13.4404 346.56 18.2402 354.24 21.1201 c 0
 356.16 22.0801 358.08 23.04 360 24 c 0
 363.84 25.9199 365.76 26.8799 366.72 27.8398 c 0
 368.64 28.7998 369.6 29.7598 369.6 29.7598 c 1
 369.6 29.7598 370.56 29.7598 370.56 30.7197 c 0
 371.52 31.6797 371.52 31.6797 372.48 31.6797 c 2
 372.48 31.6797 373.44 32.6396 375.36 33.5996 c 0
 376.32 34.5596 377.28 35.5195 378.24 36.4805 c 0
 382.08 38.4004 385.92 41.2803 391.68 46.0801 c 0
 393.6 48 395.52 49.9199 396.48 49.9199 c 1
 396.48 49.9199 l 1
 397.44 49.9199 397.44 50.8799 397.44 51.8398 c 0
 397.44 52.7998 399.36 53.7598 405.12 61.4404 c 0
 406.08 62.4004 407.04 64.3203 408 66.2402 c 0
 408.96 67.2002 409.92 69.1201 410.88 70.0801 c 0
 413.76 72.96 420.48 85.4404 422.4 91.2002 c 0
 424.32 95.04 428.16 107.52 429.12 110.4 c 0
 430.08 112.32 431.04 115.2 432 117.12 c 0
 432 119.04 432.96 120.96 432.96 122.88 c 0
 432.96 123.84 433.92 124.8 433.92 125.76 c 0
 434.88 126.72 434.88 127.68 434.88 127.68 c 1
 434.88 127.68 434.88 129.6 434.88 131.52 c 0
 436.8 138.24 438.72 150.72 438.72 153.6 c 1
 437.76 154.56 438.72 158.4 438.72 161.28 c 0
 439.68 170.88 439.68 168 441.6 238.08 c 0
 441.6 264.96 441.6 263.04 437.76 263.04 c 0
 432.96 262.08 372.48 261.12 328.32 260.16 c 1
 310.08 260.16 l 1
 310.08 250.56 l 1
 311.04 192.96 309.12 168.96 299.52 154.56 c 0
 294.72 145.92 277.44 137.28 264 137.28 c 0
 241.92 138.24 225.6 149.76 219.84 169.92 c 0
 217.92 178.56 217.92 178.56 216.96 275.52 c 0
 216.96 324.48 216.96 365.76 216.96 368.64 c 0
 216.96 371.52 216 388.8 216 407.04 c 0
 216 426.24 216 450.24 216 461.76 c 0
 215.04 482.88 216 491.52 216.96 499.2 c 0
 220.8 518.4 233.28 532.8 250.56 536.64 c 0
 262.08 538.56 278.4 538.56 287.04 534.72 c 0
 305.28 527.04 311.04 508.8 311.04 462.72 c 0
 311.04 444.48 310.08 445.44 313.92 444.48 c 0
 314.88 444.48 315.84 444.48 315.84 444.48 c 1
 316.8 443.52 441.6 443.52 441.6 444.48 c 0
 442.56 445.44 443.52 523.2 442.56 530.88 c 0
 439.68 554.88 435.84 566.4 428.16 582.72 c 1
 425.28 586.56 423.36 590.4 423.36 591.36 c 0
 422.4 593.28 412.8 607.68 410.88 610.56 c 0
 405.12 617.28 392.64 628.8 384.96 634.56 c 0
 383.04 635.52 379.2 638.4 376.32 640.32 c 0
 374.4 641.28 371.52 643.2 369.6 644.16 c 0
 367.68 645.12 365.76 646.08 364.8 647.04 c 0
 360.96 648.96 354.24 652.8 351.36 653.76 c 0
 348.48 654.72 346.56 655.68 344.64 656.64 c 0
 343.68 656.64 341.76 657.6 340.8 657.6 c 2
 340.8 657.6 339.84 658.56 338.88 658.56 c 2
 338.88 658.56 336 659.52 334.08 660.48 c 0
 332.16 660.48 329.28 661.44 329.28 662.4 c 1
 328.32 662.4 326.4 662.4 325.44 663.36 c 0
 317.76 664.32 312.96 666.24 312 666.24 c 2
 312 666.24 309.12 666.24 306.24 667.2 c 1
 302.4 667.2 299.52 668.16 299.52 668.16 c 1
 299.52 668.16 297.6 669.12 296.64 669.12 c 0
 294.72 669.12 291.84 669.12 289.92 669.12 c 0
 286.08 670.08 261.12 671.04 254.4 671.04 c 0
 252.48 671.04 248.64 670.08 244.8 670.08 c 0
 240 670.08 238.08 670.08 238.08 671.04 c 1
 237.12 671.04 237.12 671.04 237.12 670.08 c 2
 237.12 670.08 236.16 669.12 235.2 669.12 c 0
220.8 6.71973 m 0
 220.8 7.67969 220.8 8.63965 221.76 8.63965 c 1
 221.76 8.63965 221.76 8.63965 221.76 7.67969 c 0
 221.76 6.71973 221.76 5.75977 220.8 6.71973 c 0
EndSplineSet
EndChar

StartChar: uni0044
Encoding: 68 68 13
Width: 533
VWidth: 0
Flags: HW
LayerCount: 2
Fore
SplineSet
154.56 667.2 m 0
 118.08 667.2 87.3604 667.2 87.3604 666.24 c 1
 86.4004 666.24 86.4004 624.96 85.4404 523.2 c 0
 85.4404 496.32 85.4404 468.48 85.4404 461.76 c 0
 84.4805 409.92 84.4805 171.84 85.4404 120 c 0
 85.4404 106.56 86.4004 86.4004 86.4004 74.8799 c 0
 86.4004 63.3604 86.4004 50.8799 86.4004 48 c 0
 86.4004 44.1602 86.4004 33.5996 86.4004 24.96 c 0
 85.4404 7.67969 85.4404 0.959961 86.4004 0 c 1
 86.4004 0 103.68 0 111.36 0 c 0
 115.2 0 117.12 0 118.08 0 c 2
 118.08 0 119.04 0 120 0 c 0
 121.92 0.959961 124.8 0.959961 125.76 0 c 0
 126.72 -0.959961 127.68 -0.959961 127.68 0 c 1
 128.64 0 128.64 0 155.52 0 c 0
 165.12 0 173.76 0 174.72 0 c 0
 198.72 0.959961 242.88 0.959961 242.88 0 c 2
 242.88 0 243.84 0 243.84 0.959961 c 1
 244.8 0.959961 245.76 0.959961 246.72 0.959961 c 0
 251.52 0.959961 253.44 0.959961 254.4 0 c 1
 255.36 0 l 1
 256.32 0.959961 269.76 0.959961 282.24 0.959961 c 0
 286.08 0.959961 289.92 0.959961 289.92 0.959961 c 1
 289.92 0.959961 291.84 0.959961 292.8 0.959961 c 0
 298.56 0.959961 318.72 0.959961 318.72 0.959961 c 1
 319.68 0 319.68 0 320.64 0.959961 c 1
 323.52 0.959961 354.24 0.959961 355.2 0 c 0
 356.16 0 356.16 0 357.12 0 c 1
 357.12 0.959961 360 0.959961 361.92 0.959961 c 0
 364.8 0.959961 366.72 0.959961 367.68 0.959961 c 1
 367.68 1.91992 369.6 1.91992 371.52 2.87988 c 0
 384.96 6.71973 400.32 17.2803 411.84 29.7598 c 0
 414.72 32.6396 422.4 44.1602 422.4 45.1201 c 2
 422.4 45.1201 423.36 47.04 424.32 48.96 c 0
 428.16 55.6797 433.92 69.1201 435.84 75.8398 c 0
 435.84 77.7598 436.8 79.6797 436.8 80.6396 c 0
 437.76 85.4404 439.68 96 438.72 100.8 c 0
 438.72 101.76 439.68 103.68 439.68 104.64 c 0
 440.64 105.6 440.64 106.56 440.64 106.56 c 2
 440.64 107.52 440.64 108.48 440.64 110.4 c 0
 441.6 112.32 441.6 115.2 441.6 119.04 c 0
 441.6 121.92 442.56 124.8 442.56 124.8 c 1
 442.56 124.8 442.56 127.68 442.56 130.56 c 0
 442.56 134.4 443.52 137.28 443.52 139.2 c 0
 443.52 141.12 443.52 144 443.52 145.92 c 0
 443.52 147.84 444.48 151.68 444.48 154.56 c 0
 444.48 157.44 444.48 163.2 444.48 167.04 c 0
 445.44 171.84 445.44 176.64 445.44 177.6 c 0
 445.44 181.44 446.4 195.84 446.4 197.76 c 0
 446.4 198.72 446.4 201.6 446.4 203.52 c 0
 447.36 205.44 447.36 212.16 447.36 217.92 c 0
 448.32 223.68 448.32 229.44 448.32 229.44 c 1
 448.32 229.44 448.32 235.2 449.28 240.96 c 0
 449.28 245.76 449.28 252.48 449.28 254.4 c 0
 449.28 256.32 449.28 260.16 449.28 264 c 0
 450.24 267.84 450.24 273.6 450.24 277.44 c 0
 450.24 280.32 451.2 286.08 451.2 288.96 c 0
 451.2 291.84 451.2 297.6 451.2 302.4 c 0
 451.2 306.24 452.16 312 452.16 315.84 c 0
 452.16 318.72 452.16 326.4 452.16 333.12 c 0
 452.16 338.88 453.12 348.48 453.12 354.24 c 0
 454.08 414.72 455.04 500.16 453.12 526.08 c 0
 453.12 529.92 452.16 540.48 452.16 548.16 c 0
 451.2 555.84 451.2 563.52 450.24 564.48 c 1
 450.24 564.48 450.24 566.4 450.24 567.36 c 0
 450.24 569.28 450.24 570.24 448.32 580.8 c 0
 445.44 594.24 445.44 596.16 443.52 600 c 0
 440.64 610.56 436.8 616.32 428.16 625.92 c 1
 426.24 629.76 413.76 639.36 408.96 642.24 c 0
 407.04 643.2 406.08 644.16 405.12 644.16 c 1
 405.12 645.12 403.2 646.08 402.24 646.08 c 0
 399.36 647.04 392.64 650.88 390.72 651.84 c 0
 389.76 652.8 388.8 653.76 388.8 653.76 c 2
 387.84 653.76 385.92 653.76 383.04 654.72 c 0
 371.52 659.52 364.8 661.44 360 662.4 c 0
 359.04 662.4 357.12 663.36 356.16 663.36 c 0
 354.24 664.32 349.44 664.32 340.8 666.24 c 1
 336 666.24 332.16 667.2 332.16 667.2 c 2
 331.2 667.2 313.92 667.2 293.76 667.2 c 0
 272.64 667.2 252.48 667.2 249.6 667.2 c 0
 240.96 667.2 228.48 667.2 226.56 667.2 c 0
 225.6 667.2 224.64 667.2 223.68 667.2 c 0
 222.72 667.2 222.72 667.2 221.76 667.2 c 2
 221.76 667.2 191.04 667.2 154.56 667.2 c 0
297.6 540.48 m 0
 308.16 537.6 312.96 528 314.88 505.92 c 0
 314.88 502.08 314.88 496.32 314.88 494.4 c 0
 314.88 492.48 314.88 484.8 313.92 476.16 c 1
 313.92 458.88 313.92 455.04 312.96 454.08 c 0
 312.96 453.12 312.96 452.16 312.96 450.24 c 0
 313.92 446.4 313.92 436.8 312.96 434.88 c 0
 312.96 433.92 312 425.28 312 412.8 c 0
 311.04 321.6 311.04 323.52 311.04 322.56 c 2
 311.04 322.56 311.04 319.68 311.04 316.8 c 0
 311.04 313.92 310.08 308.16 310.08 305.28 c 0
 310.08 302.4 310.08 293.76 310.08 288 c 0
 310.08 282.24 309.12 274.56 309.12 272.64 c 0
 309.12 270.72 309.12 264 309.12 258.24 c 0
 309.12 252.48 308.16 245.76 308.16 243.84 c 0
 308.16 241.92 308.16 236.16 308.16 232.32 c 0
 308.16 228.48 307.2 221.76 307.2 217.92 c 0
 307.2 214.08 306.24 208.32 306.24 205.44 c 0
 306.24 188.16 304.32 176.64 300.48 163.2 c 0
 299.52 161.28 293.76 150.72 290.88 147.84 c 0
 286.08 141.12 277.44 134.4 272.64 135.36 c 1
 272.64 135.36 271.68 135.36 271.68 134.4 c 0
 269.76 132.48 261.12 132.48 242.88 131.52 c 0
 231.36 131.52 227.52 131.52 227.52 132.48 c 0
 226.56 133.44 226.56 264.96 228.48 334.08 c 0
 228.48 337.92 229.44 354.24 229.44 369.6 c 0
 229.44 403.2 229.44 416.64 230.4 434.88 c 0
 230.4 441.6 230.4 451.2 230.4 456.96 c 1
 231.36 461.76 231.36 467.52 231.36 471.36 c 0
 231.36 474.24 232.32 482.88 232.32 490.56 c 0
 232.32 515.52 232.32 525.12 233.28 528 c 0
 233.28 528.96 233.28 532.8 233.28 536.64 c 0
 233.28 543.36 233.28 543.36 234.24 543.36 c 1
 234.24 542.4 237.12 542.4 240 543.36 c 1
 257.28 543.36 292.8 542.4 297.6 540.48 c 0
EndSplineSet
EndChar

StartChar: uni0045
Encoding: 69 69 14
Width: 471
VWidth: 0
Flags: HW
LayerCount: 2
Fore
SplineSet
339.84 664.32 m 0
 326.4 664.32 312.96 664.32 310.08 664.32 c 0
 307.2 664.32 293.76 663.36 280.32 663.36 c 0
 265.92 663.36 254.4 663.36 253.44 663.36 c 0
 249.6 662.4 175.68 663.36 151.68 663.36 c 0
 129.6 663.36 85.4404 662.4 85.4404 662.4 c 2
 84.4805 662.4 84.4805 661.44 84.4805 660.48 c 0
 84.4805 658.56 85.4404 377.28 85.4404 209.28 c 1
 86.4004 104.64 86.4004 5.75977 87.3604 3.83984 c 0
 87.3604 1.91992 87.3604 1.91992 121.92 1.91992 c 1
 151.68 2.87988 170.88 2.87988 174.72 1.91992 c 1
 174.72 1.91992 187.2 1.91992 201.6 1.91992 c 0
 216 1.91992 235.2 2.87988 242.88 2.87988 c 0
 251.52 2.87988 268.8 2.87988 281.28 2.87988 c 0
 305.28 2.87988 370.56 2.87988 378.24 2.87988 c 0
 383.04 2.87988 384.96 2.87988 384.96 4.7998 c 1
 385.92 5.75977 385.92 17.2803 385.92 49.9199 c 1
 386.88 58.5596 386.88 78.7197 386.88 93.1201 c 0
 386.88 108.48 386.88 120.96 386.88 120.96 c 2
 386.88 121.92 386.88 122.88 386.88 123.84 c 0
 385.92 126.72 391.68 126.72 292.8 126.72 c 2
 232.32 126.72 l 1
 232.32 133.44 l 2
 232.32 136.32 232.32 148.8 231.36 161.28 c 0
 231.36 172.8 231.36 199.68 231.36 219.84 c 0
 230.4 264.96 230.4 286.08 231.36 286.08 c 0
 232.32 287.04 242.88 287.04 260.16 288 c 0
 267.84 288 275.52 288 277.44 288 c 0
 279.36 288 288.96 288.96 297.6 288.96 c 0
 306.24 288.96 315.84 288.96 319.68 288.96 c 0
 323.52 288.96 338.88 289.92 352.32 289.92 c 0
 380.16 289.92 384.96 289.92 385.92 290.88 c 1
 385.92 290.88 385.92 306.24 385.92 324.48 c 0
 386.88 342.72 386.88 358.08 386.88 359.04 c 0
 386.88 360 386.88 390.72 386.88 408.96 c 0
 386.88 420.48 386.88 420.48 379.2 419.52 c 0
 372.48 419.52 358.08 419.52 331.2 418.56 c 0
 319.68 418.56 309.12 418.56 308.16 418.56 c 0
 300.48 417.6 232.32 417.6 232.32 417.6 c 1
 230.4 420.48 230.4 534.72 231.36 535.68 c 0
 232.32 536.64 234.24 536.64 241.92 537.6 c 0
 247.68 537.6 257.28 537.6 263.04 537.6 c 0
 268.8 538.56 276.48 538.56 280.32 538.56 c 0
 284.16 538.56 291.84 539.52 297.6 539.52 c 0
 308.16 539.52 331.2 540.48 365.76 541.44 c 0
 378.24 541.44 384.96 542.4 385.92 542.4 c 1
 385.92 543.36 386.88 656.64 385.92 662.4 c 0
 385.92 665.28 385.92 665.28 374.4 665.28 c 0
 368.64 665.28 363.84 665.28 363.84 665.28 c 1
 363.84 665.28 353.28 664.32 339.84 664.32 c 0
189.12 637.44 m 1
 188.16 638.4 190.08 639.36 190.08 639.36 c 1
 190.08 639.36 191.04 639.36 191.04 638.4 c 0
 191.04 637.44 189.12 637.44 189.12 637.44 c 1
353.28 538.56 m 1
 353.28 538.56 353.28 538.56 353.28 539.52 c 1
 353.28 539.52 l 1
 352.32 539.52 352.32 539.52 352.32 539.52 c 1
 352.32 538.56 352.32 538.56 353.28 538.56 c 1
278.4 467.52 m 1
 278.4 467.52 278.4 467.52 278.4 468.48 c 2
 278.4 469.44 l 1
 277.44 469.44 277.44 468.48 277.44 468.48 c 2
 277.44 467.52 277.44 467.52 278.4 467.52 c 1
EndSplineSet
EndChar

StartChar: uni0046
Encoding: 70 70 15
Width: 458
VWidth: 0
Flags: HW
LayerCount: 2
Fore
SplineSet
340.8 666.24 m 0
 327.36 666.24 313.92 666.24 310.08 666.24 c 0
 303.36 666.24 260.16 665.28 252.48 665.28 c 0
 251.52 665.28 242.88 664.32 234.24 664.32 c 0
 224.64 664.32 213.12 663.36 207.36 663.36 c 0
 200.64 663.36 184.32 663.36 169.92 663.36 c 0
 155.52 662.4 139.2 662.4 133.44 662.4 c 0
 128.64 662.4 114.24 661.44 103.68 661.44 c 0
 92.1602 661.44 82.5596 661.44 82.5596 661.44 c 1
 82.5596 660.48 83.5195 632.64 83.5195 630.72 c 2
 83.5195 630.72 83.5195 604.8 83.5195 574.08 c 0
 84.4805 543.36 84.4805 506.88 84.4805 492.48 c 0
 84.4805 479.04 84.4805 452.16 84.4805 432.96 c 0
 85.4404 413.76 85.4404 387.84 85.4404 374.4 c 0
 85.4404 344.64 86.4004 269.76 86.4004 171.84 c 0
 86.4004 31.6797 86.4004 10.5596 86.4004 8.63965 c 1
 85.4404 8.63965 85.4404 7.67969 86.4004 7.67969 c 1
 86.4004 7.67969 86.4004 5.75977 86.4004 3.83984 c 2
 86.4004 0.959961 l 1
 155.52 0.959961 l 2
 193.92 0.959961 225.6 0.959961 225.6 0.959961 c 1
 225.6 0.959961 225.6 27.8398 225.6 60.4805 c 0
 225.6 142.08 225.6 184.32 225.6 201.6 c 0
 226.56 250.56 227.52 258.24 227.52 258.24 c 2
 228.48 259.2 241.92 259.2 292.8 260.16 c 0
 303.36 260.16 317.76 261.12 325.44 261.12 c 0
 332.16 261.12 345.6 261.12 355.2 261.12 c 0
 373.44 262.08 380.16 262.08 381.12 263.04 c 1
 381.12 263.04 381.12 351.36 381.12 354.24 c 2
 381.12 354.24 381.12 364.8 381.12 378.24 c 0
 381.12 393.6 381.12 402.24 381.12 403.2 c 0
 380.16 405.12 380.16 405.12 370.56 404.16 c 1
 358.08 404.16 353.28 404.16 342.72 403.2 c 0
 337.92 403.2 328.32 403.2 320.64 403.2 c 0
 312.96 402.24 303.36 402.24 298.56 402.24 c 0
 294.72 402.24 288.96 401.28 286.08 401.28 c 0
 283.2 401.28 276.48 401.28 272.64 401.28 c 0
 267.84 401.28 263.04 400.32 262.08 400.32 c 0
 258.24 400.32 228.48 399.36 227.52 400.32 c 0
 226.56 402.24 225.6 529.92 227.52 531.84 c 1
 227.52 531.84 232.32 531.84 272.64 533.76 c 0
 298.56 534.72 307.2 534.72 330.24 534.72 c 0
 338.88 534.72 349.44 535.68 353.28 535.68 c 0
 358.08 535.68 365.76 535.68 370.56 535.68 c 0
 377.28 535.68 380.16 535.68 380.16 536.64 c 1
 381.12 536.64 381.12 539.52 380.16 547.2 c 0
 380.16 552.96 380.16 569.28 380.16 583.68 c 0
 380.16 597.12 380.16 610.56 379.2 612.48 c 0
 379.2 614.4 379.2 626.88 379.2 640.32 c 0
 379.2 653.76 378.24 664.32 378.24 665.28 c 0
 378.24 667.2 378.24 667.2 371.52 667.2 c 0
 368.64 667.2 365.76 667.2 365.76 667.2 c 1
 365.76 667.2 354.24 666.24 340.8 666.24 c 0
EndSplineSet
EndChar

StartChar: uni0047
Encoding: 71 71 16
Width: 537
VWidth: 0
Flags: HW
LayerCount: 2
Fore
SplineSet
253.44 661.44 m 5
 251.52 660.48 246.72 660.48 241.92 659.52 c 4
 213.12 655.68 192.96 648.96 163.2 632.64 c 4
 160.32 630.72 156.48 628.8 155.52 627.84 c 4
 146.88 623.04 129.6 609.6 120.96 600.96 c 4
 113.28 593.28 102.72 579.84 102.72 577.92 c 6
 102.72 577.92 101.76 576.96 101.76 576 c 4
 99.8398 574.08 93.1201 560.64 91.2002 556.8 c 4
 91.2002 554.88 90.2402 552.96 90.2402 552 c 4
 89.2803 551.04 88.3203 549.12 88.3203 547.2 c 4
 85.4404 538.56 85.4404 535.68 82.5596 522.24 c 5
 81.5996 512.64 81.5996 512.64 81.5996 478.08 c 4
 79.6797 337.92 79.6797 158.4 80.6396 150.72 c 4
 81.5996 147.84 81.5996 144 81.5996 141.12 c 4
 82.5596 133.44 82.5596 133.44 83.5195 128.64 c 4
 85.4404 121.92 86.4004 117.12 88.3203 111.36 c 4
 89.2803 110.4 89.2803 108.48 89.2803 108.48 c 6
 89.2803 105.6 101.76 79.6797 106.56 72 c 4
 108.48 70.0801 109.44 69.1201 110.4 67.2002 c 4
 110.4 66.2402 112.32 63.3604 114.24 61.4404 c 4
 116.16 59.5195 118.08 56.6396 119.04 54.7197 c 4
 122.88 49.9199 133.44 39.3604 141.12 35.5195 c 4
 141.12 34.5596 143.04 33.5996 144 32.6396 c 4
 162.24 21.1201 174.72 14.4004 199.68 7.67969 c 4
 202.56 6.71973 205.44 5.75977 205.44 4.7998 c 5
 206.4 4.7998 208.32 4.7998 210.24 3.83984 c 4
 212.16 3.83984 215.04 2.87988 215.04 2.87988 c 6
 216 2.87988 220.8 1.91992 228.48 0.959961 c 4
 236.16 -0.959961 249.6 -1.91992 262.08 -0.959961 c 5
 276.48 -0.959961 280.32 -0.959961 284.16 0 c 4
 286.08 0 288.96 0 290.88 0 c 4
 292.8 0 294.72 0.959961 296.64 0.959961 c 4
 299.52 1.91992 301.44 0.959961 303.36 0.959961 c 6
 303.36 0.959961 304.32 0.959961 305.28 0.959961 c 5
 305.28 1.91992 307.2 1.91992 308.16 2.87988 c 5
 312 2.87988 317.76 4.7998 324.48 6.71973 c 4
 333.12 8.63965 346.56 13.4404 348.48 14.4004 c 6
 348.48 14.4004 350.4 15.3604 352.32 16.3203 c 4
 354.24 16.3203 357.12 18.2402 359.04 19.2002 c 4
 360 19.2002 361.92 20.1602 361.92 20.1602 c 5
 361.92 20.1602 363.84 21.1201 366.72 23.04 c 4
 368.64 24 371.52 24.96 371.52 24.96 c 5
 371.52 24.96 374.4 26.8799 377.28 28.7998 c 6
 377.28 28.7998 380.16 30.7197 384 33.5996 c 4
 387.84 36.4805 392.64 39.3604 393.6 40.3203 c 4
 396.48 41.2803 406.08 50.8799 408.96 54.7197 c 4
 409.92 55.6797 412.8 58.5596 415.68 61.4404 c 4
 417.6 63.3604 419.52 65.2803 419.52 65.2803 c 6
 419.52 66.2402 420.48 66.2402 421.44 67.2002 c 4
 422.4 69.1201 423.36 70.0801 423.36 70.0801 c 6
 426.24 73.9199 427.2 75.8398 429.12 77.7598 c 4
 430.08 78.7197 431.04 80.6396 431.04 80.6396 c 6
 432.96 82.5596 441.6 97.9199 441.6 99.8398 c 6
 441.6 99.8398 442.56 100.8 442.56 101.76 c 4
 443.52 103.68 447.36 115.2 447.36 115.2 c 6
 447.36 116.16 448.32 119.04 449.28 121.92 c 4
 450.24 124.8 450.24 128.64 451.2 130.56 c 4
 451.2 131.52 451.2 134.4 452.16 136.32 c 4
 453.12 140.16 453.12 150.72 454.08 173.76 c 4
 454.08 192.96 454.08 200.64 455.04 216.96 c 4
 455.04 221.76 455.04 231.36 456 239.04 c 4
 456 246.72 456 255.36 456 257.28 c 4
 456 262.08 456.96 296.64 456.96 308.16 c 5
 457.92 316.8 l 5
 451.2 316.8 l 6
 437.76 316.8 406.08 315.84 394.56 315.84 c 5
 384 314.88 375.36 314.88 357.12 314.88 c 5
 345.6 313.92 333.12 313.92 328.32 313.92 c 4
 324.48 313.92 311.04 312.96 300.48 312.96 c 4
 282.24 312.96 277.44 312.96 276.48 312 c 5
 276.48 312 276.48 307.2 276.48 300.48 c 5
 275.52 294.72 275.52 282.24 275.52 273.6 c 4
 275.52 264 274.56 251.52 274.56 245.76 c 4
 274.56 240 274.56 234.24 274.56 233.28 c 4
 273.6 222.72 273.6 209.28 274.56 209.28 c 6
 274.56 209.28 283.2 209.28 292.8 209.28 c 4
 304.32 209.28 311.04 208.32 311.04 208.32 c 6
 312 207.36 312 179.52 310.08 174.72 c 4
 307.2 161.28 299.52 149.76 290.88 144 c 4
 279.36 136.32 260.16 134.4 248.64 139.2 c 4
 237.12 144.96 228.48 155.52 224.64 169.92 c 4
 222.72 175.68 222.72 177.6 222.72 237.12 c 4
 222.72 264.96 222.72 293.76 222.72 302.4 c 4
 220.8 400.32 220.8 465.6 222.72 482.88 c 4
 224.64 503.04 231.36 513.6 246.72 519.36 c 4
 248.64 520.32 250.56 521.28 250.56 521.28 c 6
 254.4 523.2 266.88 524.16 272.64 523.2 c 4
 284.16 522.24 289.92 519.36 296.64 510.72 c 4
 307.2 497.28 311.04 480 309.12 449.28 c 4
 309.12 439.68 309.12 437.76 309.12 436.8 c 5
 310.08 436.8 312.96 436.8 317.76 436.8 c 4
 321.6 436.8 327.36 437.76 331.2 437.76 c 4
 340.8 437.76 352.32 438.72 358.08 438.72 c 4
 360.96 438.72 384 438.72 410.88 438.72 c 4
 436.8 438.72 457.92 439.68 457.92 439.68 c 6
 458.88 440.64 458.88 463.68 458.88 485.76 c 4
 458.88 486.72 458.88 487.68 457.92 488.64 c 4
 456 489.6 456 490.56 457.92 491.52 c 4
 458.88 492.48 458.88 492.48 458.88 496.32 c 4
 457.92 507.84 456.96 521.28 456 524.16 c 4
 455.04 526.08 455.04 530.88 454.08 532.8 c 4
 453.12 538.56 448.32 555.84 447.36 556.8 c 6
 446.4 557.76 l 6
 446.4 558.72 441.6 569.28 437.76 575.04 c 4
 435.84 576.96 430.08 585.6 428.16 588.48 c 4
 427.2 589.44 425.28 591.36 425.28 591.36 c 6
 425.28 592.32 423.36 593.28 422.4 595.2 c 4
 421.44 596.16 419.52 598.08 419.52 599.04 c 4
 417.6 600.96 406.08 612.48 401.28 616.32 c 4
 387.84 628.8 363.84 643.2 347.52 649.92 c 4
 344.64 650.88 342.72 651.84 341.76 651.84 c 4
 330.24 656.64 306.24 660.48 288 661.44 c 4
 277.44 662.4 275.52 662.4 266.88 661.44 c 4
 262.08 661.44 256.32 661.44 253.44 661.44 c 5
EndSplineSet
EndChar

StartChar: uni0048
Encoding: 72 72 17
Width: 507
VWidth: 0
Flags: HW
LayerCount: 2
Fore
SplineSet
86.4004 673.92 m 1
 86.4004 673.92 86.4004 662.4 86.4004 648.96 c 0
 86.4004 635.52 86.4004 623.04 86.4004 621.12 c 0
 86.4004 618.24 86.4004 606.72 86.4004 594.24 c 0
 86.4004 555.84 86.4004 501.12 86.4004 415.68 c 0
 86.4004 369.6 86.4004 328.32 86.4004 323.52 c 0
 86.4004 317.76 86.4004 302.4 86.4004 288.96 c 0
 85.4404 262.08 85.4404 199.68 85.4404 175.68 c 0
 85.4404 168 85.4404 152.64 85.4404 143.04 c 0
 84.4805 133.44 84.4805 119.04 84.4805 111.36 c 0
 84.4805 102.72 83.5195 87.3604 83.5195 74.8799 c 0
 82.5596 47.04 82.5596 10.5596 82.5596 5.75977 c 1
 83.5195 2.87988 83.5195 2.87988 86.4004 1.91992 c 1
 90.2402 1.91992 109.44 0.959961 111.36 0.959961 c 2
 111.36 0.959961 135.36 1.91992 164.16 1.91992 c 0
 192.96 1.91992 216 1.91992 216.96 1.91992 c 1
 216.96 2.87988 216.96 31.6797 216.96 68.1602 c 0
 216.96 130.56 216.96 133.44 217.92 133.44 c 0
 218.88 134.4 218.88 134.4 217.92 135.36 c 2
 216.96 137.28 l 2
 216.96 139.2 217.92 194.88 217.92 213.12 c 0
 217.92 218.88 217.92 230.4 218.88 237.12 c 0
 218.88 243.84 218.88 252.48 218.88 256.32 c 0
 218.88 259.2 219.84 263.04 219.84 264 c 0
 219.84 265.92 218.88 265.92 251.52 265.92 c 0
 292.8 264.96 292.8 264.96 292.8 263.04 c 0
 292.8 262.08 293.76 246.72 293.76 229.44 c 0
 293.76 212.16 293.76 191.04 293.76 181.44 c 0
 293.76 172.8 294.72 139.2 294.72 108.48 c 0
 294.72 17.2803 294.72 1.91992 295.68 1.91992 c 0
 296.64 0.959961 329.28 0 354.24 0 c 1
 362.88 0.959961 369.6 0 371.52 0 c 1
 372.48 -0.959961 422.4 0 423.36 0 c 1
 423.36 0.959961 423.36 2.87988 423.36 8.63965 c 0
 421.44 23.04 421.44 195.84 422.4 215.04 c 0
 422.4 222.72 423.36 232.32 422.4 246.72 c 1
 422.4 265.92 422.4 307.2 422.4 312 c 0
 422.4 312.96 423.36 355.2 423.36 405.12 c 0
 423.36 528 423.36 545.28 424.32 565.44 c 0
 425.28 608.64 426.24 671.04 425.28 672 c 0
 424.32 672 422.4 672.96 416.64 672.96 c 0
 411.84 672.96 408 672.96 408 672.96 c 2
 406.08 672.96 382.08 672.96 348.48 673.92 c 0
 336 673.92 323.52 673.92 319.68 673.92 c 0
 310.08 674.88 296.64 674.88 296.64 673.92 c 2
 296.64 673.92 295.68 663.36 295.68 656.64 c 0
 295.68 653.76 295.68 651.84 295.68 650.88 c 0
 295.68 647.04 295.68 638.4 295.68 638.4 c 1
 296.64 628.8 296.64 578.88 296.64 578.88 c 2
 296.64 577.92 296.64 577.92 296.64 577.92 c 1
 296.64 577.92 296.64 573.12 296.64 568.32 c 0
 296.64 562.56 296.64 558.72 297.6 558.72 c 1
 297.6 558.72 297.6 558.72 297.6 557.76 c 1
 296.64 557.76 296.64 547.2 297.6 547.2 c 1
 297.6 547.2 297.6 546.24 297.6 545.28 c 0
 296.64 544.32 296.64 535.68 297.6 529.92 c 0
 297.6 528 297.6 526.08 297.6 525.12 c 0
 296.64 524.16 296.64 523.2 297.6 523.2 c 1
 297.6 522.24 297.6 522.24 297.6 521.28 c 0
 296.64 520.32 296.64 520.32 296.64 519.36 c 1
 297.6 519.36 297.6 505.92 296.64 500.16 c 0
 296.64 497.28 296.64 494.4 297.6 493.44 c 1
 297.6 492.48 l 1
 296.64 492.48 296.64 486.72 296.64 480 c 0
 296.64 463.68 296.64 423.36 295.68 411.84 c 0
 295.68 401.28 295.68 399.36 294.72 399.36 c 0
 293.76 399.36 288.96 399.36 284.16 399.36 c 0
 278.4 398.4 268.8 398.4 263.04 398.4 c 0
 256.32 398.4 246.72 397.44 240.96 397.44 c 0
 228.48 397.44 220.8 397.44 220.8 397.44 c 2
 219.84 397.44 219.84 406.08 219.84 425.28 c 0
 219.84 440.64 218.88 464.64 218.88 480 c 0
 218.88 494.4 218.88 544.32 218.88 589.44 c 0
 218.88 668.16 218.88 672 217.92 672.96 c 0
 216.96 673.92 216.96 674.88 207.36 674.88 c 0
 201.6 674.88 192 674.88 186.24 674.88 c 0
 161.28 675.84 97.9199 675.84 92.1602 674.88 c 0
 89.2803 674.88 86.4004 673.92 86.4004 673.92 c 1
119.04 306.24 m 1
 119.04 306.24 119.04 306.24 119.04 307.2 c 1
 119.04 307.2 l 1
 120 307.2 l 1
 120 306.24 119.04 306.24 119.04 306.24 c 1
EndSplineSet
EndChar

StartChar: uni0049
Encoding: 73 73 18
Width: 309
VWidth: 0
Flags: HW
LayerCount: 2
Fore
SplineSet
139.2 679.68 m 0
 119.04 679.68 98.8799 679.68 95.04 679.68 c 0
 90.2402 679.68 87.3604 679.68 87.3604 678.72 c 1
 86.4004 678.72 86.4004 672 86.4004 577.92 c 0
 86.4004 537.6 86.4004 486.72 86.4004 464.64 c 0
 85.4404 409.92 85.4404 320.64 85.4404 303.36 c 0
 85.4404 294.72 85.4404 288.96 84.4805 288 c 0
 84.4805 287.04 84.4805 287.04 84.4805 287.04 c 1
 85.4404 286.08 85.4404 259.2 84.4805 159.36 c 0
 83.5195 78.7197 83.5195 63.3604 83.5195 34.5596 c 0
 83.5195 17.2803 83.5195 2.87988 83.5195 2.87988 c 1
 84.4805 1.91992 102.72 1.91992 126.72 1.91992 c 0
 149.76 1.91992 179.52 1.91992 192.96 1.91992 c 0
 208.32 0.959961 216.96 1.91992 216.96 1.91992 c 1
 217.92 2.87988 218.88 29.7598 218.88 67.2002 c 0
 218.88 78.7197 218.88 95.04 218.88 103.68 c 1
 219.84 111.36 219.84 132.48 219.84 149.76 c 0
 219.84 169.92 219.84 180.48 220.8 181.44 c 1
 220.8 183.36 220.8 184.32 220.8 185.28 c 0
 219.84 187.2 220.8 235.2 221.76 245.76 c 0
 221.76 248.64 221.76 251.52 221.76 252.48 c 0
 221.76 257.28 221.76 262.08 221.76 266.88 c 1
 222.72 269.76 222.72 271.68 221.76 272.64 c 0
 221.76 273.6 221.76 277.44 221.76 283.2 c 0
 221.76 288 221.76 300.48 222.72 311.04 c 1
 222.72 332.16 222.72 340.8 223.68 350.4 c 0
 223.68 353.28 223.68 357.12 223.68 359.04 c 0
 222.72 360.96 222.72 366.72 223.68 371.52 c 1
 223.68 377.28 223.68 385.92 223.68 390.72 c 0
 223.68 396.48 223.68 401.28 223.68 401.28 c 1
 224.64 401.28 224.64 402.24 223.68 402.24 c 1
 223.68 403.2 223.68 405.12 223.68 408 c 0
 224.64 410.88 223.68 412.8 223.68 412.8 c 2
 223.68 413.76 223.68 413.76 223.68 414.72 c 0
 223.68 415.68 223.68 419.52 223.68 424.32 c 0
 223.68 429.12 224.64 433.92 224.64 433.92 c 1
 224.64 433.92 224.64 434.88 224.64 435.84 c 0
 223.68 436.8 223.68 436.8 224.64 437.76 c 0
 224.64 438.72 224.64 438.72 224.64 439.68 c 1
 223.68 439.68 223.68 440.64 223.68 441.6 c 0
 224.64 443.52 224.64 445.44 224.64 446.4 c 0
 224.64 448.32 224.64 500.16 224.64 502.08 c 0
 225.6 504 225.6 511.68 225.6 512.64 c 0
 225.6 514.56 225.6 533.76 226.56 536.64 c 0
 226.56 538.56 226.56 539.52 226.56 540.48 c 0
 226.56 542.4 226.56 579.84 226.56 580.8 c 0
 226.56 581.76 226.56 582.72 226.56 583.68 c 1
 225.6 583.68 225.6 584.64 226.56 584.64 c 1
 226.56 585.6 226.56 591.36 226.56 598.08 c 0
 226.56 604.8 226.56 613.44 226.56 615.36 c 0
 227.52 621.12 227.52 622.08 227.52 632.64 c 0
 227.52 640.32 227.52 652.8 227.52 665.28 c 1
 228.48 668.16 228.48 670.08 228.48 671.04 c 1
 229.44 671.04 229.44 671.04 228.48 672 c 1
 228.48 672 228.48 673.92 228.48 676.8 c 0
 227.52 680.64 227.52 680.64 222.72 680.64 c 0
 220.8 680.64 217.92 680.64 217.92 680.64 c 1
 217.92 679.68 172.8 679.68 139.2 679.68 c 0
EndSplineSet
EndChar

StartChar: uni004A
Encoding: 74 74 19
Width: 519
VWidth: 0
Flags: HW
LayerCount: 2
Fore
SplineSet
207.36 659.52 m 1
 206.4 652.8 206.4 642.24 206.4 636.48 c 0
 206.4 630.72 206.4 618.24 206.4 608.64 c 0
 205.44 598.08 205.44 578.88 205.44 565.44 c 0
 205.44 548.16 205.44 541.44 205.44 541.44 c 1
 206.4 541.44 241.92 540.48 285.12 541.44 c 0
 291.84 541.44 297.6 541.44 298.56 540.48 c 2
 298.56 540.48 298.56 432 299.52 343.68 c 0
 299.52 305.28 298.56 267.84 298.56 263.04 c 1
 297.6 262.08 297.6 248.64 297.6 234.24 c 0
 296.64 196.8 295.68 193.92 292.8 185.28 c 0
 288 169.92 280.32 161.28 270.72 157.44 c 0
 269.76 157.44 268.8 156.48 267.84 155.52 c 1
 265.92 155.52 264 154.56 262.08 154.56 c 0
 260.16 154.56 259.2 153.6 258.24 153.6 c 0
 248.64 151.68 242.88 151.68 231.36 155.52 c 0
 224.64 157.44 216.96 163.2 215.04 167.04 c 0
 215.04 168 214.08 168.96 213.12 169.92 c 0
 212.16 171.84 209.28 178.56 209.28 180.48 c 2
 209.28 181.44 l 1
 208.32 181.44 208.32 183.36 207.36 190.08 c 0
 207.36 195.84 206.4 262.08 207.36 262.08 c 1
 207.36 262.08 207.36 263.04 207.36 264.96 c 0
 207.36 266.88 207.36 268.8 207.36 269.76 c 0
 207.36 270.72 207.36 271.68 207.36 271.68 c 1
 207.36 271.68 206.4 271.68 206.4 272.64 c 0
 206.4 273.6 206.4 273.6 192 273.6 c 0
 184.32 273.6 166.08 273.6 151.68 273.6 c 0
 105.6 274.56 70.0801 274.56 70.0801 274.56 c 1
 69.1201 272.64 69.1201 247.68 69.1201 216.96 c 0
 69.1201 186.24 70.0801 177.6 71.04 161.28 c 0
 72 159.36 72 155.52 72 153.6 c 0
 72 151.68 72 149.76 72.96 149.76 c 1
 72.96 148.8 72.96 146.88 72.96 145.92 c 0
 73.9199 136.32 76.7998 124.8 81.5996 108.48 c 0
 83.5195 102.72 90.2402 88.3203 93.1201 83.5195 c 0
 94.0801 82.5596 95.04 80.6396 95.04 80.6396 c 1
 95.04 80.6396 104.64 67.2002 107.52 63.3604 c 0
 111.36 57.5996 117.12 52.7998 122.88 47.04 c 0
 124.8 45.1201 127.68 43.2002 127.68 42.2402 c 0
 130.56 40.3203 134.4 36.4805 135.36 36.4805 c 2
 135.36 36.4805 136.32 36.4805 136.32 35.5195 c 0
 138.24 33.5996 147.84 26.8799 153.6 24 c 0
 155.52 23.04 157.44 22.0801 157.44 22.0801 c 2
 158.4 21.1201 160.32 20.1602 162.24 20.1602 c 0
 164.16 19.2002 167.04 18.2402 168.96 17.2803 c 0
 172.8 15.3604 178.56 13.4404 179.52 12.4805 c 0
 180.48 12.4805 180.48 12.4805 181.44 12.4805 c 0
 182.4 10.5596 207.36 4.7998 216.96 3.83984 c 0
 217.92 3.83984 221.76 2.87988 226.56 1.91992 c 0
 234.24 0.959961 252.48 0.959961 265.92 1.91992 c 0
 284.16 2.87988 314.88 9.59961 330.24 16.3203 c 0
 343.68 23.04 347.52 24.96 360 32.6396 c 0
 365.76 35.5195 377.28 45.1201 382.08 49.9199 c 0
 383.04 50.8799 384.96 52.7998 385.92 52.7998 c 1
 385.92 53.7598 391.68 59.5195 396.48 65.2803 c 0
 399.36 68.1602 409.92 83.5195 412.8 87.3604 c 0
 415.68 93.1201 419.52 100.8 422.4 106.56 c 0
 425.28 114.24 430.08 128.64 432 134.4 c 0
 432 135.36 432 136.32 432 136.32 c 2
 432 137.28 432.96 139.2 432.96 143.04 c 0
 432.96 144 433.92 146.88 434.88 148.8 c 0
 435.84 152.64 435.84 152.64 435.84 188.16 c 0
 435.84 219.84 435.84 224.64 436.8 224.64 c 2
 436.8 224.64 436.8 224.64 437.76 225.6 c 1
 437.76 225.6 437.76 225.6 436.8 225.6 c 0
 435.84 225.6 435.84 225.6 435.84 237.12 c 0
 435.84 273.6 436.8 394.56 436.8 464.64 c 0
 436.8 509.76 436.8 551.04 437.76 557.76 c 0
 437.76 563.52 437.76 591.36 437.76 619.2 c 2
 437.76 670.08 l 1
 381.12 670.08 l 2
 350.4 670.08 320.64 671.04 313.92 671.04 c 0
 308.16 671.04 296.64 671.04 288 671.04 c 0
 280.32 671.04 268.8 672 264 672 c 0
 258.24 672 248.64 672 240.96 672 c 0
 233.28 672 222.72 672.96 217.92 672.96 c 0
 210.24 672.96 208.32 672.96 208.32 672 c 1
 207.36 672 207.36 667.2 207.36 659.52 c 1
EndSplineSet
EndChar

StartChar: uni004B
Encoding: 75 75 20
Width: 583
VWidth: 0
Flags: HW
LayerCount: 2
Fore
SplineSet
211.2 678.72 m 4
 209.28 678.72 206.4 678.72 205.44 678.72 c 4
 201.6 678.72 158.4 677.76 145.92 677.76 c 4
 96 676.8 83.5195 675.84 82.5596 675.84 c 4
 81.5996 675.84 81.5996 620.16 83.5195 591.36 c 4
 83.5195 582.72 83.5195 574.08 83.5195 567.36 c 4
 83.5195 566.4 83.5195 563.52 84.4805 559.68 c 4
 84.4805 555.84 84.4805 539.52 85.4404 523.2 c 4
 85.4404 506.88 85.4404 490.56 85.4404 487.68 c 4
 85.4404 484.8 86.4004 476.16 86.4004 468.48 c 4
 86.4004 449.28 87.3604 436.8 87.3604 427.2 c 4
 88.3203 394.56 88.3203 206.4 87.3604 202.56 c 6
 87.3604 202.56 87.3604 193.92 86.4004 183.36 c 4
 86.4004 172.8 86.4004 161.28 86.4004 157.44 c 4
 86.4004 153.6 86.4004 136.32 85.4404 120 c 5
 85.4404 102.72 85.4404 86.4004 85.4404 81.5996 c 4
 85.4404 76.7998 85.4404 65.2803 84.4805 54.7197 c 5
 84.4805 37.4404 84.4805 17.2803 83.5195 5.75977 c 4
 83.5195 2.87988 83.5195 0.959961 83.5195 0.959961 c 5
 84.4805 0.959961 92.1602 0.959961 102.72 0.959961 c 4
 112.32 0.959961 121.92 0 123.84 0 c 4
 124.8 0 137.28 0 149.76 0 c 4
 163.2 0 180.48 -0.959961 189.12 -0.959961 c 4
 197.76 -0.959961 209.28 -0.959961 215.04 -0.959961 c 6
 224.64 -0.959961 l 5
 225.6 2.87988 l 6
 225.6 5.75977 225.6 9.59961 226.56 38.4004 c 4
 227.52 47.04 227.52 54.7197 227.52 56.6396 c 4
 227.52 58.5596 227.52 64.3203 227.52 70.0801 c 4
 227.52 75.8398 228.48 87.3604 228.48 95.04 c 4
 228.48 101.76 229.44 120.96 229.44 136.32 c 4
 229.44 151.68 230.4 168 230.4 173.76 c 4
 230.4 178.56 230.4 190.08 230.4 197.76 c 4
 230.4 206.4 231.36 216.96 231.36 221.76 c 4
 231.36 225.6 231.36 236.16 231.36 243.84 c 4
 232.32 265.92 233.28 279.36 234.24 279.36 c 6
 234.24 279.36 236.16 276.48 238.08 272.64 c 4
 239.04 270.72 240 265.92 241.92 262.08 c 4
 243.84 258.24 244.8 254.4 245.76 253.44 c 4
 245.76 252.48 247.68 248.64 249.6 243.84 c 4
 251.52 239.04 253.44 234.24 254.4 232.32 c 4
 255.36 229.44 260.16 219.84 264 210.24 c 4
 267.84 200.64 272.64 189.12 274.56 184.32 c 4
 278.4 174.72 279.36 172.8 281.28 168.96 c 4
 283.2 165.12 288.96 151.68 289.92 147.84 c 4
 290.88 145.92 291.84 144 291.84 143.04 c 4
 292.8 142.08 293.76 139.2 294.72 137.28 c 4
 295.68 134.4 297.6 129.6 298.56 127.68 c 4
 298.56 126.72 300.48 122.88 302.4 118.08 c 4
 304.32 113.28 307.2 107.52 308.16 105.6 c 4
 309.12 103.68 311.04 97.9199 312.96 94.0801 c 4
 313.92 90.2402 315.84 86.4004 315.84 86.4004 c 6
 315.84 85.4404 317.76 81.5996 319.68 77.7598 c 4
 320.64 73.9199 323.52 68.1602 325.44 64.3203 c 4
 328.32 55.6797 335.04 39.3604 336.96 34.5596 c 4
 337.92 32.6396 338.88 29.7598 339.84 28.7998 c 4
 339.84 27.8398 341.76 23.04 343.68 18.2402 c 4
 346.56 13.4404 348.48 6.71973 349.44 4.7998 c 4
 351.36 0 350.4 0.959961 373.44 0 c 4
 383.04 0 390.72 0 391.68 0 c 5
 391.68 -0.959961 397.44 -0.959961 398.4 -0.959961 c 4
 403.2 0 437.76 -0.959961 454.08 -1.91992 c 4
 460.8 -1.91992 465.6 -1.91992 493.44 -2.87988 c 4
 508.8 -2.87988 508.8 -2.87988 509.76 -1.91992 c 4
 510.72 0 510.72 0.959961 509.76 2.87988 c 4
 509.76 3.83984 508.8 5.75977 507.84 7.67969 c 4
 507.84 8.63965 505.92 11.5195 504.96 14.4004 c 4
 504 17.2803 503.04 20.1602 502.08 23.04 c 4
 499.2 30.7197 492.48 48 491.52 49.9199 c 4
 491.52 50.8799 490.56 51.8398 490.56 52.7998 c 4
 490.56 53.7598 489.6 55.6797 489.6 56.6396 c 4
 487.68 58.5596 484.8 66.2402 482.88 72.96 c 4
 481.92 75.8398 480 78.7197 480 80.6396 c 4
 477.12 87.3604 475.2 93.1201 472.32 99.8398 c 4
 470.4 104.64 468.48 108.48 468.48 109.44 c 4
 467.52 110.4 466.56 114.24 465.6 117.12 c 4
 463.68 120.96 461.76 124.8 461.76 127.68 c 5
 460.8 129.6 458.88 134.4 456.96 139.2 c 4
 451.2 154.56 449.28 158.4 449.28 158.4 c 6
 448.32 159.36 448.32 159.36 448.32 160.32 c 4
 448.32 162.24 444.48 169.92 443.52 172.8 c 4
 443.52 173.76 439.68 181.44 437.76 187.2 c 4
 437.76 189.12 435.84 192 434.88 193.92 c 4
 431.04 203.52 430.08 208.32 428.16 212.16 c 4
 427.2 215.04 425.28 218.88 425.28 219.84 c 4
 424.32 221.76 423.36 223.68 423.36 223.68 c 5
 423.36 223.68 423.36 224.64 422.4 225.6 c 4
 422.4 226.56 421.44 229.44 420.48 232.32 c 4
 418.56 235.2 417.6 238.08 417.6 239.04 c 4
 416.64 240 415.68 242.88 409.92 256.32 c 4
 408.96 259.2 408 261.12 408 262.08 c 4
 408 263.04 405.12 269.76 400.32 280.32 c 4
 399.36 282.24 398.4 285.12 398.4 286.08 c 4
 398.4 287.04 397.44 288.96 396.48 290.88 c 4
 395.52 292.8 394.56 295.68 393.6 296.64 c 4
 393.6 297.6 392.64 299.52 392.64 300.48 c 4
 391.68 301.44 391.68 303.36 390.72 303.36 c 5
 390.72 304.32 389.76 306.24 384 320.64 c 4
 382.08 324.48 380.16 329.28 379.2 331.2 c 4
 378.24 333.12 377.28 336 377.28 336.96 c 4
 376.32 338.88 375.36 340.8 374.4 341.76 c 5
 374.4 343.68 373.44 344.64 373.44 345.6 c 4
 373.44 346.56 372.48 347.52 372.48 348.48 c 4
 371.52 349.44 371.52 351.36 371.52 351.36 c 5
 371.52 351.36 370.56 352.32 369.6 353.28 c 4
 369.6 354.24 368.64 355.2 368.64 356.16 c 6
 368.64 356.16 367.68 360 365.76 362.88 c 4
 360.96 373.44 358.08 382.08 357.12 385.92 c 4
 356.16 387.84 355.2 390.72 355.2 391.68 c 4
 354.24 393.6 355.2 394.56 362.88 404.16 c 5
 366.72 407.04 372.48 412.8 375.36 416.64 c 4
 381.12 422.4 386.88 429.12 398.4 440.64 c 4
 400.32 443.52 404.16 446.4 405.12 447.36 c 4
 411.84 455.04 416.64 459.84 417.6 460.8 c 6
 417.6 460.8 419.52 463.68 421.44 465.6 c 4
 424.32 467.52 426.24 469.44 426.24 470.4 c 5
 427.2 470.4 427.2 470.4 427.2 470.4 c 5
 427.2 471.36 429.12 473.28 431.04 475.2 c 4
 432.96 477.12 435.84 480 436.8 481.92 c 4
 439.68 484.8 454.08 499.2 459.84 505.92 c 4
 461.76 507.84 466.56 512.64 469.44 516.48 c 4
 477.12 524.16 486.72 534.72 499.2 547.2 c 4
 517.44 565.44 516.48 564.48 514.56 566.4 c 4
 513.6 567.36 512.64 569.28 512.64 570.24 c 4
 508.8 575.04 504 581.76 502.08 584.64 c 4
 501.12 585.6 497.28 591.36 493.44 597.12 c 4
 489.6 601.92 486.72 606.72 486.72 606.72 c 6
 486.72 607.68 485.76 608.64 484.8 608.64 c 4
 483.84 610.56 482.88 611.52 480.96 614.4 c 4
 480 615.36 478.08 618.24 476.16 620.16 c 4
 475.2 622.08 473.28 624 473.28 624.96 c 6
 473.28 624.96 472.32 626.88 470.4 627.84 c 5
 469.44 629.76 467.52 632.64 466.56 634.56 c 4
 464.64 636.48 461.76 640.32 459.84 644.16 c 4
 457.92 647.04 455.04 650.88 453.12 652.8 c 4
 452.16 654.72 450.24 657.6 449.28 658.56 c 4
 448.32 660.48 445.44 663.36 443.52 667.2 c 4
 433.92 680.64 435.84 679.68 427.2 678.72 c 4
 418.56 678.72 419.52 679.68 409.92 668.16 c 4
 408 666.24 404.16 662.4 401.28 659.52 c 4
 398.4 656.64 394.56 651.84 392.64 649.92 c 4
 387.84 646.08 382.08 639.36 374.4 631.68 c 4
 368.64 625.92 365.76 623.04 352.32 608.64 c 4
 348.48 603.84 340.8 596.16 336.96 592.32 c 4
 332.16 587.52 327.36 581.76 324.48 578.88 c 4
 322.56 576.96 319.68 573.12 318.72 572.16 c 4
 316.8 571.2 313.92 567.36 310.08 563.52 c 4
 307.2 560.64 300.48 553.92 295.68 549.12 c 4
 290.88 544.32 282.24 534.72 275.52 528 c 4
 268.8 521.28 258.24 510.72 251.52 504 c 4
 244.8 496.32 238.08 489.6 235.2 486.72 c 4
 232.32 483.84 231.36 482.88 231.36 483.84 c 5
 230.4 483.84 230.4 488.64 230.4 495.36 c 4
 230.4 502.08 230.4 508.8 230.4 509.76 c 4
 229.44 530.88 229.44 652.8 230.4 664.32 c 4
 230.4 670.08 230.4 675.84 229.44 678.72 c 4
 228.48 679.68 226.56 679.68 218.88 678.72 c 4
 216 678.72 212.16 678.72 211.2 678.72 c 4
406.08 518.4 m 5
 406.08 518.4 l 5
 406.08 519.36 406.08 519.36 406.08 519.36 c 5
 406.08 519.36 407.04 519.36 407.04 518.4 c 5
 406.08 518.4 l 5
333.12 418.56 m 4
 334.08 419.52 334.08 419.52 334.08 419.52 c 5
 335.04 418.56 335.04 418.56 334.08 417.6 c 4
 333.12 417.6 333.12 417.6 333.12 418.56 c 4
431.04 53.7598 m 4
 430.08 53.7598 430.08 54.7197 431.04 55.6797 c 4
 432 56.6396 432.96 55.6797 432.96 54.7197 c 4
 432.96 53.7598 432 52.7998 431.04 53.7598 c 4
456 46.0801 m 4
 456 47.04 456 48 456 47.04 c 5
 456.96 47.04 456.96 47.04 456.96 46.0801 c 4
 456.96 44.1602 456 44.1602 456 46.0801 c 4
425.28 37.4404 m 4
 425.28 38.4004 427.2 40.3203 427.2 39.3604 c 6
 427.2 39.3604 427.2 38.4004 426.24 37.4404 c 4
 425.28 36.4805 425.28 36.4805 425.28 37.4404 c 4
374.4 35.5195 m 4
 373.44 35.5195 373.44 36.4805 374.4 37.4404 c 4
 375.36 39.3604 375.36 39.3604 376.32 38.4004 c 4
 377.28 36.4805 376.32 33.5996 374.4 35.5195 c 4
429.12 36.4805 m 4
 428.16 36.4805 428.16 38.4004 428.16 38.4004 c 5
 429.12 39.3604 431.04 38.4004 431.04 37.4404 c 4
 432 36.4805 430.08 35.5195 429.12 36.4805 c 4
398.4 36.4805 m 5
 398.4 36.4805 397.44 37.4404 398.4 37.4404 c 5
 398.4 38.4004 399.36 37.4404 399.36 36.4805 c 5
 399.36 36.4805 399.36 36.4805 398.4 36.4805 c 5
453.12 33.5996 m 4
 449.28 31.6797 448.32 31.6797 447.36 31.6797 c 4
 446.4 32.6396 446.4 33.5996 448.32 33.5996 c 4
 449.28 33.5996 449.28 34.5596 450.24 35.5195 c 4
 451.2 38.4004 451.2 38.4004 453.12 37.4404 c 4
 455.04 37.4404 455.04 35.5195 453.12 33.5996 c 4
438.72 34.5596 m 5
 438.72 33.5996 438.72 32.6396 438.72 32.6396 c 6
 438.72 30.7197 436.8 30.7197 435.84 31.6797 c 4
 434.88 33.5996 435.84 36.4805 437.76 36.4805 c 4
 439.68 36.4805 439.68 36.4805 439.68 35.5195 c 6
 439.68 35.5195 439.68 34.5596 438.72 34.5596 c 5
441.6 32.6396 m 6
 440.64 32.6396 439.68 32.6396 440.64 33.5996 c 4
 441.6 33.5996 442.56 33.5996 442.56 32.6396 c 5
 441.6 32.6396 l 6
417.6 28.7998 m 5
 417.6 28.7998 416.64 30.7197 417.6 31.6797 c 4
 418.56 31.6797 419.52 31.6797 419.52 30.7197 c 6
 419.52 30.7197 418.56 28.7998 417.6 28.7998 c 5
397.44 26.8799 m 4
 396.48 25.9199 396.48 25.9199 396.48 28.7998 c 4
 396.48 31.6797 397.44 31.6797 398.4 29.7598 c 4
 399.36 28.7998 398.4 27.8398 397.44 26.8799 c 4
386.88 24 m 6
 385.92 24 385.92 24 385.92 24.96 c 4
 385.92 25.9199 386.88 25.9199 387.84 24 c 5
 386.88 24 l 6
269.76 151.68 m 5
 269.76 151.68 269.76 151.68 269.76 152.64 c 5
 270.72 152.64 269.76 152.64 269.76 152.64 c 5
 268.8 152.64 268.8 152.64 268.8 152.64 c 5
 268.8 151.68 268.8 151.68 269.76 151.68 c 5
EndSplineSet
EndChar

StartChar: uni004C
Encoding: 76 76 21
Width: 462
VWidth: 0
Flags: HW
LayerCount: 2
Fore
SplineSet
85.4404 643.2 m 0
 85.4404 608.64 85.4404 603.84 85.4404 557.76 c 0
 85.4404 536.64 85.4404 515.52 85.4404 512.64 c 0
 85.4404 509.76 85.4404 504 85.4404 501.12 c 0
 85.4404 498.24 85.4404 489.6 85.4404 482.88 c 0
 85.4404 475.2 85.4404 468.48 85.4404 468.48 c 2
 85.4404 467.52 85.4404 464.64 85.4404 462.72 c 0
 85.4404 455.04 85.4404 444.48 85.4404 425.28 c 0
 85.4404 397.44 85.4404 386.88 85.4404 385.92 c 0
 85.4404 383.04 85.4404 371.52 85.4404 346.56 c 0
 85.4404 332.16 85.4404 320.64 85.4404 319.68 c 0
 85.4404 318.72 85.4404 315.84 85.4404 313.92 c 0
 85.4404 312 85.4404 310.08 85.4404 309.12 c 2
 85.4404 308.16 l 1
 84.4805 308.16 84.4805 308.16 84.4805 307.2 c 1
 85.4404 307.2 85.4404 301.44 85.4404 293.76 c 0
 85.4404 286.08 85.4404 280.32 85.4404 279.36 c 0
 85.4404 277.44 85.4404 260.16 85.4404 259.2 c 0
 85.4404 258.24 85.4404 254.4 85.4404 251.52 c 0
 85.4404 245.76 85.4404 238.08 85.4404 219.84 c 0
 85.4404 214.08 85.4404 207.36 85.4404 204.48 c 0
 85.4404 200.64 85.4404 194.88 85.4404 190.08 c 0
 85.4404 185.28 85.4404 181.44 85.4404 181.44 c 2
 85.4404 155.52 85.4404 57.5996 84.4805 56.6396 c 0
 84.4805 55.6797 84.4805 54.7197 84.4805 54.7197 c 1
 85.4404 53.7598 85.4404 47.04 85.4404 19.2002 c 0
 85.4404 5.75977 85.4404 3.83984 87.3604 4.7998 c 0
 88.3203 5.75977 119.04 4.7998 120 4.7998 c 2
 120.96 4.7998 l 1
 121.92 5.75977 157.44 5.75977 182.4 4.7998 c 0
 193.92 4.7998 204.48 4.7998 206.4 4.7998 c 0
 212.16 4.7998 240.96 3.83984 243.84 3.83984 c 0
 245.76 3.83984 253.44 2.87988 262.08 2.87988 c 0
 270.72 2.87988 277.44 2.87988 278.4 2.87988 c 2
 278.4 2.87988 289.92 1.91992 303.36 1.91992 c 0
 317.76 1.91992 334.08 1.91992 339.84 0.959961 c 0
 345.6 0.959961 351.36 0.959961 351.36 0.959961 c 2
 355.2 0.959961 376.32 0.959961 380.16 0.959961 c 0
 386.88 0 386.88 0 386.88 9.59961 c 1
 387.84 13.4404 387.84 21.1201 387.84 26.8799 c 0
 387.84 32.6396 388.8 45.1201 388.8 54.7197 c 1
 389.76 63.3604 389.76 73.9199 389.76 75.8398 c 0
 390.72 78.7197 390.72 86.4004 390.72 93.1201 c 0
 390.72 99.8398 390.72 105.6 390.72 106.56 c 1
 391.68 106.56 391.68 115.2 391.68 125.76 c 2
 391.68 145.92 l 1
 381.12 144.96 l 1
 358.08 144.96 276.48 145.92 273.6 145.92 c 0
 271.68 145.92 264.96 146.88 258.24 146.88 c 0
 251.52 146.88 242.88 146.88 238.08 147.84 c 1
 230.4 147.84 l 1
 230.4 155.52 l 2
 230.4 160.32 229.44 168 229.44 172.8 c 0
 229.44 177.6 229.44 186.24 228.48 192 c 0
 228.48 197.76 228.48 202.56 228.48 202.56 c 1
 227.52 203.52 228.48 320.64 228.48 340.8 c 1
 229.44 344.64 229.44 369.6 229.44 396.48 c 0
 229.44 422.4 229.44 443.52 230.4 444.48 c 1
 230.4 445.44 l 1
 229.44 445.44 229.44 451.2 229.44 457.92 c 1
 230.4 463.68 230.4 479.04 230.4 491.52 c 0
 230.4 504 230.4 520.32 230.4 527.04 c 0
 231.36 534.72 231.36 563.52 231.36 592.32 c 0
 231.36 620.16 231.36 648 231.36 653.76 c 0
 231.36 664.32 231.36 664.32 229.44 664.32 c 0
 228.48 664.32 224.64 664.32 222.72 664.32 c 0
 207.36 666.24 202.56 666.24 197.76 666.24 c 0
 194.88 666.24 192 667.2 190.08 667.2 c 0
 189.12 667.2 184.32 667.2 180.48 668.16 c 0
 176.64 668.16 169.92 668.16 167.04 668.16 c 0
 164.16 669.12 153.6 669.12 143.04 669.12 c 0
 132.48 670.08 118.08 670.08 111.36 670.08 c 0
 91.2002 671.04 87.3604 671.04 86.4004 670.08 c 0
 85.4404 670.08 85.4404 669.12 85.4404 643.2 c 0
EndSplineSet
EndChar

StartChar: uni004D
Encoding: 77 77 22
Width: 643
VWidth: 0
Flags: HW
LayerCount: 2
Fore
SplineSet
148.8 662.4 m 0
 84.4805 662.4 84.4805 662.4 83.5195 661.44 c 0
 82.5596 660.48 82.5596 657.6 82.5596 636.48 c 0
 82.5596 624 83.5195 596.16 83.5195 575.04 c 0
 83.5195 554.88 83.5195 533.76 83.5195 529.92 c 0
 83.5195 526.08 84.4805 511.68 84.4805 498.24 c 0
 84.4805 477.12 84.4805 473.28 84.4805 473.28 c 1
 85.4404 472.32 85.4404 472.32 85.4404 472.32 c 1
 84.4805 471.36 84.4805 443.52 84.4805 430.08 c 0
 84.4805 426.24 85.4404 398.4 85.4404 367.68 c 0
 85.4404 336.96 85.4404 296.64 85.4404 278.4 c 0
 85.4404 260.16 86.4004 235.2 86.4004 221.76 c 0
 86.4004 206.4 86.4004 197.76 86.4004 197.76 c 1
 86.4004 197.76 87.3604 197.76 87.3604 198.72 c 1
 87.3604 198.72 l 1
 87.3604 198.72 87.3604 197.76 86.4004 195.84 c 0
 86.4004 194.88 86.4004 192.96 86.4004 191.04 c 0
 86.4004 189.12 86.4004 159.36 86.4004 123.84 c 0
 86.4004 48.96 86.4004 46.0801 87.3604 46.0801 c 0
 88.3203 46.0801 88.3203 46.0801 88.3203 45.1201 c 1
 88.3203 45.1201 88.3203 45.1201 87.3604 45.1201 c 0
 86.4004 45.1201 86.4004 8.63965 87.3604 7.67969 c 0
 88.3203 6.71973 86.4004 6.71973 131.52 5.75977 c 0
 144 5.75977 144 5.75977 144 6.71973 c 0
 144 7.67969 144 7.67969 144.96 6.71973 c 0
 144.96 5.75977 144.96 5.75977 145.92 5.75977 c 0
 182.4 5.75977 196.8 4.7998 200.64 4.7998 c 0
 203.52 4.7998 205.44 4.7998 205.44 5.75977 c 1
 205.44 5.75977 205.44 5.75977 206.4 5.75977 c 1
 206.4 4.7998 209.28 4.7998 217.92 4.7998 c 0
 226.56 4.7998 229.44 4.7998 231.36 4.7998 c 1
 231.36 4.7998 231.36 38.4004 231.36 78.7197 c 0
 231.36 119.04 231.36 164.16 231.36 178.56 c 0
 231.36 223.68 231.36 302.4 230.4 318.72 c 0
 230.4 327.36 230.4 337.92 230.4 341.76 c 0
 230.4 350.4 230.4 350.4 231.36 347.52 c 1
 233.28 345.6 234.24 345.6 234.24 346.56 c 2
 234.24 346.56 235.2 346.56 235.2 345.6 c 0
 235.2 344.64 235.2 342.72 238.08 340.8 c 1
 239.04 338.88 242.88 335.04 244.8 332.16 c 0
 247.68 329.28 251.52 324.48 253.44 322.56 c 0
 255.36 320.64 257.28 317.76 258.24 316.8 c 0
 260.16 314.88 274.56 298.56 275.52 297.6 c 0
 275.52 296.64 276.48 296.64 276.48 295.68 c 0
 277.44 294.72 282.24 289.92 284.16 287.04 c 0
 285.12 285.12 287.04 283.2 291.84 277.44 c 0
 294.72 274.56 298.56 270.72 299.52 268.8 c 0
 301.44 266.88 305.28 263.04 308.16 259.2 c 0
 312.96 253.44 316.8 248.64 325.44 238.08 c 0
 327.36 236.16 329.28 233.28 330.24 232.32 c 0
 331.2 230.4 333.12 230.4 334.08 233.28 c 0
 335.04 235.2 339.84 243.84 343.68 249.6 c 0
 348.48 258.24 349.44 260.16 350.4 262.08 c 0
 352.32 264.96 353.28 266.88 357.12 273.6 c 0
 358.08 276.48 360 279.36 360.96 280.32 c 2
 360.96 280.32 361.92 282.24 362.88 283.2 c 0
 362.88 284.16 365.76 288.96 367.68 292.8 c 0
 370.56 296.64 372.48 300.48 372.48 300.48 c 1
 372.48 300.48 373.44 302.4 374.4 303.36 c 0
 375.36 305.28 376.32 307.2 377.28 308.16 c 0
 378.24 310.08 379.2 312 380.16 313.92 c 0
 384 321.6 384.96 323.52 387.84 327.36 c 0
 389.76 330.24 391.68 334.08 393.6 336 c 0
 394.56 337.92 396.48 340.8 397.44 341.76 c 0
 397.44 342.72 398.4 343.68 398.4 343.68 c 1
 398.4 343.68 402.24 349.44 403.2 351.36 c 0
 404.16 352.32 405.12 350.4 405.12 349.44 c 2
 405.12 349.44 405.12 349.44 406.08 348.48 c 1
 406.08 348.48 407.04 348.48 406.08 348.48 c 1
 405.12 348.48 405.12 346.56 406.08 338.88 c 0
 406.08 334.08 406.08 316.8 407.04 300.48 c 1
 407.04 283.2 407.04 258.24 408 245.76 c 0
 408.96 194.88 408.96 177.6 408.96 156.48 c 0
 408.96 143.04 408.96 127.68 409.92 120.96 c 1
 409.92 113.28 409.92 94.0801 410.88 77.7598 c 0
 411.84 21.1201 411.84 4.7998 411.84 2.87988 c 1
 412.8 1.91992 414.72 1.91992 414.72 1.91992 c 2
 414.72 2.87988 414.72 2.87988 415.68 2.87988 c 0
 416.64 2.87988 417.6 2.87988 417.6 1.91992 c 1
 417.6 1.91992 421.44 1.91992 422.4 1.91992 c 0
 423.36 2.87988 423.36 2.87988 423.36 2.87988 c 1
 424.32 1.91992 458.88 2.87988 471.36 2.87988 c 0
 476.16 2.87988 480.96 2.87988 480.96 2.87988 c 1
 480.96 2.87988 487.68 2.87988 494.4 2.87988 c 0
 502.08 2.87988 506.88 2.87988 506.88 2.87988 c 1
 507.84 1.91992 508.8 1.91992 508.8 2.87988 c 1
 508.8 2.87988 519.36 2.87988 534.72 2.87988 c 0
 553.92 2.87988 560.64 2.87988 560.64 3.83984 c 2
 560.64 3.83984 560.64 6.71973 560.64 10.5596 c 0
 560.64 14.4004 560.64 25.9199 560.64 36.4805 c 0
 560.64 46.0801 559.68 61.4404 559.68 70.0801 c 0
 559.68 78.7197 559.68 97.9199 559.68 112.32 c 0
 559.68 126.72 558.72 141.12 558.72 144 c 0
 558.72 146.88 558.72 159.36 558.72 171.84 c 0
 558.72 183.36 557.76 196.8 557.76 201.6 c 0
 557.76 213.12 557.76 234.24 556.8 259.2 c 1
 556.8 289.92 556.8 339.84 555.84 356.16 c 0
 555.84 362.88 555.84 379.2 555.84 392.64 c 0
 555.84 406.08 554.88 424.32 554.88 433.92 c 0
 554.88 442.56 554.88 464.64 554.88 482.88 c 0
 554.88 517.44 553.92 517.44 552.96 519.36 c 1
 552.96 519.36 552.96 519.36 553.92 519.36 c 0
 554.88 519.36 554.88 519.36 553.92 529.92 c 0
 553.92 536.64 553.92 546.24 553.92 552.96 c 0
 553.92 562.56 553.92 564.48 552.96 564.48 c 0
 552 565.44 552 565.44 552.96 565.44 c 0
 553.92 565.44 553.92 566.4 553.92 573.12 c 0
 553.92 577.92 553.92 598.08 553.92 618.24 c 0
 552.96 651.84 552.96 654.72 552.96 655.68 c 1
 552 655.68 546.24 655.68 540.48 655.68 c 0
 521.28 656.64 498.24 656.64 488.64 657.6 c 0
 484.8 657.6 478.08 657.6 474.24 657.6 c 0
 466.56 658.56 439.68 658.56 425.28 659.52 c 0
 416.64 659.52 400.32 659.52 399.36 659.52 c 1
 399.36 659.52 399.36 658.56 399.36 657.6 c 0
 399.36 656.64 399.36 654.72 399.36 654.72 c 1
 398.4 653.76 398.4 654.72 398.4 656.64 c 0
 398.4 659.52 398.4 659.52 396.48 659.52 c 0
 395.52 659.52 394.56 659.52 394.56 659.52 c 1
 394.56 658.56 385.92 644.16 382.08 636.48 c 0
 380.16 632.64 378.24 629.76 378.24 628.8 c 2
 378.24 628.8 377.28 626.88 375.36 624 c 0
 374.4 621.12 372.48 618.24 371.52 616.32 c 0
 370.56 614.4 368.64 611.52 366.72 608.64 c 0
 360.96 597.12 358.08 591.36 356.16 588.48 c 0
 355.2 586.56 355.2 584.64 355.2 584.64 c 1
 355.2 584.64 349.44 575.04 343.68 563.52 c 0
 336.96 551.04 331.2 539.52 329.28 537.6 c 0
 320.64 520.32 318.72 517.44 317.76 518.4 c 2
 317.76 518.4 312.96 526.08 311.04 528.96 c 0
 310.08 529.92 309.12 531.84 308.16 533.76 c 0
 307.2 535.68 306.24 536.64 306.24 537.6 c 2
 306.24 537.6 305.28 538.56 304.32 540.48 c 0
 303.36 541.44 302.4 543.36 302.4 543.36 c 1
 302.4 543.36 298.56 549.12 295.68 553.92 c 0
 294.72 555.84 292.8 558.72 291.84 560.64 c 0
 290.88 562.56 287.04 568.32 284.16 574.08 c 0
 280.32 579.84 275.52 588.48 272.64 593.28 c 0
 268.8 598.08 265.92 602.88 265.92 602.88 c 2
 264.96 603.84 264.96 604.8 264.96 604.8 c 1
 264.96 604.8 264 605.76 263.04 607.68 c 0
 262.08 608.64 262.08 610.56 262.08 610.56 c 1
 262.08 610.56 260.16 613.44 257.28 617.28 c 0
 251.52 627.84 236.16 653.76 236.16 653.76 c 1
 236.16 653.76 235.2 654.72 234.24 655.68 c 0
 233.28 656.64 232.32 658.56 232.32 659.52 c 0
 230.4 662.4 231.36 662.4 221.76 662.4 c 0
 217.92 662.4 214.08 662.4 214.08 662.4 c 1
 214.08 662.4 184.32 662.4 148.8 662.4 c 0
129.6 635.52 m 1
 129.6 635.52 129.6 635.52 129.6 636.48 c 1
 129.6 636.48 l 1
 130.56 635.52 l 1
 129.6 635.52 l 1
168.96 609.6 m 0
 168 610.56 168 610.56 168.96 610.56 c 0
 169.92 610.56 169.92 610.56 169.92 609.6 c 0
 169.92 608.64 168.96 608.64 168.96 609.6 c 0
235.2 598.08 m 1
 235.2 598.08 235.2 598.08 235.2 599.04 c 1
 235.2 599.04 l 1
 236.16 599.04 l 1
 236.16 598.08 236.16 598.08 235.2 598.08 c 1
547.2 521.28 m 1
 547.2 521.28 546.24 521.28 546.24 522.24 c 2
 546.24 523.2 l 1
 547.2 523.2 547.2 522.24 547.2 522.24 c 2
 547.2 521.28 547.2 521.28 547.2 521.28 c 1
324.48 507.84 m 1
 324.48 507.84 324.48 507.84 323.52 508.8 c 1
 323.52 508.8 323.52 509.76 324.48 509.76 c 1
 324.48 508.8 l 2
 324.48 507.84 324.48 507.84 324.48 507.84 c 1
369.6 491.52 m 1
 369.6 491.52 368.64 491.52 368.64 492.48 c 1
 368.64 492.48 368.64 492.48 369.6 492.48 c 2
 370.56 492.48 l 1
 370.56 491.52 369.6 491.52 369.6 491.52 c 1
143.04 480.96 m 1
 142.08 480.96 142.08 480.96 142.08 481.92 c 2
 142.08 481.92 142.08 482.88 143.04 482.88 c 1
 143.04 481.92 l 1
 143.04 480.96 l 1
95.04 473.28 m 1
 95.04 474.24 l 1
 95.04 474.24 l 1
 95.04 474.24 96 474.24 96 473.28 c 1
 95.04 473.28 l 1
324.48 450.24 m 1
 324.48 450.24 324.48 450.24 324.48 451.2 c 1
 324.48 451.2 l 1
 325.44 450.24 l 1
 324.48 450.24 l 1
480.96 383.04 m 1
 480.96 383.04 l 1
 480.96 384 l 1
 481.92 383.04 l 1
 480.96 383.04 l 1
519.36 353.28 m 1
 518.4 353.28 518.4 353.28 518.4 354.24 c 1
 519.36 354.24 519.36 354.24 519.36 353.28 c 1
 519.36 353.28 l 1
433.92 335.04 m 1
 432.96 335.04 432.96 335.04 432.96 336 c 1
 432.96 336 432.96 336 433.92 336 c 1
 433.92 336 433.92 336 433.92 335.04 c 1
 433.92 335.04 l 1
349.44 331.2 m 2
 348.48 331.2 l 1
 348.48 331.2 348.48 332.16 349.44 332.16 c 2
 350.4 331.2 l 1
 350.4 331.2 350.4 331.2 349.44 331.2 c 2
259.2 320.64 m 1
 259.2 320.64 259.2 320.64 259.2 321.6 c 2
 259.2 322.56 l 1
 260.16 321.6 l 1
 259.2 320.64 l 1
228.48 315.84 m 2
 228.48 315.84 227.52 316.8 227.52 317.76 c 1
 228.48 317.76 229.44 316.8 229.44 315.84 c 1
 229.44 315.84 229.44 315.84 228.48 315.84 c 2
490.56 286.08 m 1
 490.56 286.08 490.56 288 491.52 288 c 1
 491.52 287.04 l 1
 492.48 286.08 491.52 285.12 490.56 286.08 c 1
134.4 190.08 m 1
 134.4 190.08 134.4 190.08 134.4 191.04 c 1
 134.4 191.04 l 1
 134.4 191.04 135.36 191.04 135.36 190.08 c 1
 134.4 190.08 l 1
120.96 154.56 m 1
 120 154.56 120 155.52 120 155.52 c 1
 120 155.52 120 156.48 120.96 156.48 c 1
 120.96 155.52 l 2
 120.96 154.56 120.96 154.56 120.96 154.56 c 1
514.56 122.88 m 1
 513.6 122.88 513.6 124.8 513.6 124.8 c 2
 514.56 124.8 514.56 123.84 514.56 123.84 c 2
 514.56 122.88 514.56 122.88 514.56 122.88 c 1
EndSplineSet
EndChar

StartChar: uni004E
Encoding: 78 78 23
Width: 821
VWidth: 0
Flags: HW
LayerCount: 2
Fore
SplineSet
309.12 661.44 m 1
 308.16 661.44 308.16 624 309.12 546.24 c 0
 309.12 484.8 309.12 480.96 308.16 482.88 c 1
 306.24 483.84 298.56 496.32 282.24 524.16 c 0
 277.44 531.84 273.6 537.6 272.64 538.56 c 0
 270.72 542.4 263.04 554.88 263.04 554.88 c 1
 263.04 554.88 263.04 555.84 262.08 557.76 c 0
 260.16 559.68 236.16 600 235.2 600.96 c 0
 235.2 601.92 230.4 609.6 224.64 619.2 c 0
 205.44 650.88 204.48 653.76 202.56 656.64 c 0
 201.6 659.52 201.6 659.52 188.16 658.56 c 0
 180.48 658.56 172.8 658.56 171.84 658.56 c 0
 170.88 658.56 164.16 658.56 157.44 658.56 c 0
 149.76 657.6 136.32 657.6 127.68 657.6 c 0
 95.04 656.64 85.4404 656.64 85.4404 655.68 c 1
 84.4805 655.68 84.4805 650.88 85.4404 645.12 c 0
 85.4404 639.36 85.4404 602.88 85.4404 564.48 c 0
 85.4404 525.12 85.4404 491.52 86.4004 488.64 c 1
 86.4004 482.88 86.4004 261.12 86.4004 238.08 c 1
 85.4404 231.36 85.4404 176.64 85.4404 116.16 c 0
 85.4404 55.6797 85.4404 5.75977 84.4805 5.75977 c 1
 84.4805 5.75977 84.4805 3.83984 84.4805 1.91992 c 0
 84.4805 0 84.4805 -2.87988 83.5195 -3.83984 c 1
 83.5195 -6.71973 83.5195 -8.63965 85.4404 -9.59961 c 0
 86.4004 -9.59961 144.96 -10.5596 155.52 -9.59961 c 0
 157.44 -9.59961 164.16 -8.63965 170.88 -8.63965 c 0
 176.64 -8.63965 183.36 -8.63965 186.24 -8.63965 c 0
 188.16 -8.63965 199.68 -7.67969 210.24 -7.67969 c 0
 221.76 -6.71973 230.4 -6.71973 230.4 -6.71973 c 2
 231.36 -5.75977 230.4 122.88 229.44 157.44 c 0
 229.44 171.84 229.44 290.88 229.44 290.88 c 1
 234.24 286.08 l 2
 234.24 285.12 234.24 285.12 235.2 284.16 c 0
 236.16 282.24 243.84 271.68 244.8 269.76 c 0
 245.76 268.8 246.72 266.88 248.64 264.96 c 1
 249.6 262.08 251.52 260.16 252.48 259.2 c 0
 252.48 258.24 253.44 256.32 254.4 255.36 c 0
 254.4 254.4 256.32 252.48 257.28 251.52 c 0
 258.24 249.6 260.16 247.68 261.12 245.76 c 0
 262.08 243.84 264.96 239.04 266.88 236.16 c 0
 268.8 233.28 273.6 225.6 277.44 219.84 c 0
 281.28 214.08 284.16 209.28 284.16 208.32 c 1
 285.12 208.32 288 203.52 291.84 196.8 c 1
 296.64 191.04 300.48 185.28 301.44 184.32 c 0
 304.32 179.52 310.08 169.92 310.08 168.96 c 2
 310.08 168.96 311.04 168 311.04 167.04 c 0
 312.96 165.12 312.96 155.52 313.92 118.08 c 0
 313.92 108.48 313.92 97.9199 314.88 94.0801 c 1
 314.88 83.5195 314.88 32.6396 314.88 17.2803 c 0
 314.88 4.7998 314.88 -1.91992 314.88 -2.87988 c 2
 314.88 -2.87988 319.68 -2.87988 325.44 -1.91992 c 0
 330.24 -1.91992 338.88 -1.91992 343.68 -1.91992 c 0
 348.48 -1.91992 357.12 -0.959961 362.88 -0.959961 c 0
 368.64 -0.959961 377.28 0 383.04 0 c 0
 388.8 0 393.6 0 394.56 0 c 0
 395.52 0 396.48 0 397.44 0 c 0
 398.4 -0.959961 403.2 -0.959961 403.2 0 c 0
 404.16 0.959961 407.04 0.959961 420.48 0.959961 c 0
 435.84 1.91992 441.6 1.91992 444.48 1.91992 c 2
 447.36 2.87988 l 1
 447.36 31.6797 l 2
 447.36 48 447.36 65.2803 447.36 71.04 c 0
 447.36 83.5195 447.36 80.6396 447.36 99.8398 c 1
 446.4 109.44 446.4 121.92 446.4 127.68 c 0
 446.4 148.8 446.4 297.6 446.4 328.32 c 1
 447.36 338.88 447.36 365.76 448.32 372.48 c 0
 448.32 375.36 448.32 397.44 448.32 421.44 c 0
 448.32 448.32 448.32 463.68 448.32 463.68 c 1
 449.28 463.68 449.28 464.64 448.32 464.64 c 1
 448.32 465.6 448.32 564.48 448.32 593.28 c 0
 448.32 601.92 448.32 647.04 448.32 660.48 c 2
 448.32 662.4 l 1
 397.44 662.4 l 2
 369.6 662.4 338.88 662.4 328.32 662.4 c 0
 317.76 662.4 309.12 662.4 309.12 661.44 c 1
751.68 181.44 m 0
 751.68 172.8 752.64 175.68 752.64 192.96 c 0
 752.64 206.4 752.64 216.96 752.64 216.96 c 1
 751.68 216.96 751.68 211.2 751.68 204.48 c 0
 751.68 197.76 751.68 187.2 751.68 181.44 c 0
EndSplineSet
EndChar

StartChar: uni004F
Encoding: 79 79 24
Width: 532
VWidth: 0
Flags: HW
LayerCount: 2
Fore
SplineSet
252.48 667.2 m 0
 248.64 667.2 240.96 666.24 238.08 665.28 c 0
 236.16 665.28 235.2 665.28 234.24 665.28 c 0
 231.36 664.32 231.36 664.32 230.4 646.08 c 0
 230.4 637.44 230.4 622.08 230.4 611.52 c 0
 229.44 600.96 229.44 588.48 229.44 584.64 c 0
 229.44 579.84 229.44 569.28 229.44 559.68 c 0
 228.48 535.68 228.48 520.32 228.48 516.48 c 1
 227.52 513.6 227.52 511.68 228.48 511.68 c 0
 229.44 510.72 232.32 513.6 234.24 516.48 c 0
 243.84 532.8 265.92 541.44 283.2 535.68 c 0
 289.92 533.76 297.6 528.96 302.4 524.16 c 0
 311.04 516.48 311.04 512.64 311.04 451.2 c 0
 311.04 428.16 311.04 402.24 311.04 392.64 c 0
 310.08 377.28 310.08 370.56 311.04 356.16 c 0
 312 335.04 312 261.12 311.04 242.88 c 0
 311.04 236.16 311.04 225.6 310.08 219.84 c 1
 310.08 213.12 310.08 203.52 310.08 198.72 c 0
 309.12 168.96 308.16 165.12 306.24 161.28 c 0
 301.44 150.72 293.76 144.96 281.28 140.16 c 0
 275.52 138.24 262.08 138.24 255.36 140.16 c 0
 253.44 140.16 251.52 141.12 250.56 141.12 c 0
 246.72 142.08 239.04 145.92 235.2 149.76 c 0
 228.48 156.48 221.76 170.88 220.8 181.44 c 0
 219.84 192 219.84 226.56 221.76 260.16 c 0
 223.68 314.88 223.68 320.64 224.64 456 c 0
 224.64 491.52 224.64 529.92 224.64 541.44 c 0
 224.64 609.6 224.64 658.56 224.64 659.52 c 0
 223.68 660.48 204.48 654.72 192 649.92 c 0
 170.88 642.24 150.72 628.8 130.56 608.64 c 0
 104.64 581.76 93.1201 560.64 86.4004 528.96 c 0
 85.4404 526.08 85.4404 523.2 84.4805 523.2 c 1
 84.4805 522.24 84.4805 520.32 84.4805 518.4 c 0
 83.5195 516.48 83.5195 514.56 83.5195 513.6 c 0
 82.5596 512.64 81.5996 455.04 81.5996 427.2 c 0
 81.5996 424.32 81.5996 408.96 81.5996 391.68 c 0
 80.6396 374.4 80.6396 349.44 80.6396 336 c 0
 80.6396 322.56 79.6797 300.48 79.6797 286.08 c 0
 78.7197 235.2 78.7197 170.88 79.6797 165.12 c 0
 79.6797 161.28 80.6396 153.6 81.5996 147.84 c 0
 83.5195 133.44 83.5195 133.44 84.4805 133.44 c 1
 84.4805 132.48 84.4805 128.64 85.4404 124.8 c 0
 90.2402 96.96 107.52 66.2402 130.56 46.0801 c 0
 137.28 40.3203 146.88 32.6396 151.68 29.7598 c 0
 152.64 29.7598 153.6 28.7998 154.56 28.7998 c 0
 158.4 25.9199 164.16 23.04 171.84 19.2002 c 0
 172.8 18.2402 176.64 17.2803 178.56 16.3203 c 0
 179.52 15.3604 181.44 14.4004 182.4 14.4004 c 0
 183.36 14.4004 186.24 12.4805 191.04 11.5195 c 1
 194.88 9.59961 198.72 8.63965 199.68 8.63965 c 0
 200.64 8.63965 202.56 7.67969 203.52 7.67969 c 0
 206.4 6.71973 218.88 3.83984 225.6 2.87988 c 0
 228.48 2.87988 233.28 1.91992 236.16 1.91992 c 0
 248.64 0 278.4 0.959961 292.8 3.83984 c 0
 295.68 4.7998 299.52 4.7998 300.48 4.7998 c 0
 313.92 6.71973 335.04 12.4805 352.32 20.1602 c 0
 359.04 23.04 361.92 24 365.76 26.8799 c 1
 370.56 28.7998 377.28 33.5996 381.12 35.5195 c 1
 387.84 41.2803 392.64 45.1201 397.44 48.96 c 0
 400.32 51.8398 408 61.4404 414.72 69.1201 c 0
 417.6 72.96 420.48 76.7998 420.48 77.7598 c 0
 422.4 79.6797 431.04 96.96 433.92 103.68 c 0
 438.72 118.08 444.48 138.24 445.44 148.8 c 0
 445.44 151.68 446.4 163.2 447.36 168.96 c 0
 447.36 171.84 448.32 179.52 448.32 188.16 c 0
 448.32 204.48 449.28 264.96 449.28 267.84 c 0
 449.28 269.76 449.28 279.36 450.24 290.88 c 0
 450.24 301.44 450.24 312.96 450.24 315.84 c 0
 450.24 317.76 451.2 332.16 451.2 347.52 c 0
 451.2 362.88 451.2 378.24 452.16 383.04 c 0
 452.16 387.84 452.16 395.52 452.16 401.28 c 0
 452.16 407.04 452.16 417.6 452.16 424.32 c 0
 453.12 431.04 453.12 444.48 453.12 454.08 c 0
 453.12 464.64 454.08 478.08 454.08 485.76 c 0
 455.04 526.08 455.04 528 452.16 540.48 c 0
 443.52 576 419.52 609.6 385.92 631.68 c 0
 360.96 648.96 344.64 655.68 315.84 663.36 c 1
 296.64 667.2 273.6 669.12 260.16 668.16 c 0
 258.24 668.16 254.4 667.2 252.48 667.2 c 0
271.68 636.48 m 1
 272.64 637.44 l 2
 273.6 637.44 273.6 637.44 273.6 637.44 c 1
 273.6 636.48 272.64 635.52 271.68 636.48 c 1
411.84 456 m 1
 410.88 456 410.88 456.96 410.88 456.96 c 2
 409.92 458.88 410.88 458.88 411.84 457.92 c 1
 411.84 456 411.84 456 411.84 456 c 1
EndSplineSet
EndChar

StartChar: uni0050
Encoding: 80 80 25
Width: 800
VWidth: 0
Flags: HW
LayerCount: 2
Fore
SplineSet
106.56 661.44 m 0
 96.96 661.44 88.3203 660.48 88.3203 660.48 c 2
 87.3604 659.52 86.4004 647.04 86.4004 593.28 c 0
 86.4004 560.64 86.4004 532.8 86.4004 530.88 c 0
 85.4404 525.12 84.4805 312 84.4805 131.52 c 0
 84.4805 67.2002 84.4805 13.4404 84.4805 10.5596 c 0
 83.5195 0.959961 73.9199 1.91992 152.64 1.91992 c 0
 189.12 1.91992 220.8 1.91992 222.72 1.91992 c 2
 225.6 2.87988 l 1
 225.6 40.3203 l 2
 225.6 61.4404 225.6 122.88 225.6 176.64 c 0
 224.64 269.76 224.64 275.52 225.6 274.56 c 0
 226.56 273.6 227.52 273.6 237.12 273.6 c 0
 290.88 271.68 342.72 271.68 353.28 273.6 c 0
 365.76 276.48 382.08 281.28 390.72 285.12 c 0
 404.16 290.88 409.92 294.72 418.56 303.36 c 0
 435.84 321.6 446.4 346.56 448.32 371.52 c 0
 448.32 374.4 448.32 379.2 448.32 382.08 c 0
 449.28 384.96 449.28 390.72 449.28 396.48 c 0
 448.32 406.08 448.32 428.16 448.32 456 c 0
 447.36 498.24 447.36 516.48 447.36 538.56 c 1
 446.4 552 446.4 563.52 446.4 565.44 c 0
 446.4 571.2 438.72 592.32 433.92 601.92 c 0
 427.2 615.36 413.76 630.72 401.28 638.4 c 0
 400.32 639.36 398.4 640.32 396.48 641.28 c 0
 376.32 654.72 346.56 659.52 288 660.48 c 0
 276.48 660.48 258.24 660.48 246.72 660.48 c 0
 235.2 660.48 204.48 661.44 176.64 661.44 c 0
 149.76 661.44 127.68 661.44 126.72 661.44 c 2
 125.76 661.44 l 1
 125.76 661.44 117.12 661.44 106.56 661.44 c 0
181.44 652.8 m 1
 181.44 652.8 180.48 652.8 180.48 653.76 c 1
 180.48 653.76 l 1
 181.44 653.76 181.44 653.76 181.44 653.76 c 1
 181.44 652.8 181.44 652.8 181.44 652.8 c 1
225.6 517.44 m 1
 225.6 518.4 225.6 518.4 225.6 518.4 c 1
 225.6 517.44 l 1
 225.6 516.48 225.6 516.48 225.6 517.44 c 1
303.36 491.52 m 0
 306.24 478.08 306.24 444.48 303.36 429.12 c 0
 299.52 405.12 290.88 399.36 261.12 400.32 c 0
 221.76 401.28 226.56 402.24 226.56 393.6 c 1
 225.6 386.88 225.6 386.88 225.6 388.8 c 0
 224.64 390.72 224.64 509.76 225.6 510.72 c 0
 225.6 511.68 225.6 511.68 226.56 511.68 c 0
 227.52 511.68 226.56 511.68 236.16 512.64 c 0
 255.36 514.56 274.56 514.56 282.24 512.64 c 0
 293.76 510.72 301.44 503.04 303.36 491.52 c 0
125.76 454.08 m 1
 125.76 454.08 125.76 454.08 125.76 455.04 c 2
 125.76 456 l 1
 126.72 456 126.72 455.04 126.72 455.04 c 2
 126.72 454.08 126.72 454.08 125.76 454.08 c 1
122.88 450.24 m 0
 121.92 450.24 120.96 452.16 121.92 453.12 c 0
 122.88 454.08 123.84 454.08 124.8 453.12 c 0
 124.8 452.16 123.84 451.2 122.88 450.24 c 0
226.56 366.72 m 0
 225.6 360.96 224.64 365.76 225.6 372.48 c 0
 225.6 376.32 225.6 381.12 225.6 383.04 c 0
 225.6 384.96 225.6 386.88 225.6 386.88 c 1
 226.56 386.88 226.56 383.04 226.56 378.24 c 0
 226.56 374.4 226.56 368.64 226.56 366.72 c 0
225.6 316.8 m 2
 224.64 316.8 224.64 323.52 225.6 338.88 c 0
 225.6 350.4 225.6 360.96 225.6 361.92 c 0
 225.6 362.88 225.6 362.88 225.6 362.88 c 2
 225.6 361.92 226.56 357.12 226.56 350.4 c 0
 225.6 318.72 225.6 316.8 225.6 316.8 c 2
225.6 303.36 m 1
 224.64 303.36 224.64 312.96 225.6 313.92 c 1
 225.6 313.92 225.6 313.92 225.6 308.16 c 0
 225.6 305.28 225.6 303.36 225.6 303.36 c 1
225.6 297.6 m 1
 225.6 297.6 224.64 299.52 224.64 300.48 c 0
 224.64 301.44 225.6 302.4 225.6 301.44 c 2
 225.6 301.44 225.6 300.48 225.6 299.52 c 0
 225.6 298.56 225.6 297.6 225.6 297.6 c 1
225.6 288 m 1
 224.64 288.96 224.64 294.72 225.6 294.72 c 1
 225.6 294.72 225.6 292.8 225.6 291.84 c 0
 225.6 289.92 225.6 288 225.6 288 c 1
224.64 282.24 m 0
 224.64 285.12 225.6 287.04 225.6 287.04 c 1
 225.6 287.04 225.6 285.12 225.6 282.24 c 0
 225.6 275.52 224.64 275.52 224.64 282.24 c 0
748.8 5.75977 m 1
 750.72 6.71973 750.72 7.67969 748.8 7.67969 c 0
 747.84 7.67969 747.84 7.67969 747.84 6.71973 c 0
 747.84 5.75977 748.8 5.75977 748.8 5.75977 c 1
EndSplineSet
EndChar

StartChar: uni0051
Encoding: 81 81 26
Width: 626
VWidth: 0
Flags: HW
LayerCount: 2
Fore
SplineSet
204.48 649.92 m 0
 201.6 648 199.68 647.04 199.68 647.04 c 1
 199.68 647.04 191.04 641.28 187.2 638.4 c 0
 172.8 627.84 152.64 608.64 140.16 595.2 c 0
 138.24 592.32 135.36 589.44 135.36 589.44 c 1
 135.36 589.44 133.44 587.52 132.48 585.6 c 0
 130.56 583.68 128.64 580.8 126.72 578.88 c 0
 105.6 552 86.4004 513.6 80.6396 484.8 c 0
 78.7197 479.04 78.7197 478.08 78.7197 439.68 c 0
 78.7197 421.44 78.7197 406.08 77.7598 405.12 c 1
 77.7598 405.12 77.7598 404.16 77.7598 402.24 c 1
 78.7197 401.28 78.7197 315.84 78.7197 157.44 c 0
 78.7197 126.72 78.7197 119.04 79.6797 118.08 c 0
 79.6797 117.12 80.6396 115.2 80.6396 114.24 c 0
 84.4805 104.64 84.4805 102.72 89.2803 96 c 1
 99.8398 74.8799 124.8 48 144.96 34.5596 c 0
 146.88 33.5996 148.8 31.6797 149.76 30.7197 c 0
 150.72 30.7197 151.68 29.7598 151.68 29.7598 c 1
 151.68 29.7598 154.56 28.7998 156.48 26.8799 c 0
 175.68 16.3203 194.88 9.59961 220.8 4.7998 c 0
 225.6 3.83984 228.48 2.87988 240.96 1.91992 c 0
 245.76 0.959961 249.6 0.959961 259.2 0 c 0
 265.92 0 270.72 0 281.28 0.959961 c 0
 283.2 0.959961 286.08 1.91992 287.04 1.91992 c 0
 289.92 1.91992 294.72 2.87988 300.48 3.83984 c 0
 304.32 4.7998 309.12 5.75977 315.84 7.67969 c 0
 324.48 9.59961 325.44 9.59961 328.32 11.5195 c 1
 330.24 11.5195 332.16 12.4805 332.16 12.4805 c 2
 333.12 12.4805 333.12 12.4805 334.08 13.4404 c 2
 334.08 13.4404 336 14.4004 336.96 14.4004 c 0
 344.64 17.2803 362.88 26.8799 376.32 35.5195 c 0
 378.24 36.4805 381.12 38.4004 381.12 38.4004 c 1
 381.12 38.4004 388.8 43.2002 390.72 45.1201 c 0
 391.68 45.1201 392.64 46.0801 392.64 46.0801 c 1
 392.64 46.0801 393.6 46.0801 393.6 47.04 c 1
 394.56 47.04 394.56 47.04 395.52 47.04 c 0
 398.4 46.0801 405.12 40.3203 407.04 37.4404 c 0
 408 36.4805 410.88 33.5996 413.76 30.7197 c 0
 419.52 24 422.4 20.1602 428.16 12.4805 c 0
 434.88 2.87988 433.92 2.87988 442.56 5.75977 c 0
 443.52 6.71973 444.48 6.71973 445.44 6.71973 c 0
 446.4 6.71973 447.36 6.71973 447.36 7.67969 c 1
 448.32 7.67969 457.92 11.5195 472.32 16.3203 c 0
 476.16 17.2803 480.96 19.2002 482.88 20.1602 c 0
 488.64 22.0801 504.96 26.8799 507.84 27.8398 c 0
 508.8 27.8398 514.56 29.7598 519.36 30.7197 c 1
 523.2 32.6396 528 34.5596 528.96 34.5596 c 0
 529.92 34.5596 530.88 34.5596 530.88 34.5596 c 1
 531.84 35.5195 532.8 35.5195 533.76 35.5195 c 0
 534.72 36.4805 536.64 36.4805 536.64 37.4404 c 1
 538.56 37.4404 553.92 42.2402 554.88 42.2402 c 2
 554.88 42.2402 555.84 42.2402 557.76 43.2002 c 0
 559.68 44.1602 560.64 45.1201 558.72 46.0801 c 1
 558.72 46.0801 557.76 48 556.8 49.9199 c 0
 551.04 58.5596 527.04 94.0801 524.16 98.8799 c 0
 520.32 104.64 511.68 116.16 509.76 119.04 c 0
 505.92 123.84 501.12 130.56 499.2 133.44 c 0
 495.36 138.24 487.68 148.8 483.84 153.6 c 0
 479.04 160.32 475.2 165.12 476.16 165.12 c 1
 476.16 166.08 476.16 166.08 476.16 166.08 c 1
 475.2 166.08 475.2 166.08 476.16 178.56 c 0
 476.16 182.4 476.16 191.04 477.12 198.72 c 0
 477.12 205.44 478.08 214.08 478.08 218.88 c 0
 478.08 222.72 479.04 234.24 479.04 243.84 c 0
 480 258.24 480 267.84 481.92 300.48 c 0
 481.92 305.28 482.88 313.92 482.88 318.72 c 0
 483.84 333.12 484.8 344.64 484.8 353.28 c 0
 485.76 361.92 485.76 365.76 485.76 378.24 c 1
 486.72 381.12 486.72 385.92 486.72 387.84 c 0
 486.72 389.76 486.72 391.68 486.72 391.68 c 1
 486.72 391.68 487.68 398.4 487.68 406.08 c 0
 488.64 413.76 488.64 424.32 489.6 428.16 c 0
 490.56 448.32 490.56 452.16 491.52 463.68 c 0
 493.44 492.48 493.44 506.88 493.44 531.84 c 0
 493.44 555.84 493.44 566.4 490.56 581.76 c 0
 486.72 604.8 483.84 614.4 473.28 630.72 c 1
 462.72 645.12 442.56 663.36 428.16 671.04 c 0
 426.24 672 425.28 672.96 425.28 672.96 c 2
 424.32 673.92 424.32 673.92 423.36 673.92 c 2
 423.36 673.92 420.48 674.88 417.6 676.8 c 0
 394.56 688.32 367.68 693.12 338.88 691.2 c 0
 288 688.32 243.84 673.92 204.48 649.92 c 0
478.08 600.96 m 0
 477.12 601.92 477.12 602.88 478.08 601.92 c 0
 479.04 601.92 480 600.96 480 600.96 c 2
 480 600 478.08 600 478.08 600.96 c 0
348.48 523.2 m 0
 351.36 515.52 353.28 501.12 353.28 481.92 c 0
 353.28 470.4 353.28 463.68 354.24 440.64 c 0
 354.24 435.84 354.24 427.2 354.24 420.48 c 0
 354.24 413.76 355.2 405.12 355.2 402.24 c 0
 356.16 385.92 355.2 236.16 354.24 231.36 c 0
 354.24 229.44 355.2 229.44 343.68 231.36 c 0
 330.24 233.28 326.4 233.28 319.68 234.24 c 0
 299.52 236.16 272.64 236.16 264 235.2 c 0
 253.44 234.24 248.64 233.28 248.64 234.24 c 1
 247.68 234.24 247.68 247.68 247.68 264 c 0
 247.68 399.36 247.68 415.68 245.76 434.88 c 0
 244.8 448.32 245.76 456.96 246.72 456.96 c 1
 246.72 456 246.72 458.88 247.68 467.52 c 0
 247.68 470.4 247.68 473.28 248.64 475.2 c 0
 248.64 476.16 248.64 478.08 249.6 480.96 c 0
 249.6 482.88 249.6 485.76 250.56 486.72 c 1
 250.56 488.64 251.52 491.52 252.48 494.4 c 0
 252.48 497.28 253.44 499.2 253.44 500.16 c 0
 254.4 501.12 254.4 503.04 255.36 504 c 1
 255.36 505.92 256.32 507.84 257.28 509.76 c 0
 258.24 510.72 259.2 512.64 260.16 513.6 c 0
 262.08 517.44 266.88 526.08 267.84 527.04 c 2
 267.84 527.04 269.76 528.96 270.72 530.88 c 0
 277.44 539.52 289.92 547.2 303.36 551.04 c 0
 308.16 552 318.72 552 322.56 551.04 c 0
 332.16 547.2 344.64 534.72 348.48 523.2 c 0
EndSplineSet
EndChar

StartChar: uni0052
Encoding: 82 82 27
Width: 533
VWidth: 0
Flags: HW
LayerCount: 2
Fore
SplineSet
190.08 657.6 m 0
 109.44 657.6 87.3604 657.6 87.3604 656.64 c 1
 86.4004 656.64 86.4004 648.96 86.4004 624.96 c 0
 86.4004 607.68 86.4004 586.56 86.4004 576.96 c 0
 86.4004 562.56 85.4404 504 85.4404 492.48 c 0
 85.4404 490.56 85.4404 487.68 85.4404 487.68 c 1
 85.4404 487.68 85.4404 477.12 85.4404 464.64 c 0
 84.4805 424.32 84.4805 123.84 84.4805 113.28 c 0
 84.4805 112.32 84.4805 107.52 84.4805 100.8 c 0
 84.4805 94.0801 84.4805 78.7197 84.4805 67.2002 c 0
 84.4805 18.2402 84.4805 1.91992 85.4404 1.91992 c 2
 85.4404 1.91992 90.2402 0.959961 96 0.959961 c 0
 106.56 0.959961 105.6 0.959961 113.28 0.959961 c 0
 116.16 0.959961 143.04 1.91992 170.88 1.91992 c 0
 199.68 1.91992 222.72 1.91992 223.68 1.91992 c 1
 223.68 1.91992 223.68 4.7998 223.68 6.71973 c 0
 222.72 26.8799 223.68 277.44 224.64 278.4 c 0
 224.64 279.36 224.64 279.36 224.64 279.36 c 1
 223.68 280.32 224.64 411.84 225.6 434.88 c 0
 225.6 438.72 225.6 447.36 225.6 455.04 c 0
 225.6 461.76 226.56 469.44 226.56 471.36 c 0
 226.56 473.28 226.56 482.88 226.56 493.44 c 0
 227.52 510.72 227.52 512.64 227.52 512.64 c 2
 228.48 512.64 231.36 512.64 235.2 512.64 c 0
 242.88 513.6 276.48 513.6 282.24 513.6 c 1
 295.68 510.72 303.36 503.04 306.24 484.8 c 0
 308.16 472.32 307.2 425.28 304.32 415.68 c 0
 303.36 413.76 303.36 411.84 303.36 410.88 c 0
 303.36 409.92 302.4 408.96 302.4 408 c 1
 301.44 408 300.48 406.08 300.48 406.08 c 2
 300.48 405.12 299.52 403.2 298.56 402.24 c 0
 297.6 400.32 296.64 399.36 296.64 398.4 c 2
 296.64 398.4 296.64 397.44 295.68 397.44 c 0
 294.72 397.44 293.76 395.52 292.8 394.56 c 0
 286.08 387.84 274.56 385.92 251.52 386.88 c 0
 233.28 387.84 229.44 388.8 228.48 387.84 c 0
 227.52 387.84 227.52 382.08 227.52 343.68 c 0
 227.52 319.68 227.52 293.76 227.52 285.12 c 0
 227.52 267.84 227.52 267.84 229.44 268.8 c 0
 230.4 268.8 235.2 268.8 239.04 269.76 c 0
 242.88 269.76 249.6 269.76 252.48 270.72 c 0
 274.56 271.68 283.2 269.76 295.68 260.16 c 0
 301.44 255.36 306.24 248.64 308.16 241.92 c 0
 311.04 233.28 311.04 233.28 311.04 223.68 c 0
 311.04 194.88 311.04 141.12 310.08 102.72 c 0
 309.12 52.7998 309.12 2.87988 309.12 2.87988 c 1
 310.08 1.91992 443.52 1.91992 446.4 1.91992 c 1
 447.36 2.87988 447.36 2.87988 447.36 3.83984 c 0
 447.36 10.5596 448.32 59.5195 448.32 68.1602 c 0
 448.32 72.96 448.32 90.2402 448.32 106.56 c 0
 448.32 133.44 449.28 154.56 449.28 156.48 c 0
 450.24 164.16 450.24 210.24 448.32 229.44 c 0
 448.32 234.24 448.32 238.08 448.32 239.04 c 0
 448.32 240 448.32 241.92 447.36 242.88 c 2
 447.36 242.88 447.36 246.72 446.4 249.6 c 0
 444.48 258.24 441.6 266.88 437.76 273.6 c 0
 432 285.12 424.32 294.72 412.8 303.36 c 0
 408 306.24 405.12 309.12 405.12 310.08 c 2
 405.12 310.08 407.04 312 408.96 313.92 c 0
 425.28 329.28 435.84 343.68 441.6 358.08 c 0
 446.4 368.64 448.32 379.2 450.24 394.56 c 0
 450.24 395.52 450.24 398.4 450.24 399.36 c 0
 450.24 400.32 451.2 405.12 451.2 409.92 c 0
 451.2 414.72 451.2 420.48 452.16 421.44 c 1
 452.16 423.36 452.16 530.88 452.16 531.84 c 2
 452.16 531.84 451.2 534.72 451.2 538.56 c 0
 450.24 546.24 449.28 556.8 448.32 564.48 c 0
 441.6 599.04 421.44 627.84 392.64 642.24 c 0
 387.84 644.16 383.04 647.04 383.04 647.04 c 2
 382.08 647.04 381.12 647.04 380.16 648 c 0
 379.2 648 377.28 648.96 376.32 648.96 c 0
 375.36 648.96 373.44 649.92 371.52 649.92 c 0
 363.84 652.8 354.24 654.72 342.72 655.68 c 0
 337.92 656.64 336 656.64 336 657.6 c 0
 335.04 658.56 334.08 658.56 333.12 657.6 c 0
 333.12 656.64 328.32 656.64 190.08 657.6 c 0
184.32 577.92 m 0
 184.32 578.88 185.28 578.88 185.28 578.88 c 1
 186.24 577.92 186.24 577.92 185.28 576.96 c 0
 184.32 576.96 184.32 576.96 184.32 577.92 c 0
153.6 498.24 m 2
 152.64 498.24 152.64 498.24 152.64 499.2 c 1
 153.6 499.2 l 2
 154.56 499.2 154.56 499.2 154.56 499.2 c 1
 154.56 498.24 153.6 498.24 153.6 498.24 c 2
274.56 283.2 m 1
 274.56 284.16 274.56 284.16 274.56 283.2 c 1
 275.52 282.24 274.56 282.24 274.56 282.24 c 2
 274.56 281.28 273.6 282.24 274.56 283.2 c 1
453.12 384 m 1
 453.12 384 453.12 384 453.12 384.96 c 2
 453.12 385.92 l 1
 452.16 385.92 452.16 384.96 452.16 384.96 c 2
 452.16 384 452.16 384 453.12 384 c 1
EndSplineSet
EndChar

StartChar: uni0053
Encoding: 83 83 28
Width: 521
VWidth: 0
Flags: HW
LayerCount: 2
Fore
SplineSet
177.6 651.84 m 0
 173.76 650.88 170.88 648.96 161.28 643.2 c 0
 144 633.6 124.8 616.32 109.44 596.16 c 0
 96 578.88 86.4004 555.84 84.4805 535.68 c 0
 84.4805 533.76 83.5195 530.88 83.5195 528.96 c 0
 82.5596 523.2 81.5996 519.36 81.5996 455.04 c 0
 81.5996 404.16 81.5996 398.4 82.5596 396.48 c 2
 82.5596 396.48 83.5195 394.56 83.5195 392.64 c 0
 85.4404 384 90.2402 371.52 94.0801 362.88 c 0
 101.76 345.6 119.04 330.24 141.12 320.64 c 0
 149.76 315.84 158.4 312 159.36 312 c 2
 159.36 312 161.28 311.04 163.2 310.08 c 0
 167.04 309.12 169.92 307.2 176.64 306.24 c 1
 187.2 302.4 201.6 298.56 214.08 293.76 c 0
 254.4 279.36 261.12 277.44 281.28 266.88 c 0
 284.16 264.96 289.92 261.12 292.8 259.2 c 0
 294.72 257.28 295.68 256.32 295.68 256.32 c 2
 296.64 255.36 297.6 254.4 298.56 253.44 c 0
 298.56 252.48 300.48 251.52 300.48 250.56 c 0
 304.32 246.72 306.24 227.52 304.32 212.16 c 0
 303.36 209.28 303.36 204.48 302.4 201.6 c 0
 302.4 198.72 302.4 195.84 301.44 193.92 c 0
 301.44 192 301.44 189.12 301.44 188.16 c 0
 298.56 164.16 283.2 147.84 263.04 145.92 c 0
 246.72 144.96 236.16 147.84 225.6 156.48 c 1
 216.96 165.12 216 170.88 216 202.56 c 0
 216 214.08 216 223.68 215.04 223.68 c 1
 215.04 224.64 190.08 224.64 168 223.68 c 0
 154.56 222.72 124.8 221.76 107.52 221.76 c 1
 91.2002 220.8 81.5996 220.8 81.5996 219.84 c 1
 80.6396 219.84 80.6396 210.24 81.5996 197.76 c 0
 81.5996 192 81.5996 181.44 81.5996 174.72 c 0
 83.5195 112.32 85.4404 96 98.8799 74.8799 c 0
 109.44 56.6396 137.28 32.6396 160.32 21.1201 c 0
 176.64 13.4404 209.28 3.83984 226.56 0.959961 c 0
 228.48 0.959961 231.36 0.959961 233.28 0.959961 c 0
 252.48 -2.87988 292.8 -0.959961 313.92 3.83984 c 1
 348.48 13.4404 375.36 28.7998 401.28 54.7197 c 0
 421.44 74.8799 431.04 92.1602 437.76 119.04 c 0
 438.72 123.84 439.68 124.8 439.68 138.24 c 0
 439.68 147.84 440.64 228.48 439.68 245.76 c 1
 439.68 245.76 439.68 259.2 439.68 273.6 c 0
 439.68 295.68 439.68 301.44 439.68 302.4 c 1
 438.72 302.4 437.76 305.28 437.76 308.16 c 1
 436.8 310.08 435.84 313.92 434.88 316.8 c 0
 432 327.36 427.2 336 421.44 344.64 c 0
 420.48 346.56 418.56 347.52 418.56 348.48 c 0
 416.64 351.36 407.04 360.96 402.24 363.84 c 0
 386.88 376.32 360.96 387.84 321.6 399.36 c 0
 319.68 400.32 315.84 401.28 314.88 402.24 c 1
 312.96 402.24 307.2 404.16 300.48 406.08 c 0
 261.12 418.56 238.08 429.12 228.48 437.76 c 0
 224.64 441.6 221.76 448.32 219.84 454.08 c 0
 218.88 458.88 218.88 473.28 219.84 480 c 0
 223.68 505.92 225.6 512.64 233.28 521.28 c 0
 249.6 539.52 290.88 534.72 303.36 514.56 c 0
 307.2 507.84 307.2 507.84 307.2 485.76 c 0
 307.2 475.2 308.16 466.56 308.16 465.6 c 0
 308.16 464.64 308.16 464.64 330.24 464.64 c 1
 341.76 465.6 372.48 465.6 396.48 465.6 c 2
 441.6 465.6 l 1
 441.6 474.24 l 2
 441.6 479.04 441.6 491.52 441.6 502.08 c 0
 441.6 517.44 441.6 520.32 441.6 523.2 c 1
 440.64 525.12 439.68 528.96 437.76 540.48 c 0
 433.92 562.56 429.12 576 415.68 595.2 c 0
 408 607.68 396.48 620.16 386.88 628.8 c 0
 355.2 655.68 320.64 669.12 277.44 671.04 c 0
 270.72 671.04 265.92 671.04 264.96 671.04 c 2
 264.96 671.04 264 671.04 262.08 671.04 c 0
 227.52 669.12 205.44 664.32 177.6 651.84 c 0
88.3203 4.7998 m 1
 88.3203 4.7998 l 1
 88.3203 5.75977 88.3203 5.75977 88.3203 5.75977 c 1
 87.3604 5.75977 l 1
 88.3203 4.7998 l 1
89.2803 2.87988 m 1
 89.2803 2.87988 89.2803 2.87988 89.2803 3.83984 c 0
 89.2803 4.7998 88.3203 4.7998 88.3203 3.83984 c 2
 88.3203 3.83984 88.3203 2.87988 89.2803 2.87988 c 1
EndSplineSet
EndChar

StartChar: uni0054
Encoding: 84 84 29
Width: 456
VWidth: 0
Flags: HW
LayerCount: 2
Fore
SplineSet
169.92 680.64 m 0
 167.04 680.64 151.68 680.64 135.36 680.64 c 0
 118.08 680.64 99.8398 681.6 93.1201 681.6 c 0
 74.8799 682.56 42.2402 681.6 41.2803 680.64 c 0
 40.3203 680.64 40.3203 672 40.3203 634.56 c 0
 40.3203 609.6 39.3604 581.76 39.3604 573.12 c 0
 39.3604 552.96 38.4004 554.88 46.0801 554.88 c 0
 64.3203 555.84 130.56 556.8 130.56 555.84 c 0
 131.52 554.88 132.48 434.88 131.52 379.2 c 0
 131.52 358.08 131.52 267.84 131.52 202.56 c 0
 131.52 187.2 131.52 173.76 131.52 173.76 c 1
 131.52 173.76 130.56 157.44 130.56 137.28 c 1
 131.52 118.08 131.52 101.76 130.56 100.8 c 1
 130.56 87.3604 131.52 0.959961 131.52 0 c 1
 132.48 0 162.24 -0.959961 202.56 -0.959961 c 0
 261.12 -0.959961 270.72 0 271.68 0 c 0
 272.64 0.959961 272.64 0.959961 272.64 29.7598 c 0
 272.64 45.1201 272.64 60.4805 272.64 62.4004 c 0
 272.64 64.3203 272.64 83.5195 273.6 104.64 c 0
 273.6 125.76 273.6 150.72 273.6 161.28 c 0
 273.6 171.84 274.56 202.56 274.56 229.44 c 0
 274.56 308.16 274.56 350.4 275.52 373.44 c 0
 275.52 384.96 275.52 409.92 275.52 428.16 c 0
 275.52 445.44 276.48 462.72 276.48 465.6 c 0
 276.48 473.28 276.48 514.56 276.48 517.44 c 0
 275.52 527.04 275.52 550.08 276.48 552.96 c 0
 277.44 553.92 285.12 554.88 337.92 554.88 c 1
 381.12 555.84 386.88 555.84 387.84 555.84 c 0
 388.8 556.8 388.8 559.68 389.76 577.92 c 0
 389.76 580.8 389.76 585.6 389.76 588.48 c 0
 389.76 591.36 390.72 598.08 390.72 603.84 c 0
 390.72 608.64 390.72 614.4 390.72 615.36 c 2
 390.72 615.36 391.68 621.12 391.68 625.92 c 0
 391.68 630.72 391.68 637.44 391.68 639.36 c 0
 391.68 642.24 392.64 648.96 392.64 655.68 c 0
 392.64 662.4 393.6 670.08 393.6 672.96 c 0
 393.6 676.8 393.6 678.72 392.64 679.68 c 1
 392.64 679.68 383.04 679.68 336 679.68 c 0
 305.28 679.68 266.88 679.68 250.56 679.68 c 0
 195.84 679.68 194.88 679.68 194.88 678.72 c 1
 194.88 678.72 l 1
 193.92 678.72 l 1
 193.92 679.68 193.92 679.68 185.28 680.64 c 0
 177.6 680.64 176.64 680.64 175.68 681.6 c 0
 175.68 682.56 175.68 682.56 174.72 681.6 c 0
 172.8 679.68 172.8 679.68 169.92 680.64 c 0
EndSplineSet
EndChar

StartChar: uni0055
Encoding: 85 85 30
Width: 530
VWidth: 0
Flags: HW
LayerCount: 2
Fore
SplineSet
81.5996 635.52 m 0
 81.5996 606.72 81.5996 531.84 81.5996 296.64 c 0
 81.5996 218.88 81.5996 152.64 81.5996 150.72 c 0
 82.5596 144.96 82.5596 141.12 83.5195 138.24 c 0
 84.4805 137.28 85.4404 134.4 85.4404 131.52 c 0
 86.4004 128.64 87.3604 125.76 87.3604 125.76 c 2
 87.3604 124.8 88.3203 121.92 89.2803 119.04 c 0
 92.1602 112.32 95.04 103.68 97.9199 98.8799 c 0
 100.8 92.1602 104.64 85.4404 106.56 84.4805 c 0
 106.56 83.5195 107.52 82.5596 107.52 82.5596 c 1
 107.52 79.6797 130.56 52.7998 140.16 45.1201 c 0
 142.08 43.2002 144 42.2402 144 41.2803 c 1
 144.96 41.2803 147.84 39.3604 150.72 37.4404 c 0
 153.6 35.5195 157.44 32.6396 159.36 31.6797 c 0
 178.56 16.3203 217.92 1.91992 242.88 1.91992 c 0
 246.72 1.91992 250.56 0.959961 251.52 0.959961 c 0
 258.24 -0.959961 280.32 0.959961 295.68 2.87988 c 0
 298.56 3.83984 301.44 4.7998 302.4 4.7998 c 0
 303.36 4.7998 305.28 4.7998 305.28 4.7998 c 1
 306.24 5.75977 309.12 6.71973 311.04 6.71973 c 0
 349.44 17.2803 391.68 41.2803 411.84 64.3203 c 0
 415.68 69.1201 420.48 74.8799 420.48 75.8398 c 1
 421.44 75.8398 422.4 78.7197 424.32 80.6396 c 0
 428.16 85.4404 432 92.1602 434.88 96.96 c 0
 441.6 109.44 445.44 123.84 447.36 139.2 c 0
 448.32 143.04 448.32 145.92 448.32 145.92 c 2
 449.28 146.88 448.32 211.2 448.32 231.36 c 0
 448.32 260.16 447.36 379.2 447.36 434.88 c 0
 447.36 465.6 447.36 491.52 447.36 491.52 c 1
 447.36 491.52 447.36 494.4 447.36 498.24 c 0
 447.36 503.04 446.4 606.72 446.4 646.08 c 2
 446.4 664.32 l 1
 379.2 664.32 l 2
 327.36 664.32 311.04 664.32 310.08 663.36 c 1
 310.08 663.36 310.08 645.12 310.08 529.92 c 0
 310.08 456.96 310.08 386.88 310.08 375.36 c 0
 310.08 285.12 310.08 284.16 311.04 248.64 c 0
 312 212.16 311.04 175.68 309.12 175.68 c 0
 308.16 175.68 307.2 173.76 306.24 170.88 c 0
 301.44 161.28 295.68 154.56 287.04 148.8 c 0
 277.44 142.08 261.12 138.24 250.56 141.12 c 0
 233.28 145.92 222.72 156.48 218.88 174.72 c 0
 217.92 180.48 217.92 167.04 217.92 302.4 c 0
 217.92 366.72 217.92 419.52 217.92 419.52 c 1
 216.96 421.44 216.96 547.2 217.92 623.04 c 0
 217.92 645.12 217.92 663.36 217.92 663.36 c 1
 216.96 664.32 82.5596 664.32 81.5996 663.36 c 1
 81.5996 663.36 81.5996 657.6 81.5996 635.52 c 0
EndSplineSet
EndChar

StartChar: uni0056
Encoding: 86 86 31
Width: 541
VWidth: 0
Flags: HW
LayerCount: 2
Fore
SplineSet
449.28 669.12 m 0
 440.64 669.12 432 668.16 429.12 668.16 c 0
 427.2 668.16 419.52 668.16 412.8 668.16 c 0
 405.12 668.16 396.48 667.2 392.64 667.2 c 0
 389.76 667.2 374.4 667.2 360 667.2 c 0
 327.36 666.24 330.24 667.2 330.24 663.36 c 1
 329.28 662.4 328.32 658.56 328.32 655.68 c 0
 326.4 647.04 325.44 642.24 322.56 629.76 c 0
 321.6 623.04 319.68 615.36 318.72 613.44 c 1
 318.72 610.56 317.76 604.8 316.8 601.92 c 0
 315.84 598.08 314.88 594.24 314.88 592.32 c 1
 313.92 591.36 313.92 588.48 313.92 588.48 c 2
 313.92 587.52 312.96 584.64 312.96 581.76 c 1
 311.04 577.92 310.08 569.28 307.2 558.72 c 1
 307.2 554.88 306.24 550.08 305.28 548.16 c 0
 305.28 546.24 304.32 543.36 303.36 541.44 c 0
 303.36 539.52 302.4 535.68 302.4 534.72 c 0
 301.44 528.96 296.64 507.84 294.72 500.16 c 0
 293.76 496.32 292.8 492.48 292.8 491.52 c 0
 292.8 489.6 291.84 483.84 289.92 478.08 c 0
 288.96 472.32 287.04 465.6 286.08 461.76 c 0
 286.08 458.88 285.12 456 285.12 455.04 c 2
 285.12 455.04 284.16 453.12 284.16 451.2 c 0
 283.2 448.32 282.24 444.48 282.24 442.56 c 0
 281.28 439.68 279.36 432 278.4 425.28 c 0
 276.48 417.6 275.52 411.84 275.52 410.88 c 0
 274.56 408.96 270.72 392.64 268.8 384 c 0
 268.8 382.08 267.84 379.2 267.84 377.28 c 0
 266.88 375.36 266.88 371.52 265.92 368.64 c 0
 264.96 366.72 264.96 363.84 264.96 363.84 c 1
 264.96 363.84 264 360.96 263.04 358.08 c 0
 262.08 351.36 261.12 347.52 260.16 347.52 c 2
 260.16 347.52 258.24 353.28 257.28 358.08 c 0
 257.28 359.04 255.36 365.76 253.44 372.48 c 0
 252.48 379.2 248.64 393.6 246.72 403.2 c 0
 243.84 412.8 241.92 421.44 241.92 421.44 c 2
 241.92 422.4 240.96 423.36 240.96 424.32 c 0
 240 427.2 229.44 470.4 226.56 480 c 0
 224.64 487.68 222.72 496.32 216.96 517.44 c 0
 216 521.28 214.08 527.04 214.08 529.92 c 0
 211.2 542.4 209.28 548.16 208.32 551.04 c 0
 207.36 555.84 192.96 614.4 189.12 629.76 c 0
 188.16 634.56 186.24 642.24 185.28 646.08 c 0
 184.32 648.96 183.36 653.76 183.36 655.68 c 0
 181.44 663.36 181.44 662.4 179.52 663.36 c 1
 172.8 663.36 38.4004 663.36 32.6396 663.36 c 0
 29.7598 663.36 29.7598 663.36 29.7598 660.48 c 0
 30.7197 656.64 30.7197 655.68 31.6797 654.72 c 0
 32.6396 648.96 34.5596 644.16 34.5596 643.2 c 0
 34.5596 642.24 34.5596 640.32 35.5195 638.4 c 0
 35.5195 636.48 37.4404 631.68 38.4004 626.88 c 1
 40.3203 623.04 41.2803 617.28 42.2402 615.36 c 0
 42.2402 613.44 44.1602 607.68 45.1201 602.88 c 0
 46.0801 598.08 48 592.32 48.96 590.4 c 1
 48.96 587.52 49.9199 584.64 49.9199 583.68 c 0
 51.8398 576.96 52.7998 571.2 54.7197 567.36 c 0
 54.7197 565.44 55.6797 562.56 55.6797 561.6 c 0
 55.6797 560.64 56.6396 558.72 56.6396 557.76 c 0
 56.6396 556.8 57.5996 553.92 58.5596 552.96 c 0
 62.4004 538.56 66.2402 522.24 67.2002 516.48 c 0
 68.1602 515.52 68.1602 513.6 69.1201 512.64 c 0
 69.1201 511.68 69.1201 510.72 69.1201 509.76 c 0
 69.1201 508.8 70.0801 506.88 70.0801 505.92 c 0
 71.04 504 72 502.08 72 502.08 c 2
 72 500.16 72 498.24 72.96 495.36 c 0
 73.9199 493.44 75.8398 487.68 75.8398 485.76 c 2
 75.8398 484.8 l 1
 76.7998 483.84 77.7598 478.08 77.7598 477.12 c 2
 77.7598 477.12 77.7598 476.16 78.7197 476.16 c 1
 78.7197 476.16 78.7197 474.24 78.7197 473.28 c 0
 78.7197 472.32 78.7197 471.36 79.6797 471.36 c 1
 79.6797 470.4 80.6396 468.48 80.6396 466.56 c 0
 81.5996 464.64 82.5596 461.76 82.5596 460.8 c 0
 83.5195 458.88 84.4805 455.04 85.4404 452.16 c 1
 85.4404 448.32 86.4004 444.48 87.3604 442.56 c 0
 88.3203 440.64 89.2803 435.84 90.2402 432 c 0
 91.2002 428.16 92.1602 424.32 93.1201 422.4 c 0
 93.1201 421.44 93.1201 420.48 93.1201 419.52 c 2
 93.1201 419.52 93.1201 419.52 94.0801 418.56 c 0
 94.0801 417.6 96 409.92 97.9199 404.16 c 0
 98.8799 400.32 98.8799 397.44 99.8398 396.48 c 1
 99.8398 394.56 101.76 390.72 101.76 389.76 c 0
 101.76 386.88 104.64 377.28 105.6 374.4 c 0
 105.6 373.44 106.56 371.52 107.52 369.6 c 0
 107.52 367.68 108.48 363.84 109.44 360.96 c 0
 110.4 359.04 110.4 356.16 110.4 355.2 c 0
 110.4 354.24 111.36 353.28 111.36 352.32 c 0
 112.32 351.36 112.32 350.4 112.32 350.4 c 2
 112.32 349.44 113.28 346.56 114.24 343.68 c 0
 115.2 340.8 116.16 337.92 116.16 336.96 c 2
 116.16 336.96 116.16 335.04 116.16 334.08 c 0
 117.12 333.12 118.08 331.2 118.08 329.28 c 0
 119.04 327.36 120 323.52 120 321.6 c 0
 121.92 316.8 125.76 301.44 126.72 295.68 c 0
 127.68 292.8 128.64 289.92 129.6 286.08 c 0
 130.56 284.16 131.52 281.28 131.52 280.32 c 0
 131.52 278.4 132.48 275.52 133.44 273.6 c 0
 138.24 255.36 141.12 244.8 142.08 240 c 0
 143.04 237.12 143.04 234.24 144 234.24 c 1
 144 233.28 144.96 230.4 144.96 228.48 c 0
 145.92 226.56 145.92 223.68 146.88 222.72 c 0
 146.88 221.76 148.8 216.96 148.8 215.04 c 0
 148.8 214.08 148.8 213.12 149.76 212.16 c 0
 149.76 211.2 150.72 209.28 150.72 208.32 c 0
 151.68 205.44 152.64 198.72 154.56 194.88 c 0
 154.56 192.96 155.52 190.08 155.52 188.16 c 0
 156.48 186.24 157.44 182.4 157.44 180.48 c 0
 159.36 174.72 160.32 171.84 160.32 170.88 c 0
 160.32 169.92 161.28 168 161.28 166.08 c 0
 162.24 163.2 163.2 160.32 164.16 158.4 c 0
 164.16 156.48 164.16 154.56 165.12 154.56 c 1
 165.12 153.6 165.12 152.64 166.08 151.68 c 1
 166.08 148.8 167.04 144 168 142.08 c 0
 168 141.12 168.96 137.28 169.92 134.4 c 0
 172.8 123.84 172.8 123.84 173.76 120.96 c 0
 174.72 120 175.68 115.2 175.68 114.24 c 0
 175.68 113.28 175.68 111.36 176.64 110.4 c 1
 176.64 108.48 177.6 106.56 177.6 106.56 c 2
 177.6 105.6 177.6 104.64 177.6 104.64 c 1
 178.56 104.64 179.52 98.8799 181.44 92.1602 c 0
 181.44 91.2002 182.4 88.3203 182.4 87.3604 c 0
 183.36 85.4404 183.36 84.4805 183.36 83.5195 c 2
 183.36 83.5195 184.32 81.5996 185.28 78.7197 c 0
 185.28 75.8398 186.24 73.9199 186.24 72.96 c 0
 187.2 72 188.16 65.2803 189.12 62.4004 c 0
 189.12 60.4805 190.08 58.5596 190.08 57.5996 c 0
 191.04 56.6396 191.04 55.6797 191.04 54.7197 c 0
 191.04 53.7598 191.04 52.7998 192 52.7998 c 1
 192 51.8398 192.96 47.04 193.92 43.2002 c 0
 193.92 41.2803 194.88 39.3604 194.88 39.3604 c 2
 195.84 38.4004 195.84 36.4805 195.84 35.5195 c 0
 196.8 33.5996 196.8 30.7197 199.68 23.04 c 0
 200.64 21.1201 201.6 16.3203 203.52 10.5596 c 1
 204.48 3.83984 205.44 1.91992 206.4 1.91992 c 0
 209.28 0.959961 316.8 1.91992 321.6 1.91992 c 1
 324.48 2.87988 323.52 0.959961 327.36 19.2002 c 0
 328.32 23.04 329.28 27.8398 330.24 30.7197 c 0
 331.2 36.4805 332.16 37.4404 334.08 48 c 0
 335.04 50.8799 336 55.6797 336 57.5996 c 0
 337.92 64.3203 341.76 83.5195 343.68 92.1602 c 0
 344.64 94.0801 345.6 98.8799 346.56 102.72 c 0
 347.52 106.56 348.48 110.4 348.48 111.36 c 0
 348.48 112.32 349.44 117.12 353.28 132.48 c 0
 354.24 138.24 356.16 145.92 358.08 152.64 c 0
 359.04 155.52 363.84 178.56 365.76 186.24 c 0
 366.72 188.16 366.72 192 367.68 193.92 c 0
 368.64 195.84 368.64 197.76 369.6 203.52 c 0
 369.6 204.48 370.56 208.32 371.52 212.16 c 0
 372.48 215.04 373.44 218.88 373.44 220.8 c 1
 374.4 221.76 374.4 223.68 375.36 226.56 c 0
 375.36 228.48 376.32 231.36 376.32 233.28 c 0
 377.28 235.2 378.24 238.08 378.24 240 c 0
 379.2 241.92 379.2 243.84 379.2 244.8 c 0
 380.16 245.76 380.16 248.64 381.12 252.48 c 0
 385.92 270.72 387.84 278.4 387.84 281.28 c 1
 388.8 283.2 391.68 294.72 395.52 312.96 c 0
 397.44 319.68 399.36 327.36 399.36 329.28 c 1
 400.32 330.24 401.28 335.04 402.24 338.88 c 0
 403.2 342.72 404.16 348.48 405.12 352.32 c 0
 406.08 356.16 408 363.84 408.96 370.56 c 1
 410.88 376.32 411.84 382.08 412.8 384 c 0
 412.8 385.92 413.76 389.76 414.72 392.64 c 0
 417.6 405.12 421.44 422.4 422.4 424.32 c 0
 422.4 426.24 426.24 440.64 427.2 447.36 c 0
 428.16 449.28 429.12 454.08 430.08 456.96 c 1
 430.08 460.8 432 465.6 432 468.48 c 0
 433.92 475.2 435.84 485.76 437.76 492.48 c 0
 438.72 494.4 438.72 498.24 439.68 500.16 c 0
 439.68 502.08 441.6 508.8 443.52 515.52 c 0
 444.48 521.28 446.4 528.96 447.36 532.8 c 0
 447.36 535.68 449.28 539.52 449.28 542.4 c 1
 450.24 544.32 451.2 550.08 452.16 555.84 c 0
 454.08 561.6 455.04 567.36 456 570.24 c 0
 456 572.16 456.96 576 457.92 577.92 c 1
 457.92 580.8 458.88 584.64 458.88 586.56 c 0
 461.76 598.08 464.64 606.72 465.6 612.48 c 0
 466.56 615.36 467.52 620.16 467.52 622.08 c 0
 468.48 624 468.48 627.84 469.44 630.72 c 0
 470.4 635.52 472.32 642.24 474.24 650.88 c 0
 475.2 653.76 476.16 659.52 477.12 662.4 c 0
 478.08 665.28 478.08 668.16 478.08 669.12 c 1
 478.08 669.12 478.08 669.12 472.32 669.12 c 0
 468.48 669.12 465.6 669.12 465.6 669.12 c 1
 465.6 669.12 458.88 669.12 449.28 669.12 c 0
79.6797 465.6 m 1
 80.6396 465.6 80.6396 466.56 79.6797 466.56 c 1
 79.6797 466.56 l 1
 79.6797 465.6 79.6797 465.6 79.6797 465.6 c 1
EndSplineSet
EndChar

StartChar: uni0057
Encoding: 87 87 32
Width: 711
VWidth: 0
Flags: HW
LayerCount: 2
Fore
SplineSet
-31.1211 649.803 m 2
 -31.1211 648.657 -31.1211 647.512 -31.1211 647.512 c 1
 -29.9756 646.367 -26.5391 634.909 -25.3936 626.89 c 0
 -24.248 624.598 -21.957 618.87 -20.8115 614.289 c 0
 -17.374 602.831 -13.9365 593.665 -12.791 589.083 c 0
 -11.6455 585.647 -10.5 581.062 -9.35449 577.626 c 0
 -7.06348 571.898 -2.47949 555.86 0.957031 545.548 c 0
 2.10254 542.111 3.24805 538.673 3.24805 538.673 c 1
 3.24805 538.673 3.24805 538.673 3.24805 537.528 c 2
 3.24805 537.528 7.83008 522.635 11.2676 512.323 c 0
 12.4131 510.031 13.5586 506.595 13.5586 505.449 c 0
 14.7051 503.158 14.7051 502.013 14.7051 500.866 c 0
 15.8506 497.43 19.2871 489.411 19.2871 487.119 c 1
 20.4326 485.974 21.5781 482.536 22.7236 477.953 c 0
 23.8701 474.517 26.1621 468.787 26.1621 466.498 c 0
 27.3076 463.06 29.5986 456.187 31.8896 449.312 c 0
 34.1816 442.438 36.4717 435.564 37.6172 433.273 c 0
 37.6172 430.981 39.9092 427.545 39.9092 425.253 c 0
 46.7832 403.486 50.2197 392.028 50.2197 392.028 c 2
 51.3652 392.028 51.3652 392.028 51.3652 390.883 c 2
 51.3652 390.883 51.3652 388.592 52.5117 386.3 c 0
 52.5117 385.155 54.8037 379.426 55.9492 375.99 c 0
 59.3857 364.533 62.8232 355.368 62.8232 355.368 c 1
 62.8232 354.221 l 2
 62.8232 353.075 63.9688 349.639 66.2588 345.058 c 0
 67.4043 341.62 68.5508 338.182 68.5508 337.037 c 2
 68.5508 335.892 l 1
 68.5508 335.892 69.6963 334.745 69.6963 333.6 c 0
 69.6963 332.455 69.6963 331.309 69.6963 331.309 c 1
 70.8418 330.163 71.9883 326.727 71.9883 324.434 c 0
 73.1338 320.997 74.2793 318.707 74.2793 318.707 c 1
 74.2793 318.707 l 1
 74.2793 317.562 75.4248 315.27 75.4248 312.979 c 0
 78.8613 301.521 82.2988 291.21 83.4453 287.774 c 0
 84.5908 285.482 85.7363 283.19 85.7363 283.19 c 2
 85.7363 282.045 85.7363 282.045 85.7363 280.899 c 0
 85.7363 279.754 88.0273 275.172 88.0273 275.172 c 2
 88.0273 274.025 89.1729 270.589 91.4648 266.006 c 0
 92.6104 261.423 93.7559 256.841 94.9004 254.549 c 0
 94.9004 252.258 96.0459 249.967 96.0459 248.82 c 2
 96.0459 248.82 96.0459 247.675 97.1924 246.53 c 0
 98.3389 245.384 98.3389 244.238 98.3389 244.238 c 2
 98.3389 243.093 98.3389 241.947 99.4834 240.802 c 2
 99.4834 240.802 100.629 237.364 100.629 236.219 c 0
 101.775 233.927 102.921 230.49 102.921 228.199 c 0
 104.066 225.907 104.066 223.616 104.066 222.471 c 2
 105.212 221.325 l 2
 106.357 221.325 106.357 220.18 106.357 219.033 c 0
 106.357 217.889 108.649 211.014 109.794 209.867 c 0
 109.794 208.723 109.794 208.723 109.794 207.577 c 2
 109.794 207.577 110.939 204.141 112.087 200.702 c 0
 114.378 193.829 120.105 174.353 121.252 172.061 c 0
 121.252 170.915 123.541 164.042 123.541 162.896 c 0
 124.688 161.75 124.688 158.313 126.98 152.584 c 0
 128.125 149.147 129.271 144.565 130.417 142.273 c 0
 131.562 138.837 132.707 134.255 133.854 130.818 c 0
 134.999 127.381 136.145 122.798 136.145 121.652 c 0
 137.291 120.506 137.291 118.216 138.436 115.924 c 0
 138.436 114.778 139.581 112.487 139.581 111.34 c 2
 139.581 111.34 140.729 109.05 140.729 107.904 c 0
 141.874 102.177 143.02 99.8848 143.02 98.7402 c 1
 144.165 98.7402 144.165 95.3018 145.311 93.0107 c 0
 146.457 90.7188 147.602 84.9912 149.894 79.2627 c 0
 151.039 74.6807 152.184 68.9521 153.33 66.6602 c 0
 153.33 64.3691 154.476 62.0771 154.476 62.0771 c 1
 154.476 62.0771 l 1
 154.476 60.9316 155.621 56.3496 157.912 51.7656 c 0
 157.912 49.4756 159.059 46.0391 160.204 41.4561 c 0
 161.35 38.0186 162.495 34.582 162.495 32.29 c 1
 163.641 31.1445 164.786 26.5625 164.786 24.2695 c 2
 164.786 24.2695 165.933 21.9785 167.077 18.543 c 0
 167.077 15.1064 168.223 10.5225 169.37 9.37695 c 1
 169.37 7.08594 170.516 4.79395 170.516 3.64844 c 0
 172.807 -0.933594 169.37 -0.933594 212.905 -0.933594 c 0
 285.082 -0.933594 291.955 -0.933594 291.955 -0.933594 c 1
 291.955 -0.933594 293.101 1.35742 293.101 3.64844 c 0
 294.247 5.94043 295.392 9.37695 296.538 11.6689 c 0
 297.685 12.8145 298.83 17.3975 299.976 19.6885 c 0
 301.121 23.124 302.267 25.416 302.267 25.416 c 1
 302.267 25.416 l 1
 302.267 26.5625 304.557 32.29 306.849 39.1641 c 0
 314.868 58.6406 314.868 60.9316 318.306 70.0977 c 0
 320.597 74.6807 321.742 79.2627 322.889 80.4072 c 2
 322.889 80.4072 324.033 82.6982 325.18 84.9912 c 0
 326.326 90.7188 329.763 97.5938 329.763 98.7402 c 2
 329.763 98.7402 329.763 98.7402 329.763 99.8848 c 2
 329.763 99.8848 332.055 105.613 334.344 112.487 c 0
 340.072 126.235 340.072 126.235 342.365 131.964 c 0
 343.51 134.255 344.656 136.546 344.656 136.546 c 1
 344.656 136.546 344.656 137.691 344.656 138.837 c 0
 345.802 139.981 351.53 156.022 353.82 162.896 c 0
 356.113 168.624 358.404 173.207 359.55 173.207 c 2
 359.55 173.207 360.696 169.771 362.985 165.188 c 0
 367.568 149.147 369.86 142.273 371.007 138.837 c 0
 371.007 137.691 372.151 135.4 372.151 135.4 c 1
 372.151 135.4 l 1
 372.151 134.255 372.151 131.964 379.025 109.05 c 0
 381.316 103.322 382.462 98.7402 382.462 97.5938 c 0
 382.462 96.4473 387.046 82.6982 388.191 78.1172 c 0
 389.338 73.5342 396.21 50.6201 399.648 36.873 c 0
 400.793 34.582 401.939 29.999 401.939 28.8535 c 0
 403.085 27.708 403.085 25.416 403.085 24.2695 c 2
 403.085 24.2695 404.23 20.833 405.376 17.3975 c 0
 406.521 13.96 407.667 9.37695 408.813 5.94043 c 0
 411.104 -2.0791 409.958 -0.933594 420.27 -2.0791 c 0
 424.852 -2.0791 430.58 -2.0791 432.872 -2.0791 c 0
 436.309 -2.0791 438.6 -2.0791 438.6 -2.0791 c 2
 439.745 -2.0791 443.183 -2.0791 446.62 -2.0791 c 0
 450.058 -2.0791 464.95 -2.0791 478.699 -2.0791 c 0
 493.592 -2.0791 506.194 -2.0791 507.34 -2.0791 c 0
 508.486 -3.22559 509.632 -3.22559 509.632 -2.0791 c 1
 509.632 -2.0791 510.776 -2.0791 511.922 -2.0791 c 0
 513.068 -2.0791 515.359 -2.0791 515.359 -2.0791 c 2
 516.505 -2.0791 522.233 -0.933594 525.67 -0.933594 c 0
 547.438 0.211914 546.293 0.211914 546.293 2.50293 c 1
 547.438 3.64844 548.583 9.37695 549.729 15.1064 c 1
 552.021 19.6885 553.166 24.2695 553.166 25.416 c 1
 553.166 25.416 l 1
 553.166 26.5625 554.312 29.999 557.749 43.7471 c 0
 558.896 48.3301 560.041 52.9111 561.187 56.3496 c 0
 562.332 58.6406 562.332 60.9316 563.478 62.0771 c 1
 563.478 62.0771 l 1
 563.478 62.0771 563.478 64.3691 563.478 65.5146 c 0
 564.623 66.6602 565.77 72.3887 566.914 78.1172 c 0
 571.498 95.3018 572.643 97.5938 572.643 97.5938 c 2
 572.643 98.7402 572.643 98.7402 572.643 98.7402 c 1
 572.643 98.7402 572.643 101.03 573.788 103.322 c 0
 574.935 104.467 574.935 107.904 574.935 109.05 c 0
 576.08 111.34 576.08 113.632 577.225 114.778 c 1
 577.225 117.069 578.371 121.652 579.517 125.089 c 0
 582.953 135.4 582.953 135.4 582.953 135.4 c 1
 582.953 135.4 582.953 135.4 582.953 136.546 c 2
 582.953 136.546 582.953 138.837 584.101 139.981 c 0
 584.101 141.129 585.246 144.565 586.391 148.002 c 0
 586.391 150.294 588.683 156.022 589.828 160.605 c 0
 590.974 164.042 592.119 167.479 592.119 168.624 c 2
 592.119 169.771 l 2
 592.119 170.915 593.265 173.207 593.265 173.207 c 1
 593.265 177.789 596.701 188.101 597.848 188.101 c 1
 597.848 188.101 598.994 189.247 597.848 189.247 c 1
 597.848 190.392 598.994 193.829 600.141 200.702 c 0
 601.284 205.285 604.722 215.597 605.866 221.325 c 0
 609.304 233.927 611.595 243.093 612.741 244.238 c 0
 612.741 245.384 612.741 245.384 612.741 246.53 c 0
 612.741 247.675 616.179 256.841 619.615 270.589 c 0
 621.906 276.316 623.053 282.045 623.053 282.045 c 2
 623.053 283.19 624.197 284.338 624.197 286.628 c 0
 626.489 291.21 627.636 298.085 627.636 298.085 c 2
 627.636 299.23 629.927 304.958 632.218 311.832 c 0
 634.508 318.707 635.654 324.434 636.8 325.58 c 1
 636.8 327.872 640.236 339.328 642.529 348.493 c 0
 643.674 350.784 643.674 354.221 644.82 354.221 c 1
 644.82 355.368 645.966 359.95 647.111 364.533 c 0
 648.257 369.115 649.402 374.845 650.548 375.99 c 0
 651.694 378.281 651.694 381.717 652.84 384.01 c 0
 653.984 386.3 653.984 389.738 655.131 389.738 c 1
 655.131 390.883 655.131 392.028 655.131 392.028 c 1
 655.131 392.028 656.277 395.465 656.277 397.757 c 0
 657.422 400.049 658.568 403.486 658.568 404.631 c 0
 658.568 405.777 659.714 408.067 659.714 409.214 c 2
 659.714 409.214 660.859 411.504 660.859 413.797 c 0
 662.005 416.088 663.149 420.67 663.149 422.962 c 0
 664.296 425.253 665.441 427.545 665.441 427.545 c 2
 665.441 428.69 665.441 428.69 665.441 429.836 c 2
 665.441 429.836 666.587 433.273 667.732 436.71 c 0
 668.878 440.146 670.024 445.875 671.171 450.458 c 0
 674.607 461.914 675.753 464.206 675.753 464.206 c 2
 675.753 465.352 675.753 465.352 675.753 466.498 c 0
 675.753 468.787 680.336 481.39 683.772 491.701 c 0
 684.919 497.43 686.064 502.013 686.064 502.013 c 2
 686.064 503.158 688.355 511.178 691.791 519.197 c 1
 694.083 528.363 696.374 536.382 696.374 537.528 c 2
 696.374 537.528 696.374 538.673 697.52 538.673 c 1
 697.52 538.673 l 1
 697.52 539.819 698.666 543.257 699.812 547.84 c 0
 702.103 555.86 703.249 561.587 705.54 569.606 c 0
 706.686 571.898 706.686 574.189 706.686 574.189 c 2
 707.831 575.336 707.831 575.336 707.831 576.48 c 0
 707.831 579.918 711.268 589.083 712.414 590.229 c 0
 712.414 591.374 713.561 592.52 713.561 593.665 c 0
 713.561 597.102 716.997 611.996 718.143 611.996 c 1
 718.143 611.996 l 1
 718.143 613.143 722.725 631.473 725.016 640.638 c 0
 726.161 642.931 727.308 646.367 727.308 648.657 c 0
 728.454 650.948 729.599 654.385 730.744 657.822 c 0
 733.036 664.697 733.036 664.697 726.161 664.697 c 0
 723.87 664.697 718.143 664.697 714.705 664.697 c 0
 707.831 664.697 648.257 664.697 607.013 665.843 c 0
 595.556 665.843 585.246 665.843 585.246 664.697 c 2
 585.246 664.697 584.101 663.551 584.101 661.26 c 0
 582.953 658.969 581.808 654.385 581.808 650.948 c 1
 580.662 648.657 578.371 642.931 578.371 639.492 c 0
 577.225 636.056 574.935 628.036 572.643 623.453 c 1
 571.498 617.725 569.206 613.143 569.206 611.996 c 2
 569.206 611.996 569.206 610.851 569.206 609.705 c 1
 568.06 609.705 568.06 608.56 568.06 608.56 c 2
 568.06 607.414 568.06 606.268 561.187 587.938 c 0
 560.041 582.209 558.896 577.626 557.749 576.48 c 0
 557.749 575.336 557.749 575.336 557.749 575.336 c 2
 557.749 574.189 555.459 567.314 552.021 558.149 c 0
 549.729 548.984 548.583 546.694 548.583 545.548 c 0
 547.438 544.402 547.438 544.402 547.438 543.257 c 0
 546.293 540.965 545.146 535.236 544.001 530.654 c 0
 542.855 528.363 541.71 523.78 540.564 520.343 c 0
 539.419 518.053 538.273 514.615 538.273 513.47 c 0
 537.128 512.323 535.981 504.304 534.836 503.158 c 0
 534.836 502.013 534.836 500.866 534.836 500.866 c 1
 533.69 499.722 533.69 497.43 532.545 493.993 c 0
 531.399 491.701 530.254 484.828 527.963 480.245 c 0
 524.524 469.935 523.38 466.498 524.524 465.352 c 1
 524.524 465.352 524.524 465.352 523.38 465.352 c 2
 523.38 465.352 521.088 459.623 519.941 453.895 c 0
 517.651 448.166 515.359 441.293 514.215 436.71 c 0
 513.068 433.273 511.922 429.836 511.922 429.836 c 2
 511.922 428.69 511.922 428.69 510.776 427.545 c 1
 510.776 427.545 510.776 426.398 510.776 425.253 c 0
 508.486 419.524 503.903 405.777 500.466 393.175 c 0
 497.028 382.862 492.446 371.407 489.01 358.805 c 0
 489.01 357.659 486.718 350.784 484.427 343.911 c 0
 482.135 335.892 479.845 329.018 478.699 326.727 c 0
 478.699 324.434 477.553 322.143 477.553 322.143 c 2
 476.407 320.997 476.407 320.997 476.407 322.143 c 2
 476.407 322.143 476.407 325.58 475.262 329.018 c 0
 474.116 333.6 472.971 338.182 472.971 339.328 c 0
 471.824 341.62 471.824 345.058 470.68 348.493 c 0
 469.534 350.784 469.534 354.221 469.534 354.221 c 2
 469.534 355.368 469.534 355.368 468.387 356.514 c 0
 468.387 357.659 467.241 363.387 464.95 370.262 c 0
 464.95 373.699 462.659 379.426 462.659 382.862 c 0
 461.514 386.3 460.368 389.738 460.368 390.883 c 2
 460.368 393.175 l 1
 459.222 394.32 459.222 395.465 459.222 395.465 c 1
 459.222 395.465 458.076 401.194 456.932 406.923 c 0
 452.348 422.962 451.203 427.545 452.348 428.69 c 1
 452.348 428.69 l 1
 451.203 428.69 451.203 429.836 451.203 432.128 c 0
 446.62 448.166 442.038 467.642 436.309 488.265 c 0
 432.872 500.866 432.872 502.013 432.872 502.013 c 1
 434.018 502.013 432.872 502.013 432.872 502.013 c 1
 432.872 503.158 431.727 503.158 431.727 504.304 c 2
 431.727 504.304 430.58 508.887 429.435 514.615 c 0
 428.29 520.343 425.997 527.219 425.997 529.508 c 0
 424.852 532.945 421.416 544.402 419.124 554.713 c 0
 415.688 565.023 414.541 574.189 414.541 575.336 c 1
 414.541 575.336 l 1
 413.396 575.336 412.251 578.772 412.251 583.354 c 1
 411.104 586.792 408.813 594.812 407.667 599.395 c 0
 405.376 605.123 404.23 609.705 404.23 610.851 c 2
 404.23 611.996 l 2
 404.23 613.143 401.939 618.87 400.793 625.743 c 0
 398.502 632.619 397.355 639.492 396.21 641.784 c 0
 395.064 644.075 395.064 646.367 395.064 647.512 c 0
 393.919 649.803 392.773 657.822 390.482 662.405 c 0
 390.482 664.697 389.338 665.843 388.191 665.843 c 0
 383.609 666.988 325.18 666.988 325.18 665.843 c 1
 324.033 665.843 322.889 661.26 322.889 657.822 c 0
 320.597 647.512 320.597 649.803 318.306 639.492 c 0
 314.868 626.89 311.431 613.143 311.431 613.143 c 2
 311.431 611.996 311.431 611.996 310.285 610.851 c 1
 310.285 610.851 310.285 609.705 310.285 607.414 c 1
 309.141 606.268 307.994 598.248 305.702 590.229 c 0
 303.412 582.209 302.267 576.48 302.267 575.336 c 1
 302.267 575.336 l 1
 302.267 574.189 299.976 568.46 296.538 554.713 c 0
 295.392 550.131 294.247 544.402 294.247 542.111 c 1
 293.101 540.965 293.101 538.673 293.101 538.673 c 1
 293.101 538.673 l 1
 293.101 537.528 285.082 505.449 283.937 503.158 c 0
 283.937 502.013 283.937 502.013 283.937 500.866 c 2
 283.937 500.866 282.789 498.576 282.789 496.284 c 0
 281.644 493.993 281.644 490.557 280.499 488.265 c 0
 279.353 484.828 279.353 481.39 278.207 479.1 c 0
 278.207 476.808 277.061 473.371 275.915 471.08 c 0
 275.915 468.787 274.771 466.498 274.771 466.498 c 2
 274.771 464.206 271.334 451.604 269.043 443.583 c 0
 267.896 437.856 266.75 434.419 266.75 430.981 c 0
 266.75 429.836 265.605 425.253 264.46 421.816 c 0
 263.313 417.233 262.168 413.797 262.168 412.651 c 0
 262.168 411.504 261.022 406.923 258.731 401.194 c 0
 257.585 396.611 257.585 392.028 257.585 392.028 c 1
 257.585 392.028 257.585 392.028 256.44 390.883 c 2
 255.295 389.738 l 1
 255.295 387.446 251.857 372.553 250.711 369.115 c 1
 250.711 366.823 l 2
 250.711 365.679 249.565 363.387 249.565 361.097 c 0
 248.42 357.659 248.42 356.514 248.42 355.368 c 2
 248.42 355.368 248.42 355.368 247.273 354.221 c 0
 247.273 353.075 239.255 322.143 238.108 319.852 c 0
 238.108 318.707 238.108 318.707 238.108 317.562 c 2
 238.108 317.562 236.964 315.27 236.964 314.124 c 0
 235.818 309.54 233.526 303.813 233.526 303.813 c 1
 233.526 303.813 232.381 303.813 232.381 304.958 c 0
 231.235 307.25 227.799 317.562 227.799 318.707 c 2
 227.799 318.707 227.799 318.707 227.799 319.852 c 2
 227.799 319.852 225.506 326.727 223.216 333.6 c 0
 220.924 340.474 218.633 347.349 218.633 347.349 c 2
 218.633 348.493 217.487 350.784 217.487 351.931 c 0
 216.341 354.221 214.05 362.241 211.76 369.115 c 0
 208.322 381.717 206.03 388.592 206.03 392.028 c 1
 206.03 392.028 204.885 395.465 202.594 400.049 c 0
 198.012 417.233 194.574 427.545 194.574 428.69 c 1
 194.574 428.69 l 1
 194.574 428.69 191.137 439 185.408 459.623 c 0
 184.263 464.206 180.825 474.517 177.389 483.682 c 0
 175.099 492.848 172.807 500.866 172.807 500.866 c 2
 172.807 502.013 171.66 503.158 171.66 504.304 c 0
 170.516 506.595 169.37 510.031 169.37 512.323 c 0
 168.223 515.761 167.077 520.343 165.933 522.635 c 0
 163.641 529.508 162.495 536.382 161.35 537.528 c 1
 161.35 539.819 l 1
 160.204 540.965 160.204 542.111 160.204 542.111 c 1
 160.204 542.111 154.476 561.587 151.039 573.044 c 0
 151.039 574.189 151.039 574.189 151.039 575.336 c 1
 151.039 575.336 l 1
 149.894 575.336 148.747 578.772 148.747 582.209 c 0
 147.602 585.647 145.311 593.665 143.02 599.395 c 0
 141.874 605.123 139.581 610.851 139.581 610.851 c 2
 139.581 611.996 139.581 611.996 139.581 611.996 c 2
 139.581 613.143 130.417 642.931 129.271 646.367 c 0
 128.125 653.239 123.541 666.988 122.397 668.134 c 2
 122.397 668.134 83.4453 669.279 37.6172 669.279 c 1
 25.0156 668.134 3.24805 668.134 -10.5 668.134 c 0
 -24.248 668.134 -35.7051 668.134 -35.7051 668.134 c 1
 -36.8506 666.988 -36.8506 665.843 -34.5586 657.822 c 0
 -33.4131 654.385 -31.1211 649.803 -31.1211 649.803 c 2
EndSplineSet
EndChar

StartChar: uni0058
Encoding: 88 88 33
Width: 613
VWidth: 0
Flags: HW
LayerCount: 2
Fore
SplineSet
487.68 666.24 m 0
 419.52 665.28 398.4 665.28 391.68 665.28 c 0
 384.96 664.32 385.92 665.28 382.08 657.6 c 0
 378.24 648 344.64 579.84 335.04 560.64 c 0
 327.36 546.24 325.44 543.36 317.76 528.96 c 0
 310.08 513.6 309.12 511.68 309.12 512.64 c 1
 308.16 512.64 307.2 514.56 301.44 528 c 0
 297.6 534.72 291.84 550.08 288.96 555.84 c 0
 287.04 560.64 282.24 572.16 280.32 576.96 c 0
 279.36 577.92 278.4 579.84 278.4 581.76 c 1
 277.44 582.72 275.52 587.52 273.6 591.36 c 0
 271.68 596.16 269.76 600 269.76 600.96 c 0
 269.76 601.92 268.8 602.88 268.8 603.84 c 2
 268.8 603.84 267.84 604.8 267.84 605.76 c 0
 266.88 606.72 266.88 607.68 266.88 607.68 c 2
 265.92 609.6 260.16 623.04 259.2 624 c 1
 259.2 624.96 l 1
 259.2 624.96 258.24 627.84 257.28 629.76 c 0
 255.36 632.64 254.4 634.56 254.4 635.52 c 2
 254.4 635.52 253.44 638.4 251.52 642.24 c 0
 249.6 646.08 247.68 649.92 247.68 649.92 c 1
 247.68 649.92 246.72 651.84 245.76 654.72 c 0
 243.84 657.6 242.88 660.48 242.88 660.48 c 2
 242.88 661.44 242.88 661.44 242.88 661.44 c 1
 241.92 662.4 223.68 662.4 215.04 661.44 c 0
 213.12 661.44 207.36 661.44 202.56 661.44 c 0
 192 660.48 182.4 660.48 165.12 660.48 c 0
 157.44 660.48 143.04 659.52 134.4 659.52 c 0
 125.76 658.56 110.4 658.56 101.76 658.56 c 0
 92.1602 658.56 85.4404 657.6 84.4805 657.6 c 2
 84.4805 657.6 85.4404 653.76 89.2803 645.12 c 0
 91.2002 641.28 94.0801 635.52 95.04 631.68 c 0
 97.9199 624.96 109.44 599.04 115.2 586.56 c 0
 116.16 583.68 118.08 578.88 119.04 576 c 0
 120 574.08 121.92 569.28 122.88 567.36 c 0
 124.8 564.48 127.68 557.76 129.6 552 c 0
 131.52 547.2 134.4 540.48 136.32 537.6 c 0
 141.12 526.08 146.88 511.68 151.68 502.08 c 0
 153.6 496.32 158.4 486.72 161.28 480 c 0
 164.16 473.28 167.04 464.64 168.96 460.8 c 0
 172.8 452.16 173.76 449.28 175.68 446.4 c 1
 175.68 444.48 177.6 441.6 178.56 439.68 c 1
 178.56 436.8 181.44 431.04 183.36 427.2 c 0
 185.28 422.4 189.12 412.8 192 407.04 c 0
 193.92 401.28 196.8 393.6 197.76 391.68 c 0
 198.72 389.76 200.64 385.92 201.6 384 c 0
 204.48 375.36 214.08 355.2 219.84 344.64 c 0
 220.8 341.76 222.72 339.84 222.72 339.84 c 2
 223.68 339.84 223.68 337.92 216.96 323.52 c 0
 213.12 316.8 163.2 216 153.6 197.76 c 0
 150.72 192.96 146.88 184.32 144 178.56 c 0
 141.12 172.8 134.4 158.4 127.68 145.92 c 1
 121.92 132.48 115.2 120 114.24 117.12 c 0
 112.32 114.24 104.64 98.8799 96.96 82.5596 c 0
 89.2803 66.2402 82.5596 52.7998 82.5596 52.7998 c 1
 82.5596 52.7998 78.7197 45.1201 73.9199 36.4805 c 1
 70.0801 26.8799 64.3203 16.3203 62.4004 12.4805 c 0
 56.6396 0 55.6797 0.959961 77.7598 0.959961 c 1
 88.3203 1.91992 124.8 1.91992 157.44 1.91992 c 0
 199.68 1.91992 217.92 1.91992 217.92 1.91992 c 1
 218.88 2.87988 218.88 3.83984 219.84 5.75977 c 0
 221.76 10.5596 229.44 26.8799 234.24 37.4404 c 0
 236.16 42.2402 240 49.9199 242.88 54.7197 c 0
 247.68 66.2402 258.24 86.4004 269.76 110.4 c 0
 274.56 120.96 281.28 133.44 284.16 140.16 c 0
 287.04 145.92 288.96 150.72 289.92 151.68 c 2
 289.92 151.68 290.88 153.6 291.84 155.52 c 0
 293.76 159.36 293.76 159.36 294.72 159.36 c 2
 294.72 159.36 296.64 156.48 297.6 154.56 c 0
 297.6 153.6 298.56 151.68 299.52 149.76 c 0
 300.48 146.88 302.4 141.12 305.28 136.32 c 1
 307.2 130.56 311.04 121.92 312.96 116.16 c 0
 318.72 101.76 322.56 91.2002 326.4 83.5195 c 0
 327.36 79.6797 329.28 75.8398 329.28 75.8398 c 2
 329.28 74.8799 330.24 71.04 332.16 68.1602 c 0
 333.12 65.2803 336 59.5195 336.96 55.6797 c 0
 338.88 51.8398 340.8 48 340.8 47.04 c 0
 341.76 45.1201 342.72 43.2002 342.72 42.2402 c 0
 343.68 40.3203 345.6 36.4805 347.52 31.6797 c 0
 349.44 26.8799 351.36 21.1201 352.32 18.2402 c 0
 354.24 15.3604 356.16 11.5195 356.16 9.59961 c 0
 360 0.959961 359.04 1.91992 364.8 1.91992 c 0
 367.68 1.91992 370.56 1.91992 372.48 1.91992 c 0
 373.44 1.91992 380.16 1.91992 386.88 1.91992 c 0
 394.56 1.91992 400.32 1.91992 401.28 1.91992 c 0
 435.84 0.959961 523.2 1.91992 524.16 1.91992 c 0
 525.12 1.91992 526.08 3.83984 525.12 4.7998 c 0
 524.16 5.75977 523.2 7.67969 523.2 9.59961 c 0
 520.32 15.3604 518.4 19.2002 518.4 19.2002 c 2
 517.44 19.2002 517.44 20.1602 517.44 20.1602 c 2
 518.4 20.1602 517.44 21.1201 515.52 27.8398 c 0
 514.56 29.7598 511.68 34.5596 509.76 40.3203 c 0
 507.84 45.1201 503.04 55.6797 500.16 63.3604 c 0
 496.32 72 492.48 81.5996 490.56 84.4805 c 1
 489.6 88.3203 487.68 92.1602 486.72 95.04 c 0
 485.76 96.96 482.88 102.72 480 109.44 c 0
 478.08 115.2 475.2 120.96 475.2 121.92 c 0
 475.2 122.88 474.24 124.8 473.28 127.68 c 0
 472.32 129.6 470.4 132.48 470.4 133.44 c 0
 467.52 141.12 466.56 142.08 466.56 143.04 c 2
 466.56 143.04 465.6 144 465.6 145.92 c 1
 464.64 146.88 462.72 151.68 460.8 156.48 c 0
 458.88 160.32 456 168 453.12 172.8 c 0
 451.2 176.64 448.32 185.28 445.44 191.04 c 0
 437.76 209.28 433.92 219.84 432.96 222.72 c 0
 432 223.68 431.04 226.56 431.04 227.52 c 0
 430.08 228.48 430.08 230.4 429.12 231.36 c 0
 428.16 233.28 426.24 238.08 424.32 243.84 c 0
 422.4 248.64 419.52 254.4 418.56 255.36 c 1
 418.56 257.28 417.6 258.24 417.6 258.24 c 1
 417.6 258.24 416.64 260.16 416.64 262.08 c 0
 415.68 264 414.72 265.92 414.72 265.92 c 1
 414.72 265.92 413.76 267.84 413.76 268.8 c 0
 412.8 270.72 411.84 272.64 410.88 274.56 c 0
 409.92 275.52 409.92 277.44 409.92 277.44 c 1
 409.92 277.44 408.96 279.36 408 281.28 c 0
 407.04 283.2 406.08 285.12 406.08 285.12 c 1
 406.08 285.12 406.08 287.04 405.12 288.96 c 0
 404.16 289.92 403.2 291.84 403.2 291.84 c 1
 403.2 291.84 402.24 293.76 401.28 295.68 c 0
 400.32 297.6 399.36 302.4 397.44 305.28 c 0
 396.48 308.16 394.56 312 393.6 314.88 c 0
 390.72 319.68 386.88 330.24 384.96 334.08 c 0
 384 336.96 384 336.96 384.96 337.92 c 2
 384.96 337.92 385.92 339.84 386.88 341.76 c 0
 390.72 349.44 403.2 376.32 437.76 443.52 c 0
 441.6 450.24 446.4 460.8 450.24 467.52 c 0
 453.12 474.24 456 480 456 480.96 c 1
 456.96 480.96 458.88 484.8 460.8 488.64 c 0
 462.72 492.48 464.64 497.28 466.56 500.16 c 0
 467.52 502.08 470.4 508.8 473.28 513.6 c 0
 476.16 518.4 478.08 522.24 478.08 523.2 c 1
 479.04 523.2 485.76 538.56 495.36 555.84 c 1
 504 574.08 511.68 589.44 511.68 590.4 c 1
 512.64 590.4 513.6 592.32 514.56 595.2 c 0
 515.52 597.12 517.44 600.96 519.36 603.84 c 0
 520.32 605.76 523.2 610.56 524.16 613.44 c 0
 526.08 616.32 527.04 619.2 528 620.16 c 0
 528 621.12 530.88 625.92 533.76 631.68 c 0
 535.68 636.48 539.52 643.2 540.48 645.12 c 0
 541.44 647.04 543.36 650.88 544.32 652.8 c 0
 545.28 654.72 547.2 658.56 548.16 661.44 c 0
 549.12 663.36 550.08 665.28 550.08 666.24 c 1
 550.08 666.24 518.4 667.2 518.4 666.24 c 1
 518.4 666.24 504 666.24 487.68 666.24 c 0
EndSplineSet
EndChar

StartChar: uni0059
Encoding: 89 89 34
Width: 566
VWidth: 0
Flags: HW
LayerCount: 2
Fore
SplineSet
-8.63965 666.24 m 1
 -8.63965 665.28 -0.959961 649.92 1.91992 645.12 c 2
 1.91992 645.12 3.83984 641.28 6.71973 636.48 c 0
 8.63965 631.68 11.5195 627.84 11.5195 626.88 c 0
 15.3604 621.12 19.2002 612.48 24 604.8 c 0
 25.9199 600 29.7598 593.28 31.6797 590.4 c 0
 32.6396 587.52 36.4805 580.8 39.3604 576 c 0
 42.2402 571.2 45.1201 566.4 45.1201 566.4 c 2
 45.1201 565.44 46.0801 564.48 47.04 563.52 c 0
 50.8799 555.84 78.7197 507.84 87.3604 493.44 c 0
 89.2803 489.6 92.1602 484.8 94.0801 481.92 c 0
 96 478.08 99.8398 471.36 101.76 467.52 c 0
 102.72 467.52 102.72 466.56 102.72 466.56 c 2
 103.68 464.64 107.52 458.88 108.48 456.96 c 0
 109.44 456 109.44 455.04 109.44 455.04 c 1
 109.44 455.04 111.36 452.16 112.32 450.24 c 0
 116.16 443.52 118.08 441.6 119.04 438.72 c 0
 120 437.76 121.92 434.88 122.88 432 c 0
 124.8 429.12 126.72 426.24 126.72 426.24 c 2
 126.72 425.28 127.68 424.32 127.68 423.36 c 1
 128.64 423.36 129.6 422.4 129.6 421.44 c 2
 129.6 421.44 130.56 419.52 131.52 418.56 c 0
 133.44 415.68 134.4 413.76 136.32 409.92 c 0
 136.32 408.96 137.28 407.04 138.24 406.08 c 2
 139.2 405.12 l 1
 139.2 405.12 140.16 403.2 142.08 400.32 c 0
 143.04 397.44 146.88 392.64 148.8 388.8 c 0
 150.72 384 154.56 377.28 157.44 373.44 c 0
 161.28 365.76 171.84 346.56 172.8 342.72 c 0
 173.76 340.8 173.76 336.96 173.76 287.04 c 0
 173.76 258.24 174.72 216.96 174.72 195.84 c 0
 174.72 174.72 174.72 121.92 174.72 77.7598 c 2
 174.72 -0.959961 l 1
 178.56 -1.91992 l 1
 184.32 -1.91992 323.52 -1.91992 324.48 -0.959961 c 1
 324.48 -0.959961 324.48 2.87988 324.48 6.71973 c 0
 324.48 10.5596 323.52 19.2002 323.52 24.96 c 0
 324.48 31.6797 323.52 61.4404 323.52 93.1201 c 0
 323.52 153.6 323.52 293.76 323.52 307.2 c 0
 323.52 311.04 323.52 317.76 323.52 320.64 c 0
 324.48 335.04 325.44 345.6 327.36 347.52 c 0
 328.32 348.48 330.24 351.36 332.16 355.2 c 0
 336 361.92 339.84 369.6 340.8 371.52 c 0
 341.76 372.48 345.6 378.24 349.44 384.96 c 0
 353.28 391.68 360.96 405.12 366.72 415.68 c 0
 373.44 426.24 379.2 435.84 379.2 436.8 c 0
 381.12 439.68 384.96 446.4 385.92 448.32 c 0
 389.76 453.12 395.52 464.64 397.44 467.52 c 0
 398.4 468.48 400.32 471.36 401.28 473.28 c 0
 401.28 474.24 402.24 476.16 403.2 476.16 c 1
 403.2 477.12 405.12 480 413.76 495.36 c 0
 417.6 502.08 421.44 508.8 422.4 511.68 c 0
 423.36 513.6 425.28 515.52 426.24 517.44 c 0
 427.2 519.36 435.84 534.72 438.72 539.52 c 0
 439.68 542.4 450.24 560.64 453.12 566.4 c 0
 454.08 568.32 456 573.12 457.92 576 c 0
 459.84 578.88 460.8 580.8 460.8 580.8 c 1
 460.8 580.8 461.76 583.68 463.68 585.6 c 1
 464.64 588.48 466.56 592.32 468.48 594.24 c 0
 469.44 596.16 470.4 598.08 470.4 599.04 c 2
 470.4 599.04 472.32 601.92 474.24 604.8 c 0
 476.16 609.6 483.84 623.04 486.72 628.8 c 0
 486.72 629.76 489.6 634.56 492.48 639.36 c 0
 494.4 644.16 498.24 649.92 499.2 652.8 c 0
 503.04 658.56 504 660.48 503.04 661.44 c 0
 502.08 662.4 469.44 662.4 386.88 663.36 c 0
 372.48 663.36 358.08 664.32 354.24 664.32 c 0
 350.4 664.32 346.56 664.32 346.56 664.32 c 1
 345.6 663.36 343.68 659.52 339.84 651.84 c 0
 336.96 648 334.08 640.32 331.2 635.52 c 0
 328.32 630.72 325.44 624.96 323.52 621.12 c 0
 321.6 618.24 319.68 614.4 318.72 612.48 c 0
 317.76 610.56 316.8 609.6 316.8 608.64 c 2
 316.8 608.64 316.8 607.68 315.84 607.68 c 1
 315.84 606.72 313.92 602.88 312 600 c 0
 308.16 592.32 302.4 580.8 292.8 564.48 c 0
 289.92 557.76 286.08 552 285.12 548.16 c 0
 284.16 546.24 282.24 542.4 280.32 539.52 c 0
 278.4 536.64 276.48 533.76 276.48 533.76 c 2
 276.48 532.8 276.48 531.84 275.52 530.88 c 0
 273.6 528 271.68 524.16 265.92 512.64 c 0
 259.2 500.16 258.24 497.28 256.32 494.4 c 0
 253.44 490.56 251.52 488.64 251.52 488.64 c 2
 250.56 488.64 242.88 501.12 234.24 517.44 c 0
 232.32 521.28 228.48 527.04 226.56 530.88 c 0
 221.76 538.56 217.92 547.2 214.08 554.88 c 0
 212.16 556.8 209.28 563.52 206.4 569.28 c 0
 203.52 575.04 197.76 584.64 194.88 591.36 c 0
 187.2 605.76 183.36 613.44 176.64 626.88 c 0
 173.76 632.64 169.92 639.36 168 642.24 c 0
 167.04 644.16 164.16 648.96 162.24 652.8 c 0
 160.32 656.64 158.4 659.52 158.4 659.52 c 1
 158.4 659.52 158.4 661.44 156.48 663.36 c 0
 154.56 666.24 154.56 666.24 147.84 666.24 c 0
 100.8 665.28 6.71973 666.24 4.7998 666.24 c 2
 4.7998 666.24 1.91992 666.24 -1.91992 666.24 c 0
 -4.7998 666.24 -8.63965 666.24 -8.63965 666.24 c 1
EndSplineSet
EndChar

StartChar: uni005A
Encoding: 90 90 35
Width: 518
VWidth: 0
Flags: HW
LayerCount: 2
Fore
SplineSet
104.64 669.12 m 0
 103.68 667.2 101.76 655.68 100.8 646.08 c 0
 100.8 641.28 100.8 635.52 99.8398 634.56 c 1
 99.8398 632.64 98.8799 619.2 97.9199 612.48 c 0
 97.9199 606.72 96.96 598.08 95.04 585.6 c 0
 90.2402 555.84 90.2402 555.84 91.2002 555.84 c 1
 91.2002 554.88 107.52 554.88 155.52 554.88 c 0
 190.08 554.88 224.64 553.92 231.36 553.92 c 0
 248.64 553.92 254.4 553.92 268.8 553.92 c 1
 282.24 552.96 284.16 552.96 285.12 552 c 1
 285.12 550.08 282.24 545.28 277.44 533.76 c 0
 271.68 521.28 265.92 510.72 264.96 506.88 c 0
 264 505.92 262.08 502.08 261.12 499.2 c 0
 260.16 497.28 258.24 493.44 258.24 491.52 c 0
 256.32 485.76 252.48 477.12 240 453.12 c 0
 234.24 440.64 228.48 428.16 228.48 428.16 c 1
 228.48 428.16 225.6 422.4 221.76 414.72 c 0
 217.92 407.04 214.08 398.4 213.12 395.52 c 0
 211.2 392.64 209.28 387.84 208.32 385.92 c 0
 207.36 383.04 206.4 381.12 206.4 381.12 c 1
 206.4 381.12 204.48 376.32 201.6 371.52 c 0
 198.72 365.76 196.8 361.92 196.8 361.92 c 1
 196.8 361.92 193.92 356.16 191.04 349.44 c 0
 188.16 342.72 183.36 333.12 181.44 329.28 c 0
 180.48 325.44 178.56 321.6 177.6 321.6 c 1
 177.6 320.64 176.64 319.68 176.64 319.68 c 2
 176.64 318.72 174.72 314.88 169.92 305.28 c 0
 166.08 297.6 163.2 290.88 161.28 287.04 c 0
 156.48 276.48 150.72 264 147.84 258.24 c 0
 146.88 255.36 143.04 248.64 141.12 243.84 c 0
 136.32 234.24 133.44 228.48 128.64 217.92 c 0
 120 200.64 118.08 196.8 115.2 190.08 c 0
 112.32 182.4 109.44 177.6 103.68 166.08 c 0
 101.76 161.28 98.8799 155.52 96.96 152.64 c 0
 96 149.76 93.1201 144 91.2002 139.2 c 0
 89.2803 135.36 87.3604 131.52 87.3604 131.52 c 1
 87.3604 131.52 85.4404 127.68 83.5195 123.84 c 0
 79.6797 115.2 78.7197 112.32 78.7197 112.32 c 1
 79.6797 111.36 78.7197 99.8398 77.7598 90.2402 c 0
 77.7598 84.4805 76.7998 79.6797 76.7998 74.8799 c 0
 76.7998 72.96 76.7998 69.1201 75.8398 68.1602 c 1
 75.8398 63.3604 75.8398 61.4404 74.8799 56.6396 c 1
 74.8799 49.9199 72 19.2002 72 15.3604 c 0
 70.0801 2.87988 70.0801 2.87988 74.8799 1.91992 c 0
 75.8398 1.91992 96 1.91992 118.08 1.91992 c 0
 168 1.91992 217.92 0.959961 243.84 0.959961 c 0
 249.6 0.959961 260.16 0 267.84 0 c 0
 286.08 0 426.24 0 427.2 0 c 0
 428.16 0.959961 429.12 38.4004 430.08 84.4805 c 0
 430.08 93.1201 431.04 109.44 431.04 120.96 c 0
 432 133.44 432 143.04 432 144 c 0
 430.08 144.96 429.12 144.96 384.96 145.92 c 0
 369.6 145.92 356.16 145.92 355.2 145.92 c 0
 354.24 145.92 340.8 146.88 325.44 146.88 c 0
 310.08 146.88 293.76 146.88 288.96 146.88 c 0
 267.84 147.84 264 147.84 261.12 147.84 c 0
 259.2 147.84 255.36 148.8 253.44 148.8 c 0
 248.64 148.8 247.68 148.8 247.68 149.76 c 0
 247.68 151.68 253.44 162.24 255.36 165.12 c 0
 256.32 167.04 257.28 168 257.28 168.96 c 0
 257.28 169.92 264 184.32 268.8 192.96 c 0
 269.76 194.88 271.68 198.72 272.64 200.64 c 0
 273.6 202.56 275.52 206.4 276.48 208.32 c 0
 278.4 210.24 279.36 214.08 280.32 216.96 c 0
 285.12 226.56 289.92 237.12 292.8 241.92 c 0
 293.76 242.88 294.72 244.8 294.72 246.72 c 0
 296.64 250.56 305.28 266.88 305.28 266.88 c 2
 306.24 267.84 306.24 267.84 306.24 267.84 c 2
 306.24 268.8 330.24 316.8 334.08 323.52 c 0
 335.04 324.48 336 328.32 337.92 332.16 c 0
 338.88 335.04 342.72 342.72 345.6 348.48 c 0
 348.48 354.24 351.36 361.92 353.28 365.76 c 0
 355.2 368.64 358.08 375.36 360.96 381.12 c 0
 362.88 385.92 365.76 390.72 365.76 390.72 c 1
 365.76 390.72 369.6 400.32 376.32 412.8 c 0
 379.2 418.56 382.08 424.32 382.08 426.24 c 0
 383.04 428.16 384.96 432.96 386.88 436.8 c 0
 388.8 439.68 390.72 443.52 390.72 444.48 c 0
 391.68 446.4 396.48 456 400.32 462.72 c 0
 403.2 468.48 418.56 500.16 420.48 504 c 0
 421.44 505.92 422.4 508.8 423.36 510.72 c 0
 424.32 512.64 425.28 513.6 425.28 514.56 c 2
 425.28 514.56 426.24 515.52 427.2 516.48 c 0
 427.2 517.44 428.16 519.36 429.12 520.32 c 0
 431.04 524.16 435.84 533.76 437.76 537.6 c 0
 445.44 552 445.44 549.12 445.44 574.08 c 1
 446.4 586.56 446.4 597.12 446.4 598.08 c 0
 446.4 599.04 446.4 605.76 446.4 611.52 c 0
 447.36 618.24 447.36 624.96 447.36 626.88 c 0
 448.32 640.32 448.32 663.36 447.36 664.32 c 2
 447.36 664.32 444.48 665.28 441.6 666.24 c 0
 434.88 667.2 434.88 667.2 420.48 667.2 c 1
 411.84 668.16 404.16 668.16 402.24 668.16 c 0
 401.28 668.16 381.12 668.16 358.08 668.16 c 0
 335.04 668.16 312 669.12 306.24 669.12 c 0
 284.16 669.12 164.16 670.08 127.68 670.08 c 0
 107.52 670.08 105.6 669.12 104.64 669.12 c 0
EndSplineSet
EndChar

StartChar: uni0061
Encoding: 97 97 36
Width: 593
VWidth: 0
Flags: HW
LayerCount: 2
Fore
SplineSet
212.042 481.008 m 4
 209.195 468.2 207.772 462.508 202.08 445.431 c 4
 199.234 436.892 197.811 428.354 197.811 426.93 c 4
 196.388 425.507 194.965 419.814 193.542 414.122 c 4
 192.118 407.007 189.272 399.892 189.272 395.622 c 5
 187.85 392.775 186.426 384.237 183.58 378.545 c 4
 182.157 372.853 180.733 365.736 179.311 362.891 c 5
 179.311 358.621 176.465 350.083 173.618 341.544 c 4
 170.772 333.006 169.349 324.467 167.926 321.621 c 4
 167.926 320.197 166.503 314.505 165.08 310.235 c 4
 163.656 305.967 162.233 298.851 160.811 294.582 c 4
 159.388 290.312 157.964 286.043 157.964 284.62 c 4
 156.541 281.773 156.541 280.351 156.541 278.928 c 6
 156.541 277.505 l 5
 156.541 277.505 155.118 274.658 155.118 271.812 c 4
 152.271 266.12 150.849 256.158 148.002 246.196 c 4
 146.579 241.927 143.733 233.389 142.31 226.272 c 4
 138.041 212.042 136.617 204.927 135.194 203.503 c 4
 135.194 202.08 133.771 200.657 133.771 199.234 c 4
 133.771 196.388 126.656 172.195 122.387 153.694 c 4
 119.54 143.733 115.271 132.349 113.848 126.656 c 4
 112.425 120.964 111.002 113.848 109.579 108.155 c 4
 108.155 103.886 106.732 98.1934 105.31 95.3477 c 4
 103.886 91.0781 102.463 83.9629 101.04 78.2705 c 4
 99.6162 72.5781 96.7715 65.4619 96.7715 64.0391 c 4
 96.7715 62.6162 95.3477 61.1934 95.3477 59.7705 c 6
 95.3477 59.7705 93.9248 52.6543 91.0781 45.5391 c 4
 89.6553 38.4238 86.8086 28.4619 83.9629 22.7695 c 5
 81.1162 8.53906 79.6943 5.69238 81.1162 5.69238 c 5
 81.1162 4.26953 85.3857 4.26953 98.1934 4.26953 c 4
 145.156 4.26953 197.811 4.26953 204.927 4.26953 c 5
 206.35 2.84668 214.888 4.26953 214.888 4.26953 c 5
 214.888 5.69238 216.312 8.53906 217.734 12.8076 c 4
 217.734 17.0771 219.157 21.3467 220.58 25.6162 c 4
 220.58 28.4619 222.004 32.7314 223.427 37.001 c 4
 224.85 39.8467 226.272 45.5391 227.696 49.8086 c 4
 230.542 61.1934 231.965 65.4619 234.812 75.4248 c 4
 236.234 81.1162 237.658 85.3857 237.658 85.3857 c 5
 237.658 85.3857 243.35 86.8086 256.158 86.8086 c 4
 284.62 86.8086 315.928 86.8086 331.582 86.8086 c 4
 347.236 88.2324 347.236 86.8086 344.391 92.502 c 5
 342.967 101.04 331.582 130.925 331.582 132.349 c 4
 331.582 133.771 331.582 133.771 331.582 133.771 c 5
 331.582 133.771 333.006 129.502 334.429 125.232 c 4
 335.852 120.964 338.698 115.271 340.121 112.425 c 4
 341.544 109.579 341.544 106.732 342.967 105.31 c 5
 342.967 102.463 344.391 98.1934 345.813 95.3477 c 4
 348.659 88.2324 354.352 71.1553 364.313 44.1162 c 4
 375.698 9.96094 377.121 5.69238 378.545 4.26953 c 4
 379.968 2.84668 378.545 2.84668 473.893 4.26953 c 4
 508.047 4.26953 508.047 4.26953 506.624 7.11621 c 4
 505.2 8.53906 503.777 15.6543 500.932 21.3467 c 5
 499.508 28.4619 495.239 41.2705 492.393 49.8086 c 4
 489.547 58.3477 486.7 68.3086 485.277 71.1553 c 4
 485.277 74.001 483.854 78.2705 482.431 81.1162 c 4
 481.008 83.9629 479.585 89.6553 479.585 92.502 c 4
 478.162 95.3477 476.738 101.04 475.315 105.31 c 4
 473.893 109.579 471.046 119.54 468.2 129.502 c 4
 461.084 155.118 459.661 156.541 455.392 169.349 c 4
 453.969 175.041 451.123 182.157 451.123 183.58 c 6
 451.123 183.58 449.699 187.85 448.276 192.118 c 4
 445.431 200.657 441.161 217.734 436.892 230.542 c 4
 431.199 247.619 428.354 260.428 425.507 266.12 c 4
 419.814 280.351 408.43 318.774 401.314 341.544 c 4
 399.892 344.391 398.468 350.083 397.045 354.352 c 4
 395.622 358.621 392.775 365.736 392.775 370.006 c 5
 391.353 372.853 388.506 381.391 387.083 388.506 c 5
 384.237 394.199 381.391 402.737 379.968 408.43 c 4
 374.275 429.776 367.16 451.123 367.16 452.546 c 4
 365.736 453.969 365.736 456.815 365.736 458.238 c 4
 364.313 459.661 362.891 465.354 360.044 472.469 c 4
 358.621 478.162 355.775 486.7 354.352 490.97 c 4
 352.929 493.815 351.506 498.085 351.506 498.085 c 5
 351.506 498.085 334.429 498.085 314.505 498.085 c 4
 294.582 498.085 276.081 499.508 274.658 499.508 c 4
 263.273 499.508 219.157 500.932 217.734 499.508 c 4
 217.734 498.085 214.888 490.97 212.042 481.008 c 4
301.697 220.58 m 5
 301.697 217.734 305.967 209.195 308.812 199.234 c 4
 311.659 190.695 315.928 179.311 317.352 175.041 c 4
 321.621 165.08 321.621 163.656 320.197 165.08 c 5
 320.197 165.08 313.082 165.08 305.967 165.08 c 4
 288.89 165.08 267.543 166.503 267.543 166.503 c 6
 267.543 167.926 273.235 192.118 280.351 219.157 c 4
 281.773 226.272 284.62 236.234 286.043 241.927 c 4
 288.89 253.312 288.89 254.735 290.312 250.466 c 4
 291.735 250.466 293.158 243.35 296.005 236.234 c 4
 297.428 230.542 300.274 222.004 301.697 220.58 c 5
324.467 155.118 m 5
 323.044 155.118 323.044 155.118 323.044 156.541 c 5
 323.044 156.541 323.044 156.541 324.467 156.541 c 5
 324.467 155.118 l 5
 324.467 155.118 l 5
324.467 150.849 m 4
 324.467 152.271 324.467 152.271 325.89 150.849 c 6
 327.313 149.426 l 6
 327.313 148.002 325.89 149.426 324.467 150.849 c 4
330.159 139.464 m 5
 328.736 139.464 328.736 139.464 328.736 140.887 c 6
 328.736 140.887 328.736 142.31 327.313 143.733 c 4
 327.313 145.156 327.313 145.156 327.313 145.156 c 5
 328.736 143.733 328.736 142.31 330.159 140.887 c 4
 330.159 139.464 330.159 139.464 330.159 139.464 c 5
EndSplineSet
EndChar

StartChar: uni0062
Encoding: 98 98 37
Width: 547
VWidth: 0
Flags: HW
LayerCount: 2
Fore
SplineSet
243.35 468.2 m 0
 244.773 425.507 243.35 405.584 243.35 402.737 c 1
 241.927 401.314 241.927 401.314 241.927 407.007 c 0
 241.927 409.853 241.927 414.122 241.927 416.969 c 0
 241.927 419.814 241.927 435.469 240.504 451.123 c 1
 240.504 482.431 240.504 496.662 239.081 500.932 c 0
 239.081 505.2 239.081 505.2 217.734 503.777 c 0
 204.927 503.777 192.118 503.777 189.272 503.777 c 0
 183.58 502.354 182.157 503.777 180.733 503.777 c 2
 179.311 503.777 l 2
 177.888 503.777 172.195 502.354 162.233 502.354 c 0
 140.887 500.932 120.964 500.932 115.271 499.508 c 0
 109.579 499.508 109.579 502.354 111.002 458.238 c 0
 111.002 439.738 111.002 328.736 111.002 212.042 c 1
 112.425 96.7715 112.425 1.42285 112.425 1.42285 c 2
 112.425 0 214.888 1.42285 240.504 2.84668 c 0
 249.043 4.26953 256.158 4.26953 256.158 4.26953 c 2
 257.581 4.26953 259.004 4.26953 261.851 4.26953 c 0
 267.543 5.69238 286.043 5.69238 296.005 7.11621 c 0
 305.967 7.11621 315.928 7.11621 321.621 8.53906 c 0
 324.467 8.53906 333.006 8.53906 341.544 8.53906 c 0
 364.313 9.96094 367.16 9.96094 378.545 17.0771 c 0
 402.737 29.8848 414.122 39.8467 425.507 64.0391 c 0
 425.507 65.4619 426.93 71.1553 426.93 81.1162 c 0
 426.93 89.6553 426.93 101.04 428.354 108.155 c 1
 428.354 123.81 429.776 130.925 429.776 149.426 c 0
 429.776 157.964 431.199 173.618 431.199 185.003 c 1
 432.622 194.965 432.622 207.772 434.046 212.042 c 1
 434.046 229.119 434.046 234.812 429.776 246.196 c 0
 425.507 259.004 419.814 266.12 407.007 280.351 c 0
 401.314 286.043 397.045 290.312 397.045 291.735 c 2
 397.045 291.735 399.892 296.005 404.16 300.274 c 0
 415.545 313.082 426.93 330.159 432.622 345.813 c 0
 435.469 352.929 435.469 364.313 435.469 377.121 c 0
 435.469 381.391 435.469 387.083 435.469 387.083 c 1
 434.046 405.584 428.354 431.199 421.237 445.431 c 0
 416.969 456.815 414.122 459.661 408.43 465.354 c 0
 405.584 469.623 401.314 473.893 399.892 476.738 c 0
 394.199 483.854 362.891 499.508 347.236 502.354 c 0
 345.813 502.354 342.967 502.354 341.544 503.777 c 0
 338.698 505.2 246.196 505.2 244.773 503.777 c 0
 243.35 503.777 243.35 500.932 243.35 468.2 c 0
281.773 389.93 m 0
 291.735 387.083 293.158 385.66 296.005 377.121 c 1
 298.851 358.621 297.428 347.236 290.312 342.967 c 0
 284.62 340.121 268.966 334.429 254.735 333.006 c 0
 247.619 331.582 246.196 330.159 244.773 328.736 c 1
 244.773 328.736 244.773 305.967 244.773 280.351 c 0
 244.773 256.158 243.35 233.389 243.35 233.389 c 2
 243.35 231.965 243.35 247.619 243.35 268.966 c 0
 243.35 290.312 243.35 325.89 241.927 350.083 c 1
 241.927 392.775 241.927 392.775 244.773 392.775 c 1
 246.196 391.353 251.889 391.353 259.004 391.353 c 0
 277.505 391.353 277.505 391.353 281.773 389.93 c 0
203.503 260.428 m 1
 202.08 260.428 200.657 261.851 202.08 261.851 c 0
 203.503 261.851 203.503 261.851 203.503 260.428 c 1
 203.503 260.428 l 1
243.35 219.157 m 0
 243.35 222.004 243.35 223.427 243.35 223.427 c 1
 243.35 223.427 243.35 222.004 243.35 220.58 c 0
 243.35 216.312 243.35 216.312 243.35 219.157 c 0
304.543 166.503 m 0
 301.697 142.31 294.582 138.041 257.581 138.041 c 2
 243.35 138.041 l 1
 243.35 148.002 l 2
 243.35 153.694 243.35 166.503 243.35 179.311 c 2
 243.35 199.234 l 1
 259.004 199.234 l 2
 267.543 199.234 274.658 200.657 276.081 200.657 c 0
 277.505 200.657 284.62 199.234 287.466 199.234 c 0
 300.274 196.388 305.967 185.003 304.543 166.503 c 0
EndSplineSet
EndChar
